<?xml version="1.0" encoding="UTF-8"?>
<svg width="75px" height="80px" viewBox="0 0 75 80" version="1.1" xmlns="http://www.w3.org/2000/svg" xmlns:xlink="http://www.w3.org/1999/xlink">
    <!-- Generator: Sketch 44 (41411) - http://www.bohemiancoding.com/sketch -->
    <title>door</title>
    <desc>Created with Sketch.</desc>
    <defs></defs>
    <g id="Page-1" stroke="none" stroke-width="1" fill="none" fill-rule="evenodd">
        <g id="MAINNEW" transform="translate(-1010.000000, -1059.000000)" fill-rule="nonzero" fill="#FDC72F">
            <g id="Our-Services" transform="translate(260.000000, 866.000000)">
                <g id="3" transform="translate(651.000000, 193.000000)">
                    <g id="door" transform="translate(99.000000, 0.000000)">
                        <path d="M73.3088699,77.3075384 L65.311533,77.3075384 L65.311533,1.33283743 C65.311533,0.53310373 64.7784293,0 63.9786956,0 L10.6630118,0 C9.8632781,-1.38731681e-16 9.33017437,0.53310373 9.33017437,1.33283743 L9.33017437,77.3075384 L1.33283743,77.3075384 C0.53310373,77.3075384 0,77.8406421 0,78.6403758 C0,79.4401095 0.53310373,79.9733695 1.33283743,79.9733695 L10.6630118,79.9733695 L15.9945177,79.9733695 L58.6470335,79.9733695 L63.9785394,79.9733695 L73.3088699,79.9733695 C74.1086036,79.9733695 74.6417074,79.4402657 74.6417074,78.640532 C74.6417074,77.8407983 74.1086036,77.3075384 73.3088699,77.3075384 Z M17.3275113,77.3075384 L17.3275113,7.99733695 L57.3141961,7.99733695 L57.3141961,77.3075384 L17.3275113,77.3075384 Z M59.9800271,77.3075384 L59.9800271,6.66449952 C59.9800271,5.86476583 59.4469234,5.3316621 58.6471897,5.3316621 L15.9946739,5.3316621 C15.1949402,5.3316621 14.6618365,5.86476583 14.6618365,6.66449952 L14.6618365,77.3076946 L11.9960054,77.3076946 L11.9960054,2.66583105 L62.6458581,2.66583105 L62.6458581,77.3076946 L59.9800271,77.3076946 L59.9800271,77.3075384 Z" id="Shape"></path>
                        <path d="M54.2993754,38.3471074 L48.9678695,38.3471074 C48.1681358,38.3471074 47.6350321,38.8802112 47.6350321,39.6799449 L47.6350321,41.0127823 L44.9692011,41.0127823 C44.1694674,41.0127823 43.6363636,41.545886 43.6363636,42.3456197 C43.6363636,43.1453534 44.1694674,43.6784571 44.9692011,43.6784571 L47.6350321,43.6784571 L47.6350321,45.0112946 C47.6350321,45.8110283 48.1681358,46.344132 48.9678695,46.344132 L54.2993754,46.344132 C55.0991091,46.344132 55.6322129,45.8110283 55.6322129,45.0112946 L55.6322129,39.6799449 C55.6322129,38.8802112 55.0991091,38.3471074 54.2993754,38.3471074 Z M52.966538,43.6786133 L50.300707,43.6786133 L50.300707,41.0127823 L52.966538,41.0127823 L52.966538,43.6786133 Z" id="Shape"></path>
                    </g>
                </g>
            </g>
        </g>
    </g>
</svg>