<?xml version="1.0" encoding="UTF-8"?>
<svg width="80px" height="80px" viewBox="0 0 80 80" version="1.1" xmlns="http://www.w3.org/2000/svg" xmlns:xlink="http://www.w3.org/1999/xlink">
    <!-- Generator: Sketch 44 (41411) - http://www.bohemiancoding.com/sketch -->
    <title>engineer</title>
    <desc>Created with Sketch.</desc>
    <defs></defs>
    <g id="Page-1" stroke="none" stroke-width="1" fill="none" fill-rule="evenodd">
        <g id="MAINNEW" transform="translate(-1007.000000, -1371.000000)" fill-rule="nonzero" fill="#FDC72F">
            <g id="Our-Services" transform="translate(260.000000, 866.000000)">
                <g id="6" transform="translate(651.000000, 505.000000)">
                    <g id="engineer" transform="translate(96.000000, 0.000000)">
                        <path d="M76.0000477,66.4000032 C68.0422394,62.1800376 61.9382613,59.8137433 56.5043308,58.9065261 L57.0666751,58.133382 C57.3333916,57.8666656 57.4666704,57.4666704 57.3333916,57.0666751 L56.0838433,52.068641 C59.3886491,47.3967347 61.3333439,41.5559783 61.3333439,36.0000477 L61.3333439,30.666672 L62.6666084,30.666672 L65.3332963,30.666672 C66.1332867,30.666672 66.6665608,30.1333979 66.6665608,29.3334075 C66.6665608,28.533417 66.1332867,28.000143 65.3332963,28.000143 L64.0000318,28.000143 L64.0000318,26.6668785 C64.0000318,16.1335647 57.0666751,7.20023193 46.6666402,4.26682764 L46.6666402,3.99995234 C46.6666402,1.86653852 44.9333805,0 42.6666878,0 L37.3333122,0 C35.1998983,0 33.3333598,1.73325973 33.3333598,3.99995234 L33.3333598,4.26666878 C22.9333249,7.20007307 15.9999682,16.1334059 15.9999682,26.6667196 L15.9999682,27.9999841 L14.6667037,27.9999841 C13.8667133,27.9999841 13.3334392,28.5332581 13.3334392,29.3332486 C13.3334392,30.1332391 13.8667133,30.6665131 14.6667037,30.6665131 L17.3333916,30.6665131 L18.6666561,30.6665131 L18.6666561,35.9998888 C18.6666561,41.5558194 20.6113509,47.3965759 23.9161567,52.068641 L22.6666084,57.0666751 C22.6666084,57.3333916 22.6666084,57.8666656 22.9333249,58.133382 L23.4956692,58.9065261 C18.0618976,59.8139021 11.9577606,62.1800376 3.99995234,66.4000032 C1.46670214,67.6001477 0,70.1333979 0,72.9333646 L0,78.6667355 C0,79.466726 0.533274028,80 1.3332645,80 L33.3333598,80 L33.8666338,80 L46.1333662,80 L46.6666402,80 L78.6667355,80 C79.466726,80 80,79.466726 80,78.6667355 L80,72.9333646 C80.0001589,70.2666767 78.4000191,67.7334265 76.0000477,66.4000032 Z M39.3018145,65.6118802 L40.1089534,63.7958574 L42.1017811,68.1802372 L43.405181,71.1126884 L36.9015253,71.1126884 L39.3018145,65.6118802 Z M36.4506167,73.1776011 L44.8671963,73.1776011 L45.6290617,77.1775535 L35.6506262,77.1775535 L36.4506167,73.1776011 Z M53.8720962,54.4141137 L54.4053702,56.8140851 L53.0433531,58.6842772 C52.9564598,58.7552851 52.8760795,58.8413842 52.8053893,58.94734 L47.2594665,66.6263589 L45.4996781,69.0426923 L41.905122,60.9549412 C46.2018143,60.4308807 50.0373524,58.2739565 53.1351709,55.1742317 C53.1694834,55.1402368 53.2039548,55.1065597 53.2381085,55.0722472 C53.2463689,55.0638279 53.2546294,55.0554086 53.2628898,55.0469894 C53.4682885,54.8409553 53.6714632,54.6303144 53.8720962,54.4141137 Z M51.8575894,10.0071933 C52.0056416,10.105683 52.152423,10.2057612 52.2976159,10.3077457 C53.9971985,11.5742914 55.566044,13.057991 56.7947823,14.6552714 L50.6614162,15.8552571 L51.8575894,10.0071933 Z M29.2750007,15.8552571 L23.1416345,14.6552714 C24.3703729,13.0578321 25.9393772,11.5741325 27.6389598,10.3075869 C27.7839938,10.2057612 27.9307753,10.105683 28.0788275,10.0071933 L29.2750007,15.8552571 Z M18.7634875,27.1272797 C18.7634875,23.5792679 19.6567254,20.2320481 21.2733861,17.3069042 L30.4969458,19.127375 C30.6302246,19.127375 30.6302246,19.127375 30.7636622,19.127375 C31.1636574,19.127375 31.4303739,18.9940962 31.8303691,18.8606586 C32.2303643,18.5939421 32.3636431,18.0606681 32.2303643,17.6606729 L30.3998858,8.75212132 C31.3639728,8.28826664 32.3757161,7.88985995 33.4303501,7.5623023 L33.4303501,11.1273115 C33.4303501,11.9273019 33.9636241,12.4605759 34.7636145,12.4605759 C35.563605,12.4605759 36.096879,11.9273019 36.096879,11.1273115 L36.096879,5.79393576 L36.096879,4.46051241 C36.096879,3.79380073 36.6301531,3.12724791 37.4301435,3.12724791 L42.7635192,3.12724791 C43.4302309,3.12724791 44.0967837,3.66052194 44.0967837,4.46051241 L44.0967837,5.7937769 L44.0967837,11.1271526 C44.0967837,11.9271431 44.6300578,12.4604171 45.4300482,12.4604171 C46.2300387,12.4604171 46.7633127,11.9271431 46.7633127,11.1271526 L46.7633127,7.5623023 C47.8530535,7.90066205 48.8975208,8.31431876 49.8903605,8.79803023 L48.0967361,17.5273941 C48.0967361,17.9273893 48.2300149,18.4606633 48.4967313,18.7273798 C48.7634478,18.9940962 49.0300053,19.127375 49.4300006,19.127375 C49.5632794,19.127375 49.5632794,19.127375 49.696717,19.127375 L58.8605475,17.198089 C60.5151743,20.1489673 61.4300165,23.5354241 61.4300165,27.1272797 L61.4300165,28.4605442 L60.096752,28.4605442 L20.0969108,28.4605442 L18.7636463,28.4605442 L18.7636463,27.1272797 L18.7634875,27.1272797 Z M21.2654446,31.2724791 L58.5987568,31.2724791 L58.5987568,36.6058548 C58.5987568,42.4197649 56.6043405,47.5861847 53.6099362,51.5132229 L53.5320975,51.5391161 C53.3988188,51.6723949 53.2653811,51.8058326 53.1321023,51.9391114 C52.4612604,52.8336202 51.7532466,53.6491784 51.0134619,54.3845151 C47.8740236,57.3093413 44.1293502,59.0808849 40.5211326,59.2564189 C40.3395621,59.1784215 40.1359108,59.1391844 39.9321007,59.1391844 C39.7271786,59.1391844 39.542431,59.1793746 39.3767459,59.2581663 C37.1680352,59.1568173 34.9075379,58.4567462 32.7647516,57.2591433 C30.5940071,56.0119778 28.5519345,54.2140644 26.7319403,51.9391114 C26.5986615,51.8058326 26.4652238,51.6723949 26.331945,51.5391161 L26.2541064,51.5132229 C23.2597021,47.5860258 21.2652858,42.419606 21.2652858,36.6058548 L21.2652858,31.2724791 L21.2654446,31.2724791 Z M38.1436811,60.9551001 L34.549125,69.0428512 L32.7893366,66.6265178 L27.2434138,58.9474989 C27.2009997,58.9050848 27.1539788,58.8629884 27.1053694,58.8215274 L25.6434329,56.8140851 L26.1767069,54.4141137 C26.3574831,54.6087102 26.5408011,54.7983823 26.7258664,54.9850362 C29.8559323,58.18611 33.7597778,60.4203963 38.1436811,60.9551001 Z M2.50179833,72.8855016 C2.50179833,71.1522418 3.43506759,69.552102 5.03520738,68.7521116 C13.5340736,64.2369946 19.6521897,61.9709374 25.1021645,61.2940591 L33.0588608,72.2343576 L32.048706,77.2852903 L2.50179833,77.2852903 L2.50179833,72.8855016 Z M76.8401727,77.4037956 L47.2934238,77.4037956 L46.2832691,72.352863 L54.3260644,61.2940591 C59.7569767,62.1135886 65.9845435,64.3778984 74.3067636,68.7371793 C75.9067446,69.6704485 76.8401727,71.2705883 76.8401727,73.0038481 L76.8401727,77.4037956 L76.8401727,77.4037956 Z" id="Shape"></path>
                    </g>
                </g>
            </g>
        </g>
    </g>
</svg>