<?xml version="1.0" encoding="UTF-8"?>
<svg width="81px" height="75px" viewBox="0 0 81 75" version="1.1" xmlns="http://www.w3.org/2000/svg" xmlns:xlink="http://www.w3.org/1999/xlink">
    <!-- Generator: Sketch 44 (41411) - http://www.bohemiancoding.com/sketch -->
    <title>hammer</title>
    <desc>Created with Sketch.</desc>
    <defs></defs>
    <g id="Page-1" stroke="none" stroke-width="1" fill="none" fill-rule="evenodd">
        <g id="MAINNEW" transform="translate(-681.000000, -1062.000000)" fill-rule="nonzero" fill="#FDC72F">
            <g id="Our-Services" transform="translate(260.000000, 866.000000)">
                <g id="2" transform="translate(325.500000, 196.000000)">
                    <g id="hammer" transform="translate(96.000000, 0.000000)">
                        <path d="M78.2922281,23.1791104 L74.9691782,19.8560605 C74.0387616,18.792616 72.3106448,18.792616 71.247356,19.8560605 L67.5255338,16.1342383 C68.0571782,15.6025939 68.3230783,14.9379216 68.3230783,14.2732493 C68.3230783,13.6085771 68.0571782,12.9440605 67.5255338,12.4122604 L61.2780504,6.16477694 C53.8342503,-1.41189532 40.940667,-2.07656762 33.2309668,4.56968804 C32.4334223,5.23436034 31.76875,5.89887687 31.1042335,6.69642132 C30.439717,7.49396576 30.3066891,8.69028244 30.8383334,9.75372696 C31.5030057,10.8171715 32.5662945,11.3488159 33.7626111,11.0829158 L34.1613834,10.9500436 C37.4844333,10.2853713 40.9405112,10.8171715 43.9978168,12.2792325 C44.8167018,12.7705323 46.6949813,14.3213824 48.3274551,15.7505758 L1.19631667,61.8600162 C0.398772224,62.5245327 0,63.5879772 0,64.6514218 L0,65.1830661 C0,70.101205 3.98772224,74.2219552 9.03888901,74.2219552 L10.899878,74.2219552 C11.9633225,74.2219552 13.0266113,73.8231829 13.6912836,73.0256385 L60.650763,24.1469119 L63.8037117,27.2998606 C62.7402671,28.3633051 62.7402671,29.958394 63.8037117,31.0216828 L67.1267616,34.3447327 C68.0571782,35.2751493 69.2534949,35.6739215 70.4498116,35.6739215 C71.6461282,35.6739215 72.8424449,35.2751493 73.6399894,34.4776049 L78.2923839,29.8252103 C79.0899283,28.8947937 79.6215727,27.8313492 79.6215727,26.5021604 C79.6215727,25.1729716 79.2228005,24.109527 78.2922281,23.1791104 Z M11.6972667,71.2975217 C11.4313666,71.5634217 11.1656223,71.6962939 10.7668501,71.6962939 L9.03888901,71.6962939 C5.58281114,71.6962939 2.65853342,68.9048883 2.65853342,65.3159383 L2.65853342,64.7842939 C2.65853342,64.3855217 2.79140557,63.9867495 3.05730564,63.8538773 L50.3722531,17.6022186 C50.4192958,17.6469247 50.4654038,17.6908519 50.5090196,17.7329099 C50.5861259,17.8202971 50.6440725,17.9076843 50.6440725,17.9952273 L56.2268836,23.5780384 C56.3664539,23.7176087 56.5424745,23.8201056 56.7169373,23.9056236 C56.8443575,24.000332 56.9806566,24.0797749 57.1227192,24.1456658 L11.6972667,71.2975217 Z M76.4313949,27.8313492 L71.7790004,32.4837437 C70.9814559,33.2812882 69.7851393,33.2812882 68.9875948,32.4837437 L65.6645449,29.1606938 C66.1961892,28.6290494 66.4620893,27.9643771 66.4620893,27.2997048 C66.4620893,26.6350325 66.1961892,25.970516 65.6645449,25.4387159 L62.4743671,22.2485381 L62.4743671,22.2485381 L62.3679759,22.1421469 L61.9425669,21.7167379 C61.9425669,21.7167379 61.9425669,21.7167379 61.9425669,21.7167379 L61.5437947,21.3179657 C60.6133781,20.5204212 59.0182892,20.6532934 58.0877168,21.5838658 L52.5049057,16.0010546 C52.2390056,15.6022824 51.7073612,15.2035102 51.1757169,14.6718658 L50.2453003,13.8743214 L50.1519938,13.9656028 C48.4101692,12.4245662 46.2069526,10.5923948 45.0612614,10.019627 C41.4723113,8.15863806 37.3517169,7.62699369 33.4968668,8.42453813 L33.0980946,8.42453813 C33.629739,7.75986584 34.2944113,7.09534931 34.9590836,6.56354916 C41.7382114,0.71483795 52.9038337,1.37951025 59.4170614,7.89273799 L65.6645449,14.1402214 C64.6011003,15.2036659 64.6011003,16.7987548 65.6645449,17.8620436 L69.386367,21.5838658 C70.3167836,22.6473103 72.0449005,22.6473103 73.1081892,21.5838658 L76.4312392,24.9069157 C76.6971392,25.3056879 76.9628835,25.8373323 76.9628835,26.3691325 C76.9628835,26.9009326 76.8301672,27.432577 76.4313949,27.8313492 Z" id="Shape"></path>
                        <path d="M26.3744633,50.8336522 L9.09438546,68.11373 C8.56274108,68.6453744 8.56274108,69.4429188 9.09438546,69.974719 C9.36028553,70.240619 9.62602983,70.3734912 10.0248021,70.3734912 C10.4235743,70.3734912 10.6894744,70.240619 10.9552187,69.974719 L28.2354522,52.6944854 C28.7670966,52.162841 28.7670966,51.3652966 28.2354522,50.8334964 C27.7038078,50.301852 26.9062634,50.301852 26.3744633,50.8336522 Z" id="Shape"></path>
                        <path d="M39.268584,37.500241 L29.9639507,46.8048743 C29.4323063,47.3365187 29.4323063,48.1340631 29.9639507,48.6658633 C30.2298507,48.9317633 30.495595,49.0646355 30.8943673,49.0646355 C31.2931395,49.0646355 31.5590396,48.9317633 31.8247839,48.6658633 L41.1294172,39.3612299 C41.6610616,38.8295856 41.6610616,38.0320411 41.1294172,37.500241 C40.5977728,36.9684408 39.8002284,36.9685966 39.268584,37.500241 Z" id="Shape"></path>
                        <path d="M47.2850063,29.9639507 L43.297284,33.9516729 C42.7656396,34.4833173 42.7656396,35.2808617 43.297284,35.8126619 C43.5631841,36.078562 43.8289284,36.2114341 44.2277006,36.2114341 C44.6264728,36.2114341 44.8923729,36.078562 45.1581172,35.8126619 L49.1458395,31.8249396 C49.6774838,31.2932953 49.6774838,30.4957508 49.1458395,29.9639507 C48.6141951,29.4323063 47.8166506,29.4323063 47.2850063,29.9639507 Z" id="Shape"></path>
                        <path d="M9.21624399,64.8976889 L18.5208773,55.5930556 C19.0525217,55.0614112 19.0525217,54.2638668 18.5208773,53.7320666 C17.9892329,53.2004222 17.1916885,53.2004222 16.6598883,53.7320666 L7.35525502,63.0366999 C6.82361065,63.5683443 6.82361065,64.3658888 7.35525502,64.8976889 C7.62115509,65.163589 7.8868994,65.2964611 8.28567162,65.2964611 C8.68444385,65.2964611 8.95049969,65.163589 9.21624399,64.8976889 Z" id="Shape"></path>
                        <path d="M21.6191607,51.9631862 C22.0179329,51.9631862 22.283833,51.8303141 22.5495773,51.564414 L31.8542106,42.2597807 C32.385855,41.7281363 32.385855,40.9305918 31.8542106,40.3987917 C31.3225663,39.8669916 30.5250218,39.8671473 29.9932217,40.3987917 L20.6885884,49.703425 C20.156944,50.2350694 20.156944,51.0326138 20.6885884,51.564414 C20.9546442,51.8303141 21.2203885,51.9631862 21.6191607,51.9631862 Z" id="Shape"></path>
                        <path d="M34.9524941,38.9695457 C35.3512663,38.9695457 35.6171664,38.8366736 35.8829107,38.5707735 L47.8460774,26.6076068 C48.3777218,26.0759624 48.3777218,25.2784179 47.8460774,24.7466178 C47.314433,24.2148176 46.5168886,24.2149734 45.9850884,24.7466178 L34.0219217,36.7097845 C33.4902773,37.2414289 33.4902773,38.0389733 34.0219217,38.5707735 C34.2878218,38.8365178 34.5537218,38.9695457 34.9524941,38.9695457 Z" id="Shape"></path>
                    </g>
                </g>
            </g>
        </g>
    </g>
</svg>