<?xml version="1.0" encoding="UTF-8"?>
<svg width="161px" height="45px" viewBox="0 0 161 45" version="1.1" xmlns="http://www.w3.org/2000/svg" xmlns:xlink="http://www.w3.org/1999/xlink">
    <!-- Generator: Sketch 44 (41411) - http://www.bohemiancoding.com/sketch -->
    <title>Artboard</title>
    <desc>Created with Sketch.</desc>
    <defs></defs>
    <g id="Page-1" stroke="none" stroke-width="1" fill="none" fill-rule="evenodd">
        <g id="Artboard">
            <g id="Group-2" transform="translate(1.000000, 1.000000)">
                <path d="M85.49,26 L81.425,26 L81.425,16.52 L71.255,16.52 L71.255,26 L67.19,26 L67.19,4.31 L71.255,4.31 L71.255,13.64 L81.425,13.64 L81.425,4.31 L85.49,4.31 L85.49,26 Z M111.675,15.155 C111.675,16.745008 111.410003,18.2174932 110.88,19.5725 C110.349997,20.9275068 109.605005,22.0999951 108.645,23.09 C107.684995,24.0800049 106.530007,24.8524972 105.18,25.4075 C103.829993,25.9625028 102.335008,26.24 100.695,26.24 C99.0549917,26.24 97.5575067,25.9625028 96.2024999,25.4075 C94.8474932,24.8524972 93.6875048,24.0800049 92.7224999,23.09 C91.7574951,22.0999951 91.0100026,20.9275068 90.4799999,19.5725 C89.9499973,18.2174932 89.6849999,16.745008 89.6849999,15.155 C89.6849999,13.5649921 89.9499973,12.0925068 90.4799999,10.7375 C91.0100026,9.38249323 91.7574951,8.21000495 92.7224999,7.22 C93.6875048,6.22999505 94.8474932,5.45750277 96.2024999,4.9025 C97.5575067,4.34749723 99.0549917,4.07 100.695,4.07 C102.335008,4.07 103.829993,4.3499972 105.18,4.91 C106.530007,5.4700028 107.684995,6.24249508 108.645,7.2275 C109.605005,8.21250493 110.349997,9.38249323 110.88,10.7375 C111.410003,12.0925068 111.675,13.5649921 111.675,15.155 Z M107.535,15.155 C107.535,13.9649941 107.377502,12.8975047 107.0625,11.9525 C106.747498,11.0074953 106.295003,10.2050033 105.705,9.545 C105.114997,8.8849967 104.397504,8.38000175 103.5525,8.03 C102.707496,7.67999825 101.755005,7.505 100.695,7.505 C99.6349946,7.505 98.6800042,7.67999825 97.8299999,8.03 C96.9799957,8.38000175 96.2575029,8.8849967 95.6624999,9.545 C95.067497,10.2050033 94.6100015,11.0074953 94.2899999,11.9525 C93.9699983,12.8975047 93.8099999,13.9649941 93.8099999,15.155 C93.8099999,16.345006 93.9699983,17.4124953 94.2899999,18.3575 C94.6100015,19.3025047 95.067497,20.1024967 95.6624999,20.7575 C96.2575029,21.4125033 96.9799957,21.9149983 97.8299999,22.265 C98.6800042,22.6150018 99.6349946,22.79 100.695,22.79 C101.755005,22.79 102.707496,22.6150018 103.5525,22.265 C104.397504,21.9149983 105.114997,21.4125033 105.705,20.7575 C106.295003,20.1024967 106.747498,19.3025047 107.0625,18.3575 C107.377502,17.4124953 107.535,16.345006 107.535,15.155 Z M126.745,17 C126.915001,17.3200016 127.072499,17.6524983 127.2175,17.9975 C127.362501,18.3425017 127.504999,18.6899983 127.645,19.04 C127.785001,18.6799982 127.929999,18.3250017 128.08,17.975 C128.230001,17.6249983 128.389999,17.2900016 128.56,16.97 L134.98,4.955 C135.06,4.80499925 135.142499,4.68500045 135.2275,4.595 C135.3125,4.50499955 135.407499,4.4400002 135.5125,4.4 C135.6175,4.3599998 135.734999,4.33500005 135.865,4.325 C135.995001,4.31499995 136.149999,4.31 136.33,4.31 L139.375,4.31 L139.375,26 L135.82,26 L135.82,11.99 C135.82,11.7299987 135.8275,11.4450016 135.8425,11.135 C135.8575,10.8249984 135.88,10.5100016 135.91,10.19 L129.355,22.49 C129.204999,22.7700014 129.010001,22.9874992 128.77,23.1425 C128.529999,23.2975008 128.250001,23.375 127.93,23.375 L127.375,23.375 C127.054998,23.375 126.775001,23.2975008 126.535,23.1425 C126.294999,22.9874992 126.100001,22.7700014 125.95,22.49 L119.305,10.145 C119.345,10.4750016 119.3725,10.7974984 119.3875,11.1125 C119.4025,11.4275016 119.41,11.7199987 119.41,11.99 L119.41,26 L115.855,26 L115.855,4.31 L118.9,4.31 C119.080001,4.31 119.234999,4.31499995 119.365,4.325 C119.495001,4.33500005 119.612499,4.3599998 119.7175,4.4 C119.8225,4.4400002 119.919999,4.50499955 120.01,4.595 C120.1,4.68500045 120.184999,4.80499925 120.265,4.955 L126.745,17 Z M158.435,4.31 L158.435,7.52 L148.82,7.52 L148.82,13.535 L156.395,13.535 L156.395,16.64 L148.82,16.64 L148.82,22.775 L158.435,22.775 L158.435,26 L144.755,26 L144.755,4.31 L158.435,4.31 Z" id="HOME" fill="#2C2C2C"></path>
                <path d="M68.322,37.412 L68.322,41 L67.164,41 L67.164,32.402 L69.594,32.402 C70.1380027,32.402 70.607998,32.4569994 71.004,32.567 C71.400002,32.6770006 71.7269987,32.835999 71.985,33.044 C72.2430013,33.252001 72.4339994,33.5029985 72.558,33.797 C72.6820006,34.0910015 72.744,34.4199982 72.744,34.784 C72.744,35.0880015 72.6960005,35.3719987 72.6,35.636 C72.5039995,35.9000013 72.3650009,36.1369989 72.183,36.347 C72.0009991,36.557001 71.7790013,36.7359993 71.517,36.884 C71.2549987,37.0320007 70.9580017,37.1439996 70.626,37.22 C70.7700007,37.3040004 70.8979994,37.4259992 71.01,37.586 L73.518,41 L72.486,41 C72.2739989,41 72.1180005,40.9180008 72.018,40.754 L69.786,37.682 C69.7179997,37.5859995 69.6440004,37.5170002 69.564,37.475 C69.4839996,37.4329998 69.3640008,37.412 69.204,37.412 L68.322,37.412 Z M68.322,36.566 L69.54,36.566 C69.8800017,36.566 70.1789987,36.5250004 70.437,36.443 C70.6950013,36.3609996 70.9109991,36.2450008 71.085,36.095 C71.2590009,35.9449993 71.3899996,35.766001 71.478,35.558 C71.5660004,35.349999 71.61,35.1200013 71.61,34.868 C71.61,34.3559974 71.4410017,33.9700013 71.103,33.71 C70.7649983,33.4499987 70.2620033,33.32 69.594,33.32 L68.322,33.32 L68.322,36.566 Z M81.07,32.402 L81.07,33.35 L76.942,33.35 L76.942,36.206 L80.284,36.206 L80.284,37.118 L76.942,37.118 L76.942,40.052 L81.07,40.052 L81.07,41 L75.772,41 L75.772,32.402 L81.07,32.402 Z M84.344,32.402 C84.4480005,32.402 84.5249998,32.4149999 84.575,32.441 C84.6250002,32.4670001 84.6819997,32.5199996 84.746,32.6 L89.726,39.08 C89.7139999,38.9759995 89.706,38.8750005 89.702,38.777 C89.698,38.6789995 89.696,38.5840005 89.696,38.492 L89.696,32.402 L90.716,32.402 L90.716,41 L90.128,41 C90.0359995,41 89.9590003,40.9840002 89.897,40.952 C89.8349997,40.9199998 89.7740003,40.8660004 89.714,40.79 L84.74,34.316 C84.748,34.4160005 84.754,34.5139995 84.758,34.61 C84.762,34.7060005 84.764,34.7939996 84.764,34.874 L84.764,41 L83.744,41 L83.744,32.402 L84.344,32.402 Z M101.802,36.704 C101.802,37.3480032 101.700001,37.9389973 101.496,38.477 C101.291999,39.0150027 101.004002,39.4779981 100.632,39.866 C100.259998,40.2540019 99.8130026,40.5549989 99.291,40.769 C98.7689974,40.9830011 98.1920032,41.09 97.56,41.09 C96.9279968,41.09 96.3520026,40.9830011 95.832,40.769 C95.3119974,40.5549989 94.8660019,40.2540019 94.494,39.866 C94.1219981,39.4779981 93.834001,39.0150027 93.63,38.477 C93.425999,37.9389973 93.324,37.3480032 93.324,36.704 C93.324,36.0599968 93.425999,35.4690027 93.63,34.931 C93.834001,34.3929973 94.1219981,33.9290019 94.494,33.539 C94.8660019,33.1489981 95.3119974,32.8460011 95.832,32.63 C96.3520026,32.4139989 96.9279968,32.306 97.56,32.306 C98.1920032,32.306 98.7689974,32.4139989 99.291,32.63 C99.8130026,32.8460011 100.259998,33.1489981 100.632,33.539 C101.004002,33.9290019 101.291999,34.3929973 101.496,34.931 C101.700001,35.4690027 101.802,36.0599968 101.802,36.704 Z M100.608,36.704 C100.608,36.1759974 100.536001,35.7020021 100.392,35.282 C100.247999,34.8619979 100.044001,34.5070015 99.78,34.217 C99.5159987,33.9269986 99.1960019,33.7040008 98.82,33.548 C98.4439981,33.3919992 98.0240023,33.314 97.56,33.314 C97.0999977,33.314 96.6820019,33.3919992 96.306,33.548 C95.9299981,33.7040008 95.6090013,33.9269986 95.343,34.217 C95.0769987,34.5070015 94.8720007,34.8619979 94.728,35.282 C94.5839993,35.7020021 94.512,36.1759974 94.512,36.704 C94.512,37.2320026 94.5839993,37.7049979 94.728,38.123 C94.8720007,38.5410021 95.0769987,38.8949985 95.343,39.185 C95.6090013,39.4750015 95.9299981,39.6969992 96.306,39.851 C96.6820019,40.0050008 97.0999977,40.082 97.56,40.082 C98.0240023,40.082 98.4439981,40.0050008 98.82,39.851 C99.1960019,39.6969992 99.5159987,39.4750015 99.78,39.185 C100.044001,38.8949985 100.247999,38.5410021 100.392,38.123 C100.536001,37.7049979 100.608,37.2320026 100.608,36.704 Z M103.084,32.402 L104.014,32.402 C104.118001,32.402 104.202,32.4279997 104.266,32.48 C104.33,32.5320003 104.378,32.5979996 104.41,32.678 L106.84,38.744 C106.896,38.8800007 106.947,39.0279992 106.993,39.188 C107.039,39.3480008 107.084,39.5139991 107.128,39.686 C107.164,39.5139991 107.203,39.3480008 107.245,39.188 C107.287,39.0279992 107.336,38.8800007 107.392,38.744 L109.81,32.678 C109.838,32.6099997 109.886,32.5470003 109.954,32.489 C110.022,32.4309997 110.105999,32.402 110.206,32.402 L111.142,32.402 L107.638,41 L106.588,41 L103.084,32.402 Z M119.498,41 L118.598,41 C118.493999,41 118.41,40.9740003 118.346,40.922 C118.282,40.8699997 118.234,40.8040004 118.202,40.724 L117.398,38.648 L113.54,38.648 L112.736,40.724 C112.708,40.7960004 112.66,40.8599997 112.592,40.916 C112.524,40.9720003 112.44,41 112.34,41 L111.44,41 L114.878,32.402 L116.06,32.402 L119.498,41 Z M113.864,37.808 L117.074,37.808 L115.724,34.31 C115.636,34.0939989 115.55,33.8240016 115.466,33.5 C115.422,33.6640008 115.379,33.8149993 115.337,33.953 C115.295,34.0910007 115.254,34.2119995 115.214,34.316 L113.864,37.808 Z M126.648,32.402 L126.648,33.38 L123.87,33.38 L123.87,41 L122.706,41 L122.706,33.38 L119.916,33.38 L119.916,32.402 L126.648,32.402 Z M130.252,41 L129.088,41 L129.088,32.402 L130.252,32.402 L130.252,41 Z M141.542,36.704 C141.542,37.3480032 141.440001,37.9389973 141.236,38.477 C141.031999,39.0150027 140.744002,39.4779981 140.372,39.866 C139.999998,40.2540019 139.553003,40.5549989 139.031,40.769 C138.508997,40.9830011 137.932003,41.09 137.3,41.09 C136.667997,41.09 136.092003,40.9830011 135.572,40.769 C135.051997,40.5549989 134.606002,40.2540019 134.234,39.866 C133.861998,39.4779981 133.574001,39.0150027 133.37,38.477 C133.165999,37.9389973 133.064,37.3480032 133.064,36.704 C133.064,36.0599968 133.165999,35.4690027 133.37,34.931 C133.574001,34.3929973 133.861998,33.9290019 134.234,33.539 C134.606002,33.1489981 135.051997,32.8460011 135.572,32.63 C136.092003,32.4139989 136.667997,32.306 137.3,32.306 C137.932003,32.306 138.508997,32.4139989 139.031,32.63 C139.553003,32.8460011 139.999998,33.1489981 140.372,33.539 C140.744002,33.9290019 141.031999,34.3929973 141.236,34.931 C141.440001,35.4690027 141.542,36.0599968 141.542,36.704 Z M140.348,36.704 C140.348,36.1759974 140.276001,35.7020021 140.132,35.282 C139.987999,34.8619979 139.784001,34.5070015 139.52,34.217 C139.255999,33.9269986 138.936002,33.7040008 138.56,33.548 C138.183998,33.3919992 137.764002,33.314 137.3,33.314 C136.839998,33.314 136.422002,33.3919992 136.046,33.548 C135.669998,33.7040008 135.349001,33.9269986 135.083,34.217 C134.816999,34.5070015 134.612001,34.8619979 134.468,35.282 C134.323999,35.7020021 134.252,36.1759974 134.252,36.704 C134.252,37.2320026 134.323999,37.7049979 134.468,38.123 C134.612001,38.5410021 134.816999,38.8949985 135.083,39.185 C135.349001,39.4750015 135.669998,39.6969992 136.046,39.851 C136.422002,40.0050008 136.839998,40.082 137.3,40.082 C137.764002,40.082 138.183998,40.0050008 138.56,39.851 C138.936002,39.6969992 139.255999,39.4750015 139.52,39.185 C139.784001,38.8949985 139.987999,38.5410021 140.132,38.123 C140.276001,37.7049979 140.348,37.2320026 140.348,36.704 Z M144.732,32.402 C144.836001,32.402 144.913,32.4149999 144.963,32.441 C145.013,32.4670001 145.07,32.5199996 145.134,32.6 L150.114,39.08 C150.102,38.9759995 150.094,38.8750005 150.09,38.777 C150.086,38.6789995 150.084,38.5840005 150.084,38.492 L150.084,32.402 L151.104,32.402 L151.104,41 L150.516,41 C150.424,41 150.347,40.9840002 150.285,40.952 C150.223,40.9199998 150.162,40.8660004 150.102,40.79 L145.128,34.316 C145.136,34.4160005 145.142,34.5139995 145.146,34.61 C145.15,34.7060005 145.152,34.7939996 145.152,34.874 L145.152,41 L144.132,41 L144.132,32.402 L144.732,32.402 Z M158.608,33.746 C158.572,33.8060003 158.534,33.8509999 158.494,33.881 C158.454,33.9110001 158.402,33.926 158.338,33.926 C158.27,33.926 158.191,33.8920003 158.101,33.824 C158.011,33.7559997 157.897001,33.6810004 157.759,33.599 C157.620999,33.5169996 157.455001,33.4420003 157.261,33.374 C157.066999,33.3059997 156.832001,33.272 156.556,33.272 C156.295999,33.272 156.066001,33.3069997 155.866,33.377 C155.665999,33.4470003 155.499001,33.5419994 155.365,33.662 C155.230999,33.7820006 155.13,33.9229992 155.062,34.085 C154.994,34.2470008 154.96,34.4219991 154.96,34.61 C154.96,34.8500012 155.018999,35.0489992 155.137,35.207 C155.255001,35.3650008 155.410999,35.4999994 155.605,35.612 C155.799001,35.7240006 156.018999,35.8209996 156.265,35.903 C156.511001,35.9850004 156.762999,36.0699996 157.021,36.158 C157.279001,36.2460004 157.530999,36.3449995 157.777,36.455 C158.023001,36.5650006 158.242999,36.7039992 158.437,36.872 C158.631001,37.0400008 158.786999,37.2459988 158.905,37.49 C159.023001,37.7340012 159.082,38.0339982 159.082,38.39 C159.082,38.7660019 159.018001,39.1189983 158.89,39.449 C158.761999,39.7790016 158.575001,40.0659988 158.329,40.31 C158.082999,40.5540012 157.781002,40.7459993 157.423,40.886 C157.064998,41.0260007 156.658002,41.096 156.202,41.096 C155.645997,41.096 155.139002,40.995001 154.681,40.793 C154.222998,40.590999 153.832002,40.3180017 153.508,39.974 L153.844,39.422 C153.876,39.3779998 153.915,39.3410001 153.961,39.311 C154.007,39.2809999 154.058,39.266 154.114,39.266 C154.198,39.266 154.293999,39.3109995 154.402,39.401 C154.510001,39.4910005 154.644999,39.5899995 154.807,39.698 C154.969001,39.8060005 155.164999,39.9049995 155.395,39.995 C155.625001,40.0850004 155.905998,40.13 156.238,40.13 C156.514001,40.13 156.759999,40.0920004 156.976,40.016 C157.192001,39.9399996 157.374999,39.8330007 157.525,39.695 C157.675001,39.5569993 157.79,39.392001 157.87,39.2 C157.95,39.007999 157.99,38.7940012 157.99,38.558 C157.99,38.2979987 157.931001,38.0850008 157.813,37.919 C157.694999,37.7529992 157.540001,37.6140006 157.348,37.502 C157.155999,37.3899994 156.937001,37.2950004 156.691,37.217 C156.444999,37.1389996 156.193001,37.0590004 155.935,36.977 C155.676999,36.8949996 155.425001,36.8000005 155.179,36.692 C154.932999,36.5839995 154.714001,36.4440009 154.522,36.272 C154.329999,36.0999991 154.175001,35.8850013 154.057,35.627 C153.938999,35.3689987 153.88,35.0500019 153.88,34.67 C153.88,34.3659985 153.938999,34.0720014 154.057,33.788 C154.175001,33.5039986 154.345999,33.2520011 154.57,33.032 C154.794001,32.8119989 155.070998,32.6360007 155.401,32.504 C155.731002,32.3719993 156.109998,32.306 156.538,32.306 C157.018002,32.306 157.455998,32.3819992 157.852,32.534 C158.248002,32.6860008 158.593999,32.9059986 158.89,33.194 L158.608,33.746 Z" id="RENOVATIONS" fill="#2C2C2C"></path>
                <path d="M55.88279,33.9666994 L55.8203417,33.9666994 L55.8203417,28.9091748 C55.8203417,16.2871581 47.0023658,5.34729393 34.7554908,2.6358166 C34.6904451,1.98321456 34.4110651,1.37612189 33.9468244,0.895619786 C33.3888547,0.318113849 32.6393618,0 31.8362287,0 L25.9821208,0 C25.1789878,0 24.4294949,0.318113849 23.8715252,0.895619786 C23.4073975,1.37612189 23.1279045,1.98321456 23.0628588,2.6358166 C10.8159838,5.34729393 1.99800793,16.2871581 1.99800793,28.9091748 L1.99800793,33.9666994 L1.93555959,33.9666994 C0.868178656,33.9666994 0,34.834991 0,35.902259 L0,37.1758437 C0,38.0186139 0.533125837,38.7590727 1.32654717,39.0184648 C8.84982113,41.4783419 18.6456273,42.8330078 28.9091748,42.8330078 C39.1727223,42.8330078 48.9685285,41.4783419 56.4918024,39.0184648 C57.2852238,38.7590727 57.8183496,38.0186139 57.8183496,37.1758437 L57.8183496,35.902259 C57.8183496,34.834991 56.950058,33.9666994 55.88279,33.9666994 Z M25.218738,2.19709728 C25.4205375,1.98829625 25.691674,1.87311126 25.9821208,1.87311126 L31.8361158,1.87311126 C32.1265627,1.87311126 32.3976991,1.9880704 32.5994987,2.19709728 C32.8012983,2.40601124 32.9069975,2.68098718 32.896947,2.9712082 L32.0357698,27.9467025 C32.0158947,28.5214982 31.5499602,28.9717361 30.9749386,28.9717361 L26.8435239,28.9717361 C26.2685024,28.9717361 25.8025678,28.5214982 25.7826927,27.9468155 L24.9215155,2.97132112 C24.9113521,2.68087426 25.0169384,2.40601124 25.218738,2.19709728 Z M55.9452383,37.1759566 C55.9452383,37.2011392 55.9342845,37.2301613 55.9097794,37.2381791 C48.5693334,39.6380923 38.9802956,40.9598966 28.9091748,40.9598966 C18.838054,40.9598966 9.24901618,39.6380923 1.9086831,37.2379532 C1.88417805,37.2299354 1.87322419,37.2010263 1.87322419,37.1758437 L1.87322419,35.902259 C1.87322419,35.8678164 1.90122995,35.8398107 1.93567252,35.8398107 L37.9003799,35.8398107 C38.4175831,35.8398107 38.836992,35.4205147 38.836992,34.9031986 C38.836992,34.3859954 38.417696,33.9665865 37.9003799,33.9665865 L3.87123211,33.9665865 L3.87123211,28.9091748 C3.87123211,19.4961894 9.14230068,11.0893788 17.1012449,6.82392037 L19.1334696,21.0502834 C19.200322,21.5174602 19.6008722,21.8545457 20.0595795,21.8545457 C20.1036208,21.8545457 20.1482268,21.8513837 20.1931715,21.8450598 C20.705293,21.7718835 21.0611243,21.2974794 20.987948,20.7854708 L18.8705768,5.96296901 C20.2190317,5.37258945 21.6330969,4.89728197 23.1015926,4.54901675 L23.9107107,28.0115223 C23.9654801,29.6002848 25.2537452,30.8449602 26.8436368,30.8449602 L30.9750515,30.8449602 C32.5648303,30.8449602 33.8530954,29.6002848 33.9079777,28.0115223 L34.7170958,4.54912968 C36.1854786,4.89750782 37.5996567,5.37281531 38.9481116,5.96308193 L36.8307404,20.7855838 C36.757677,21.2977053 37.1135083,21.7719964 37.6255168,21.8451728 C37.6704616,21.8514966 37.7150675,21.8546586 37.7591089,21.8546586 C38.2177032,21.8546586 38.6183663,21.5174602 38.6852188,21.0503963 L40.7174434,6.8240333 C48.6763877,11.0893788 53.9474563,19.4960765 53.9474563,28.9091748 L53.9474563,33.9666994 L47.8906454,33.9666994 C47.3734422,33.9666994 46.9540333,34.3859954 46.9540333,34.9033115 C46.9540333,35.4205147 47.3733292,35.8399236 47.8906454,35.8399236 L55.8830159,35.8399236 C55.9174584,35.8399236 55.9454642,35.8679294 55.9454642,35.9023719 L55.9454642,37.1759566 L55.9452383,37.1759566 Z" id="Shape" fill="#FFC107" fill-rule="nonzero"></path>
                <path d="M44.9347329,34 L42.9366121,34 C42.4194089,34 42,34.419296 42,34.9366121 C42,35.4538153 42.419296,35.8732242 42.9366121,35.8732242 L44.9347329,35.8732242 C45.4519362,35.8732242 45.871345,35.4539282 45.871345,34.9366121 C45.871345,34.419296 45.4520491,34 44.9347329,34 Z" id="Shape" fill="#FFC107" fill-rule="nonzero"></path>
                <path d="M22.1494943,26.8028868 L21.8639033,24.8043142 C21.7907269,24.2921927 21.3166616,23.9363614 20.8043142,24.0095378 C20.2921927,24.0827141 19.9363614,24.5571182 20.0095378,25.0691268 L20.2950159,27.0676994 C20.3618684,27.5348761 20.7624185,27.8719616 21.2211258,27.8719616 C21.2651671,27.8719616 21.3097731,27.8687997 21.3547178,27.8624758 C21.8668393,27.7892995 22.2226706,27.3148954 22.1494943,26.8028868 Z" id="Shape" fill="#FFC107" fill-rule="nonzero"></path>
                <path d="M38.3545778,24.0095602 C37.8424563,23.9362709 37.3681651,24.292328 37.2949888,24.8043366 L37.0095107,26.8029092 C36.9364473,27.3150307 37.2922786,27.7893218 37.8042871,27.8624982 C37.8491189,27.8688221 37.8938378,27.871984 37.9378791,27.871984 C38.3964735,27.871984 38.7971366,27.5347856 38.8639891,27.0677217 L39.1494672,25.0691492 C39.2224177,24.5571406 38.8665864,24.0827365 38.3545778,24.0095602 Z" id="Shape" fill="#FFC107" fill-rule="nonzero"></path>
            </g>
        </g>
    </g>
</svg>