<?xml version="1.0" encoding="UTF-8"?>
<svg width="78px" height="80px" viewBox="0 0 78 80" version="1.1" xmlns="http://www.w3.org/2000/svg" xmlns:xlink="http://www.w3.org/1999/xlink">
    <!-- Generator: Sketch 44 (41411) - http://www.bohemiancoding.com/sketch -->
    <title>paint-brush</title>
    <desc>Created with Sketch.</desc>
    <defs></defs>
    <g id="Page-1" stroke="none" stroke-width="1" fill="none" fill-rule="evenodd">
        <g id="MAINNEW" transform="translate(-677.000000, -1372.000000)" fill-rule="nonzero" fill="#FDC72F">
            <g id="Our-Services" transform="translate(260.000000, 866.000000)">
                <g id="5" transform="translate(320.000000, 506.000000)">
                    <g id="paint-brush" transform="translate(97.000000, 0.000000)">
                        <path d="M39.0174293,71.719069 C41.9506761,71.719069 44.350648,69.3190972 44.350648,66.3858503 C44.350648,63.4526034 41.9506761,61.0526316 39.0174293,61.0526316 C36.0841824,61.0526316 33.6842105,63.4526034 33.6842105,66.3858503 C33.6842105,69.3190972 36.0841824,71.719069 39.0174293,71.719069 Z M39.1264735,63.828207 C40.593175,63.828207 41.7931609,65.028193 41.7931609,66.4948945 C41.7931609,67.9615961 40.593175,69.161582 39.1264735,69.161582 C37.6597719,69.161582 36.459786,67.9615961 36.459786,66.4948945 C36.459786,65.028193 37.6597719,63.828207 39.1264735,63.828207 Z" id="Shape"></path>
                        <path d="M75.9989528,22.666453 L75.9989528,3.99995311 C75.9989528,1.73326093 74.2656918,0 71.9989997,0 L5.33321872,0 C3.06652655,0 1.33326562,1.73326093 1.33326562,3.99995311 L1.33326562,22.666453 C0.533274998,22.666453 0,23.199728 0,23.9997186 L0,35.999578 C0,36.7995686 0.533274998,37.3328436 1.33326562,37.3328436 L1.33326562,42.6660623 C1.33326562,48.5327123 6.13320935,53.332656 11.9998593,53.332656 L29.0662217,53.332656 C28.1329514,58.7993107 27.9995155,64.399245 27.9995155,69.1991887 C27.9995155,75.0658387 32.6661795,79.8657824 38.3993936,79.9990621 C38.3993936,79.9990621 38.5326733,79.9990621 38.6661092,79.9990621 C38.7995451,79.9990621 38.9328248,79.9990621 38.9328248,79.9990621 C44.6660388,79.9990621 49.3327029,75.0658387 49.3327029,69.1991887 C49.3327029,64.2659653 49.1994232,58.7993107 48.2659966,53.332656 L65.3325153,53.332656 C71.1991653,53.332656 75.999109,48.5327123 75.999109,42.6660623 L75.999109,37.3328436 C76.7990996,37.3328436 77.3323746,36.7995686 77.3323746,35.999578 L77.3323746,23.9997186 C77.3323746,23.199728 76.7989434,22.666453 75.9989528,22.666453 Z M2.77557545,25.5352941 L74.7747313,25.5352941 L74.7747313,34.8684659 L2.77557545,34.8684659 L2.77557545,25.5352941 Z M3.88580562,4.10884107 C3.88580562,3.44213013 4.55251656,2.77557545 5.21907124,2.77557545 L7.88575873,2.77557545 L7.88575873,14.7754348 C7.88575873,15.5754254 8.41903373,16.1087004 9.21902435,16.1087004 C10.019015,16.1087004 10.55229,15.5754254 10.55229,14.7754348 L10.55229,2.77557545 L13.2189775,2.77557545 L13.2189775,18.7753879 C13.2189775,19.5753785 13.7522525,20.1086535 14.5522431,20.1086535 C15.3522337,20.1086535 15.8855087,19.5753785 15.8855087,18.7753879 L15.8855087,2.77557545 L18.5523524,2.77557545 L18.5523524,14.7754348 C18.5523524,15.5754254 19.0856274,16.1087004 19.885618,16.1087004 C20.6856087,16.1087004 21.2188837,15.5754254 21.2188837,14.7754348 L21.2188837,2.77557545 L23.8855712,2.77557545 L23.8855712,18.7753879 C23.8855712,19.5753785 24.4188462,20.1086535 25.2188368,20.1086535 C26.0188274,20.1086535 26.5521024,19.5753785 26.5521024,18.7753879 L26.5521024,2.77557545 L29.2187899,2.77557545 L29.2187899,14.7754348 C29.2187899,15.5754254 29.7520649,16.1087004 30.5520555,16.1087004 C31.3520461,16.1087004 31.8853211,15.5754254 31.8853211,14.7754348 L31.8853211,2.77557545 L34.5521649,2.77557545 L34.5521649,18.7753879 C34.5521649,19.5753785 35.0854398,20.1086535 35.8854305,20.1086535 C36.6854211,20.1086535 37.2186961,19.5753785 37.2186961,18.7753879 L37.2186961,2.77557545 L39.8853836,2.77557545 L39.8853836,14.7754348 C39.8853836,15.5754254 40.4186586,16.1087004 41.2186492,16.1087004 C42.0186398,16.1087004 42.5519148,15.5754254 42.5519148,14.7754348 L42.5519148,2.77557545 L45.2186023,2.77557545 L45.2186023,18.7753879 C45.2186023,19.5753785 45.7518773,20.1086535 46.5518679,20.1086535 C47.3518585,20.1086535 47.8851335,19.5753785 47.8851335,18.7753879 L47.8851335,2.77557545 L50.5519773,2.77557545 L50.5519773,14.7754348 C50.5519773,15.5754254 51.0852523,16.1087004 51.8852429,16.1087004 C52.6852335,16.1087004 53.2185085,15.5754254 53.2185085,14.7754348 L53.2185085,2.77557545 L55.885196,2.77557545 L55.885196,18.7753879 C55.885196,19.5753785 56.418471,20.1086535 57.2184616,20.1086535 C58.0184522,20.1086535 58.5517272,19.5753785 58.5517272,18.7753879 L58.5517272,2.77557545 L61.2184147,2.77557545 L61.2184147,14.7754348 C61.2184147,15.5754254 61.7516897,16.1087004 62.5516803,16.1087004 C63.351671,16.1087004 63.884946,15.5754254 63.884946,14.7754348 L63.884946,2.77557545 L66.5517897,2.77557545 L66.5517897,18.7753879 C66.5517897,19.5753785 67.0850647,20.1086535 67.8850553,20.1086535 C68.6850459,20.1086535 69.2183209,19.5753785 69.2183209,18.7753879 L69.2183209,2.77557545 L71.8850084,2.77557545 C72.684999,2.77557545 73.218274,3.30885044 73.218274,4.10884107 L73.218274,22.775341 L3.88580562,22.775341 L3.88580562,4.10884107 Z M73.0849944,43.081201 C73.0849944,47.4811495 69.4850366,51.0811073 65.0850881,51.0811073 L46.4187445,51.0811073 C46.0187492,51.0811073 45.6187539,51.3478229 45.3520382,51.6143823 C45.0853226,51.8810979 44.9520429,52.2810932 45.0853226,52.6810885 C46.1520289,58.4143025 46.4185882,64.4142322 46.4185882,69.6141712 C46.5518679,74.0141196 42.9519101,77.6140774 38.6853976,77.7473571 C38.6853976,77.7473571 38.418682,77.7473571 38.2854023,77.7473571 C34.0187336,77.7473571 30.5522117,74.0141196 30.5522117,69.6141712 C30.5522117,64.4142322 30.8189274,58.4143025 31.8854774,52.6810885 C32.0187571,52.2810932 31.8854774,51.8810979 31.6187617,51.6143823 C31.3520461,51.2143869 30.9520508,51.0811073 30.5520555,51.0811073 L11.8857118,51.0811073 C9.53011445,51.0811073 7.40451437,50.0484631 5.93718782,48.4144198 L7.88575873,48.4144198 C8.68574935,48.4144198 9.21902435,47.8811448 9.21902435,47.0811541 C9.21902435,46.2811635 8.68574935,45.7478885 7.88575873,45.7478885 L4.34720647,45.7478885 C4.0495537,44.9127421 3.88580562,44.0152526 3.88580562,43.081201 L10.5524462,43.081201 C11.3524368,43.081201 11.8857118,42.547926 11.8857118,41.7479354 C11.8857118,40.9479448 11.3524368,40.4145136 10.5524462,40.4145136 L3.88580562,40.4145136 L3.88580562,37.7478261 L73.0849944,37.7478261 L73.0849944,43.081201 Z" id="Shape"></path>
                    </g>
                </g>
            </g>
        </g>
    </g>
</svg>