<?xml version="1.0" encoding="UTF-8"?>
<svg width="80px" height="85px" viewBox="0 0 80 85" version="1.1" xmlns="http://www.w3.org/2000/svg" xmlns:xlink="http://www.w3.org/1999/xlink">
    <!-- Generator: Sketch 44 (41411) - http://www.bohemiancoding.com/sketch -->
    <title>tap</title>
    <desc>Created with Sketch.</desc>
    <defs></defs>
    <g id="Page-1" stroke="none" stroke-width="1" fill="none" fill-rule="evenodd">
        <g id="MAINNEW" transform="translate(-322.000000, -874.000000)" fill-rule="nonzero" fill="#FFBA00">
            <g id="tap" transform="translate(322.000000, 874.000000)">
                <path d="M62.765762,59.3269311 C62.4806681,58.7569102 62.0531106,58.4718163 61.4830898,58.4718163 C60.9130689,58.4718163 60.4855115,58.7569102 60.2004175,59.3269311 C60.2004175,59.3269311 57.6350731,64.742714 56.6374948,66.880501 C56.0674739,68.1631733 55.497286,69.303382 55.78238,71.0136117 C56.2099374,73.2938622 58.0626305,75.1467223 60.343048,75.5742797 C60.628142,75.7167432 61.0556994,75.7167432 61.3406263,75.7167432 C62.6232985,75.7167432 64.0484342,75.2891858 65.188643,74.2916075 C66.4713152,73.1513987 67.1839666,71.5837996 67.1839666,69.8735699 C67.1839666,68.7333612 66.8988727,68.0208768 66.4713152,67.165762 C65.6162004,65.1702714 62.9082255,59.6120251 62.765762,59.3269311 Z M63.1933194,72.2961169 C62.4806681,72.8661378 61.6255532,73.0087683 60.7704384,72.8661378 C59.6302296,72.5810438 58.6326514,71.725929 58.4901879,70.5858873 C58.3477244,69.8732359 58.4901879,69.303215 59.0602088,68.1630063 C59.6302296,67.0227975 60.6279749,65.0276409 61.3404593,63.3174113 C62.1955741,65.1701044 63.3357829,67.4505219 63.7633403,68.5905637 C64.0484342,69.303215 64.1908977,69.7307724 64.1908977,70.1583299 C64.1908977,71.0134447 63.9059708,71.726096 63.1933194,72.2961169 Z" id="Shape"></path>
                <path d="M74.7373695,15.8585386 C77.5878079,15.8585386 79.8680585,13.5782881 79.8680585,10.7278497 C79.8680585,8.02004175 77.8727349,5.8822547 75.1649269,5.45469729 L20.0100209,0.038914405 C16.0195407,-0.246012526 12.0288935,1.03665971 9.03599165,3.74446764 C6.04308977,6.45227557 4.33286013,10.4429228 4.33286013,14.4334029 L4.33286013,75.8982881 C1.88125261,76.5352818 0.0572860125,78.7736117 0.0572860125,81.417453 L0.0572860125,82.8425887 C0.0572860125,83.6977035 0.627306889,84.2677244 1.48242171,84.2677244 L29.9863048,84.2677244 C30.8414196,84.2677244 31.4114405,83.6977035 31.4114405,82.8425887 L31.4114405,81.417453 C31.4114405,78.7737787 29.5874739,76.5352818 27.1358664,75.8982881 L27.1358664,63.0324843 C27.1358664,57.6167015 29.2736534,52.4860125 32.9792067,49.0655532 C37.2547808,45.0750731 42.8130271,42.937286 48.513737,42.937286 C48.6562004,42.937286 48.6562004,42.937286 48.7988309,42.937286 L52.7893111,42.937286 L52.7893111,47.2128601 C52.7893111,48.0679749 53.3593319,48.6379958 54.2144468,48.6379958 L68.4663048,48.6379958 C69.3214196,48.6379958 69.8914405,48.0679749 69.8914405,47.2128601 L69.8914405,42.937286 L74.1670146,42.937286 C75.0221294,42.937286 75.5921503,42.3672651 75.5921503,41.5121503 L75.5921503,28.8278914 C75.5921503,25.5498956 72.8843424,22.9845511 69.74881,22.9845511 L48.513904,22.9845511 C41.1029645,22.9845511 33.8344885,25.1223382 27.1360334,28.9703549 L27.1360334,15.8585386 L74.7373695,15.8585386 Z M11.0313152,5.8822547 C13.3115658,3.74446764 16.5895616,2.74688935 19.8675574,3.03181628 L74.879833,8.44759916 C76.1625052,8.59006263 77.01762,9.58780793 77.01762,10.7278497 C77.01762,12.0105219 76.0200418,13.0081002 74.7373695,13.0081002 L25.7107307,13.0081002 L7.325762,13.0081002 C7.61085595,10.3002923 8.89352818,7.73494781 11.0313152,5.8822547 Z M28.5611691,81.417453 L2.90772443,81.417453 C2.90772443,79.8496868 4.19039666,78.5670146 5.75816284,78.5670146 L25.7108977,78.5670146 C27.2784969,78.5670146 28.5611691,79.8496868 28.5611691,81.417453 Z M67.0413361,45.7875574 L55.6397495,45.7875574 L55.6397495,42.937119 L67.0413361,42.937119 L67.0413361,45.7875574 Z M25.1407098,32.6759081 C25.5682672,32.9610021 26.1382881,32.9610021 26.5658455,32.6759081 C33.2643006,28.2578706 40.960334,25.8349896 48.513737,25.8349896 L69.8916075,25.8349896 C71.6018372,25.8349896 72.8845094,27.2601253 72.8845094,28.8278914 L72.8845094,40.0868476 L68.4664718,40.0868476 L54.2146138,40.0868476 L48.6563674,40.0868476 C48.513904,40.0868476 48.513904,40.0868476 48.3712735,40.0868476 C41.9579123,40.0868476 35.8296451,42.5097286 31.1265136,46.9277662 C26.708476,50.9182463 24.285595,56.9040501 24.285595,63.0324843 L24.285595,75.7167432 L12.8840084,75.7167432 L12.8840084,71.4411691 C12.8840084,70.5860543 12.3139875,70.0160334 11.4588727,70.0160334 C10.6037578,70.0160334 10.033737,70.5860543 10.033737,71.4411691 L10.033737,75.7167432 L7.18329854,75.7167432 L7.18329854,15.8587056 L10.033737,15.8587056 L10.033737,18.7091441 C10.033737,19.5642589 10.6037578,20.1342797 11.4588727,20.1342797 C12.3139875,20.1342797 12.8840084,19.5642589 12.8840084,18.7091441 L12.8840084,15.8585386 L24.285595,15.8585386 L24.285595,31.5356994 C24.285595,32.1057203 24.5706889,32.5332777 25.1407098,32.6759081 Z" id="Shape"></path>
                <path d="M11.4588727,47.2128601 C10.6037578,47.2128601 10.033737,47.782881 10.033737,48.6379958 L10.033737,60.0395825 C10.033737,60.8946973 10.6037578,61.4647182 11.4588727,61.4647182 C12.3139875,61.4647182 12.8840084,60.8946973 12.8840084,60.0395825 L12.8840084,48.6379958 C12.8840084,47.782881 12.3139875,47.2128601 11.4588727,47.2128601 Z" id="Shape"></path>
                <path d="M11.4588727,64.3151566 C10.6037578,64.3151566 10.033737,64.8851775 10.033737,65.7402923 C10.033737,66.5954071 10.6037578,67.165428 11.4588727,67.165428 C12.3139875,67.165428 12.8840084,66.5954071 12.8840084,65.7402923 C12.8840084,65.0276409 12.3139875,64.3151566 11.4588727,64.3151566 Z" id="Shape"></path>
                <path d="M11.4588727,25.8349896 C10.6037578,25.8349896 10.033737,26.4050104 10.033737,27.2601253 L10.033737,41.5119833 C10.033737,42.3670981 10.6037578,42.937119 11.4588727,42.937119 C12.3139875,42.937119 12.8840084,42.3670981 12.8840084,41.5119833 L12.8840084,27.2601253 C12.8840084,26.4050104 12.3139875,25.8349896 11.4588727,25.8349896 Z" id="Shape"></path>
            </g>
        </g>
    </g>
</svg>