<?xml version="1.0" encoding="UTF-8"?>
<svg width="80px" height="80px" viewBox="0 0 80 80" version="1.1" xmlns="http://www.w3.org/2000/svg" xmlns:xlink="http://www.w3.org/1999/xlink">
    <!-- Generator: Sketch 44 (41411) - http://www.bohemiancoding.com/sketch -->
    <title>window</title>
    <desc>Created with Sketch.</desc>
    <defs></defs>
    <g id="Page-1" stroke="none" stroke-width="1" fill="none" fill-rule="evenodd">
        <g id="MAINNEW" transform="translate(-356.000000, -1371.000000)" fill-rule="nonzero" fill="#FDC72F">
            <g id="Our-Services" transform="translate(260.000000, 866.000000)">
                <g id="4" transform="translate(0.000000, 505.000000)">
                    <g id="window" transform="translate(96.000000, 0.000000)">
                        <path d="M78.6203718,0 L59.3101859,0 L39.9998411,0 L20.6894962,0 L1.37931034,0 C0.551692349,0 0,0.551692349 0,1.37931034 L0,12.4137931 L0,23.4482759 L0,34.4827586 L0,45.5172414 L0,56.5517241 L0,67.5862069 L0,78.6206897 C0,79.4483077 0.551692349,80 1.37931034,80 L20.6896552,80 L40,80 L59.3103448,80 L78.6206897,80 C79.4483077,80 80,79.4483077 80,78.6206897 L80,67.585889 L80,56.5514063 L80,45.5169235 L80,34.4824407 L80,23.447958 L80,12.4137931 L80,1.37931034 C79.9996821,0.551692349 79.4479898,0 78.6203718,0 Z M59.3101859,66.2065787 L51.0343238,66.2065787 L51.0343238,57.9307166 L64.8274273,57.9307166 L67.586048,57.9307166 L67.586048,66.2065787 L59.3101859,66.2065787 Z M39.9998411,66.2065787 L31.723979,66.2065787 L31.723979,57.9307166 L48.2757031,57.9307166 L48.2757031,66.2065787 L39.9998411,66.2065787 Z M20.6894962,66.2065787 L12.4137931,66.2065787 L12.4137931,57.9307166 L15.1724138,57.9307166 L28.9655172,57.9307166 L28.9655172,66.2065787 L20.6894962,66.2065787 Z M2.75862069,66.2065787 L2.75862069,57.9307166 L9.65517241,57.9307166 L9.65517241,66.2065787 L2.75862069,66.2065787 Z M13.7931034,13.7931034 L13.7931034,22.0689655 L11.0344828,22.0689655 L11.0344828,13.7931034 L13.7931034,13.7931034 Z M20.6894962,13.7931034 L27.4480851,13.7931034 C26.8963928,19.0344192 23.4481169,27.5862069 20.6894962,27.5862069 L16.5515652,27.5862069 L16.5515652,23.4482759 L16.5515652,13.7931034 L20.6894962,13.7931034 Z M39.9998411,13.7931034 L49.7430681,13.7931034 C50.1755529,17.6937321 52.1907956,24.9032432 55.4516772,28.3750427 C54.4345988,29.1171492 53.7929445,30.3216219 53.7929445,31.723979 C53.7929445,33.8024811 55.2022951,35.4462732 57.155391,35.7932465 C55.146506,38.6650348 53.9642854,43.4921442 53.8115409,49.6550135 L26.1883002,49.6550135 C26.0355556,43.4921442 24.853335,38.6650348 22.8444501,35.7932465 C24.7975459,35.4464321 26.2068966,33.8024811 26.2068966,31.723979 C26.2068966,30.3371983 25.5793882,29.1436927 24.5818598,28.3996789 C27.87755,24.9372571 29.8408182,17.7029508 30.2597929,13.7931034 L39.9998411,13.7931034 Z M59.3101859,13.7931034 L63.4481169,13.7931034 L63.4481169,23.4482759 L63.4481169,27.5862069 L59.3101859,27.5862069 C56.5515652,27.5862069 53.1032893,19.0345781 52.551597,13.7931034 L59.3101859,13.7931034 Z M68.9651994,13.7931034 L68.9651994,22.0689655 L66.2065787,22.0689655 L66.2065787,13.7931034 L68.9651994,13.7931034 Z M77.2410614,13.7931034 L77.2410614,22.0689655 L71.72382,22.0689655 L71.72382,13.7931034 L77.2410614,13.7931034 Z M77.2410614,33.1032893 L70.3445097,33.1032893 L66.2065787,33.1032893 L66.2065787,28.9653583 L66.2065787,24.8274273 L70.3445097,24.8274273 L77.2410614,24.8274273 L77.2410614,33.1032893 Z M77.2410614,44.1377721 L71.72382,44.1377721 L71.72382,35.86191 L77.2410614,35.86191 L77.2410614,44.1377721 Z M77.2410614,55.1722548 L68.9651994,55.1722548 L66.2065787,55.1722548 L66.2065787,51.0343238 L66.2065787,46.8963928 L70.3445097,46.8963928 L77.2410614,46.8963928 L77.2410614,55.1722548 Z M49.6550135,55.1722548 L30.3446686,55.1722548 L16.5515652,55.1722548 L16.5515652,52.4136342 L24.8274273,52.4136342 L55.1720959,52.4136342 L63.447958,52.4136342 L63.447958,55.1722548 L49.6550135,55.1722548 Z M11.0344828,55.1722548 L2.75862069,55.1722548 L2.75862069,46.8963928 L9.65517241,46.8963928 L13.7931034,46.8963928 L13.7931034,51.0343238 L13.7931034,55.1722548 L11.0344828,55.1722548 Z M2.75862069,35.86191 L8.27586207,35.86191 L8.27586207,44.1377721 L2.75862069,44.1377721 L2.75862069,35.86191 Z M2.75862069,24.8274273 L9.65517241,24.8274273 L13.7931034,24.8274273 L13.7931034,28.9653583 L13.7931034,33.1032893 L9.65517241,33.1032893 L2.75862069,33.1032893 L2.75862069,24.8274273 Z M22.0688066,30.3446686 C22.8964246,30.3446686 23.4481169,30.896361 23.4481169,31.723979 C23.4481169,32.551597 22.8964246,33.1032893 22.0688066,33.1032893 L19.3101859,33.1032893 L16.5515652,33.1032893 L16.5515652,30.3446686 L20.6894962,30.3446686 L22.0688066,30.3446686 Z M11.0344828,35.86191 L13.7931034,35.86191 L13.7931034,44.1377721 L11.0344828,44.1377721 L11.0344828,35.86191 Z M16.5517241,45.5170824 L16.5517241,35.86191 L19.0344192,35.86191 C20.9654219,36.9652947 23.1723502,41.1032258 23.4482759,49.6550135 L16.5517241,49.6550135 L16.5517241,45.5170824 L16.5517241,45.5170824 Z M57.9308755,30.3446686 L59.3101859,30.3446686 L63.4481169,30.3446686 L63.4481169,33.1032893 L60.6894962,33.1032893 L57.9308755,33.1032893 C57.1032575,33.1032893 56.5515652,32.551597 56.5515652,31.723979 C56.5515652,30.896361 57.1032575,30.3446686 57.9308755,30.3446686 Z M66.2065787,44.1377721 L66.2065787,35.86191 L68.9651994,35.86191 L68.9651994,44.1377721 L66.2065787,44.1377721 Z M60.9652629,35.86191 L63.447958,35.86191 L63.447958,45.5170824 L63.447958,49.6550135 L56.5514063,49.6550135 C56.8273319,41.1032258 59.0342602,36.9652947 60.9652629,35.86191 Z M8.27586207,22.0688066 L2.75862069,22.0688066 L2.75862069,13.7931034 L8.27586207,13.7931034 L8.27586207,22.0688066 L8.27586207,22.0688066 Z M70.3445097,57.9308755 L77.2410614,57.9308755 L77.2410614,66.2067376 L70.3445097,66.2067376 L70.3445097,57.9308755 Z M77.2410614,11.0344828 L70.3445097,11.0344828 L64.8272683,11.0344828 L60.6893373,11.0344828 L60.6893373,2.75862069 L77.2410614,2.75862069 L77.2410614,11.0344828 Z M57.9308755,11.0344828 L51.0343238,11.0344828 L41.3791514,11.0344828 L41.3791514,2.75862069 L57.9308755,2.75862069 L57.9308755,11.0344828 Z M38.6205307,11.0344828 L28.9653583,11.0344828 L22.0688066,11.0344828 L22.0688066,2.75862069 L38.6205307,2.75862069 L38.6205307,11.0344828 L38.6205307,11.0344828 Z M2.75862069,2.75862069 L19.3103448,2.75862069 L19.3103448,11.0344828 L15.1724138,11.0344828 L9.65517241,11.0344828 L2.75862069,11.0344828 L2.75862069,2.75862069 Z M2.75862069,68.9651994 L11.0344828,68.9651994 L19.3103448,68.9651994 L19.3103448,77.2410614 L2.75862069,77.2410614 L2.75862069,68.9651994 Z M22.0688066,68.9651994 L30.3446686,68.9651994 L38.6205307,68.9651994 L38.6205307,77.2410614 L22.0688066,77.2410614 L22.0688066,68.9651994 Z M41.3791514,68.9651994 L49.6550135,68.9651994 L57.9308755,68.9651994 L57.9308755,77.2410614 L41.3791514,77.2410614 L41.3791514,68.9651994 Z M77.2410614,77.2410614 L60.6894962,77.2410614 L60.6894962,68.9651994 L68.9653583,68.9651994 L77.2412204,68.9651994 L77.2412204,77.2410614 L77.2410614,77.2410614 Z" id="Shape"></path>
                    </g>
                </g>
            </g>
        </g>
    </g>
</svg>