<?xml version="1.0" encoding="UTF-8"?>
<svg width="54px" height="70px" viewBox="0 0 54 70" version="1.1" xmlns="http://www.w3.org/2000/svg" xmlns:xlink="http://www.w3.org/1999/xlink">
    <!-- Generator: Sketch 44.1 (41455) - http://www.bohemiancoding.com/sketch -->
    <title>avatar</title>
    <desc>Created with Sketch.</desc>
    <defs></defs>
    <g id="Page-1" stroke="none" stroke-width="1" fill="none" fill-rule="evenodd">
        <g id="Desktop-HD" transform="translate(-690.000000, -2027.000000)" fill-rule="nonzero" fill="#546E7A">
            <g id="blerb-section" transform="translate(20.000000, 1934.000000)">
                <g id="advisors" transform="translate(572.000000, 93.000000)">
                    <g id="avatar" transform="translate(98.000000, 0.000000)">
                        <path d="M53.4520574,66.6750736 C50.2154034,59.9516604 44.3894261,54.6700294 37.3276354,52.0071459 L37.3276354,47.7553594 C40.7996825,47.5641026 47.3465509,46.6813787 51.1863996,42.7532577 C51.6718977,42.2530475 51.8631545,41.5321564 51.6866098,40.8554014 C51.510065,40.1786465 50.9804307,39.6490122 50.3036757,39.4577554 C50.2448275,39.4430433 45.1838775,37.7070198 46.1990099,27.3497268 C46.6403718,22.9361076 46.5668115,18.9638504 45.993041,15.5506515 C45.3309981,11.6372425 44.0069124,8.56242119 42.079632,6.41445986 C39.990519,4.10466583 37.2687871,2.92770071 33.9879969,2.92770071 C33.8555883,2.92770071 33.7231797,2.92770071 33.6054832,2.92770071 C32.3549578,1.83900799 29.6185139,0 25.4255757,0 C23.4688712,0 21.4238943,0.397225725 19.3347813,1.20638924 L19.2465089,1.23581337 C17.5987577,1.85372005 14.5386484,3.0159731 11.9493252,6.45859605 C8.93335208,10.4602774 7.49156982,16.3892392 7.66811458,24.0689365 C7.84465935,31.7633459 6.57942186,35.5296343 5.49072913,37.3392182 C4.59329323,38.8251366 3.73999353,39.1193779 3.51931257,39.1782261 C2.76899731,39.1193779 2.16580269,39.5018916 1.78328903,40.1492224 C1.3860633,40.8112652 1.53318394,41.6498529 1.97454586,42.2971837 C2.15109062,42.5620008 3.1809351,43.9449348 5.66727389,45.2837327 C8.50670223,46.8137873 12.0523096,47.6817991 16.2452478,47.8583438 L16.2452478,51.9041614 C9.27172955,54.5523329 3.47517637,59.8781 0.194386127,66.6897856 C-0.0998551509,67.3076923 -0.0557189592,68.0285834 0.297370574,68.6023539 C0.665172171,69.1761244 1.29779092,69.529214 1.97454586,69.529214 L51.6718977,69.529214 C52.3486526,69.529214 52.9959834,69.1761244 53.349073,68.6023539 C53.7021625,68.0138714 53.7462987,67.2929802 53.4520574,66.6750736 Z M5.35832055,65.5422446 C8.53612635,60.6578394 13.3028351,56.9651114 18.819859,55.1849517 C19.6437346,54.9201345 20.202793,54.1551072 20.202793,53.3018075 L20.202793,45.9016393 C20.202793,45.372005 19.9968241,44.8570828 19.6143105,44.4892812 C19.2317968,44.1214796 18.7315866,43.9007987 18.2019523,43.9155107 C12.4789595,43.974359 9.02162446,42.6649853 7.13848028,41.5468684 C7.27088886,41.4144599 7.4180095,41.2820513 7.56513014,41.1349306 C10.4634067,38.1189575 11.8316287,32.3518285 11.6403718,23.9806641 C11.2578582,8.51828499 17.8341507,6.01723413 20.6294429,4.95796553 L20.7177153,4.9285414 C22.3654664,4.31063472 23.9396572,3.98696931 25.3961516,3.98696931 C29.1918641,3.98696931 31.1338565,6.07608239 31.2956892,6.26733922 C31.707627,6.78226145 32.3402457,7.03236654 33.0022886,6.97351828 C33.325954,6.94409416 33.6496194,6.92938209 33.9585728,6.92938209 C36.091822,6.92938209 37.7837094,7.63556116 39.1077951,9.10676755 C41.9030873,12.196301 43.0506282,18.7137453 42.2267527,26.9819252 C41.4028771,35.3236654 44.0069124,39.5018916 46.2578582,41.5321564 C43.227173,43.2093317 38.9165383,43.8419504 35.6651722,43.8419504 C35.4886274,43.8419504 35.385643,43.8419504 35.3709309,43.8419504 C34.8412966,43.8272383 34.3116623,44.0332072 33.9291486,44.4010088 C33.546635,44.7688104 33.325954,45.2837327 33.325954,45.828079 L33.325954,53.4342161 C33.325954,54.3022278 33.8850124,55.0525431 34.708888,55.3173602 C40.2994723,57.1269441 45.0808931,60.7755359 48.2439868,65.5716688 L5.35832055,65.5716688 L5.35832055,65.5422446 Z" id="Shape"></path>
                    </g>
                </g>
            </g>
        </g>
    </g>
</svg>