<?xml version="1.0" encoding="UTF-8"?>
<svg width="70px" height="62px" viewBox="0 0 70 62" version="1.1" xmlns="http://www.w3.org/2000/svg" xmlns:xlink="http://www.w3.org/1999/xlink">
    <!-- Generator: Sketch 44.1 (41455) - http://www.bohemiancoding.com/sketch -->
    <title>heart</title>
    <desc>Created with Sketch.</desc>
    <defs></defs>
    <g id="Page-1" stroke="none" stroke-width="1" fill="none" fill-rule="evenodd">
        <g id="Desktop-HD" transform="translate(-1025.000000, -2034.000000)" fill-rule="nonzero" fill="#546E7A">
            <g id="blerb-section" transform="translate(20.000000, 1934.000000)">
                <g id="customer" transform="translate(904.000000, 100.000000)">
                    <g id="heart" transform="translate(101.000000, 0.000000)">
                        <path d="M64.305166,5.70974576 C60.6420304,2.04661017 55.7924541,0.0444915254 50.6166066,0.0444915254 C45.4407592,0.0444915254 40.5763524,2.06144068 36.9132168,5.72457627 L35.0000812,7.63771186 L33.0572846,5.69491525 C29.394149,2.03177966 24.5149117,0 19.3390643,0 C14.1780473,0 9.31364053,2.01694915 5.66533544,5.66525424 C2.00219985,9.32838983 -0.0147493008,14.1927966 8.12076694e-05,19.3686441 C8.12076694e-05,24.5444915 2.03186087,29.3940678 5.69499646,33.0572034 L33.5466914,60.9088983 C33.9322846,61.2944915 34.4513524,61.5021186 34.9555897,61.5021186 C35.459827,61.5021186 35.9788948,61.309322 36.364488,60.9237288 L64.2755049,33.1165254 C67.9386405,29.4533898 69.9555897,24.5889831 69.9555897,19.4131356 C69.9704202,14.2372881 67.9683015,9.37288136 64.305166,5.70974576 Z M61.4577083,30.2838983 L34.9555897,56.6822034 L8.51279307,30.2394068 C5.60601341,27.3326271 4.0043185,23.4766949 4.0043185,19.3686441 C4.0043185,15.2605932 5.5911829,11.404661 8.49796256,8.51271186 C11.3899117,5.62076271 15.2458439,4.0190678 19.3390643,4.0190678 C23.4471151,4.0190678 27.3178778,5.62076271 30.2246575,8.52754237 L33.5763524,11.8792373 C34.3623693,12.6652542 35.6229626,12.6652542 36.4089795,11.8792373 L39.7310134,8.55720339 C42.6377931,5.65042373 46.5085558,4.04872881 50.6017761,4.04872881 C54.6949965,4.04872881 58.5509287,5.65042373 61.4577083,8.54237288 C64.364488,11.4491525 65.9513524,15.3050847 65.9513524,19.4131356 C65.9661829,23.5211864 64.364488,27.3771186 61.4577083,30.2838983 Z" id="Shape"></path>
                    </g>
                </g>
            </g>
        </g>
    </g>
</svg>