<?xml version="1.0" encoding="UTF-8"?>
<svg width="70px" height="67px" viewBox="0 0 70 67" version="1.1" xmlns="http://www.w3.org/2000/svg" xmlns:xlink="http://www.w3.org/1999/xlink">
    <!-- Generator: Sketch 44.1 (41455) - http://www.bohemiancoding.com/sketch -->
    <title>star</title>
    <desc>Created with Sketch.</desc>
    <defs></defs>
    <g id="Page-1" stroke="none" stroke-width="1" fill="none" fill-rule="evenodd">
        <g id="Desktop-HD" transform="translate(-347.000000, -2027.000000)" fill-rule="nonzero" fill="#546E7A">
            <g id="blerb-section" transform="translate(20.000000, 1934.000000)">
                <g id="service" transform="translate(227.000000, 93.000000)">
                    <g id="star" transform="translate(100.000000, 0.000000)">
                        <path d="M69.7925727,25.1502146 C69.5630645,24.4492132 68.9606054,23.9484979 68.2290481,23.8340486 L46.4257694,20.7439199 L36.614294,1.07296137 C36.2843759,0.414878398 35.6101956,0 34.8786382,0 L34.8786382,0 C34.1470809,0 33.4729005,0.414878398 33.1429825,1.08726753 L23.4606054,20.8154506 L1.65732676,24.0486409 C0.925769382,24.1630901 0.323310365,24.6638054 0.0938021685,25.3648069 C-0.135706028,26.0658083 0.0651136439,26.8383405 0.595851349,27.3390558 L16.4175727,42.6323319 L12.7597858,64.2918455 C12.6306874,65.0214592 12.9319169,65.751073 13.5343759,66.1802575 C13.864294,66.4234621 14.2659333,66.5522175 14.6675727,66.5522175 C14.9831464,66.5522175 15.2843759,66.4806867 15.5712612,66.323319 L35.0364251,56.037196 L54.5589661,66.2088698 C54.8458513,66.3519313 55.1470809,66.4234621 55.4483104,66.4234621 L55.4483104,66.4234621 C56.5097858,66.4234621 57.3847858,65.5507868 57.3847858,64.4921316 C57.3847858,64.3347639 57.3704415,64.1917024 57.3274087,64.0486409 L53.5548677,42.5178827 L69.2761792,27.1387697 C69.8356054,26.6237482 70.0220809,25.851216 69.7925727,25.1502146 Z M50.1409333,40.472103 C49.6819169,40.9155937 49.4810973,41.5593705 49.5958513,42.1888412 L52.8806874,60.9728183 L35.9257694,52.1459227 C35.3663432,51.8454936 34.6921628,51.8597997 34.1183923,52.1459227 L17.2208513,61.0729614 L20.3909333,42.260372 C20.4913432,41.6309013 20.2905235,41.0014306 19.8315071,40.5579399 L6.11839233,27.2818312 L25.0384743,24.4778255 C25.6696218,24.3776824 26.2147038,23.9914163 26.4872448,23.4191702 L34.8929825,6.29470672 L43.4134743,23.3762518 C43.7003595,23.9484979 44.2454415,24.3347639 44.8765891,24.434907 L63.8110153,27.1244635 L50.1409333,40.472103 Z" id="Shape"></path>
                    </g>
                </g>
            </g>
        </g>
    </g>
</svg>