<?xml version="1.0" encoding="UTF-8"?>
<svg width="127px" height="124px" viewBox="0 0 127 124" version="1.1" xmlns="http://www.w3.org/2000/svg" xmlns:xlink="http://www.w3.org/1999/xlink">
    <!-- Generator: Sketch 43.2 (39069) - http://www.bohemiancoding.com/sketch -->
    <title>box</title>
    <desc>Created with Sketch.</desc>
    <defs></defs>
    <g id="Page-1" stroke="none" stroke-width="1" fill="none" fill-rule="evenodd">
        <g id="Main" transform="translate(-344.000000, -1290.000000)" fill-rule="nonzero" fill="#FF9300">
            <g id="How-It-Works" transform="translate(-1.000000, 1087.000000)">
                <g id="box" transform="translate(345.000000, 203.000000)">
                    <path d="M69.8002409,5.24728308 C72.2156665,10.5513549 74.4354694,15.4242013 77.0650504,21.198514 C80.1723627,13.6151083 81.0948782,6.48756931 84.5790215,0.101327258 C90.5650764,3.13222542 96.1001694,6.04813015 101.734103,8.76074293 C107.376274,11.4795161 113.113167,13.9991042 119.28249,16.8246569 C119.088926,18.6891932 119.160998,20.7385403 118.625609,22.6174508 C117.091515,28.0016073 115.425634,33.3529085 113.588839,38.6405526 C112.49953,41.7741235 112.664265,44.4785225 114.44752,47.3636254 C117.754573,52.7149266 120.785696,58.2346111 123.901245,63.7009057 C124.809346,65.2984929 125.614488,66.9556304 126.539063,68.7257077 C122.797521,72.5328115 117.48482,70.5348007 113.078161,73.1385805 C112.85371,75.0729342 112.345091,77.3974441 112.351268,79.7219541 C112.382156,90.091897 112.513944,100.46184 112.709567,110.829729 C112.783697,114.714864 112.215362,115.686148 108.482057,116.092732 C104.077457,116.57324 99.6296148,116.688234 95.2476662,117.29811 C81.910316,119.156485 68.6038536,121.214046 55.2665034,123.074476 C53.9156771,123.263394 52.2106708,123.027246 51.0781183,122.329072 C42.6766378,117.152314 34.3678208,111.829761 26.0590037,106.507209 C23.9236274,105.139608 22.8054892,103.256591 22.8528505,100.546031 C22.9475731,95.1064318 22.9352179,89.6565647 22.6757605,84.2251788 C22.4430724,79.3092098 21.8953288,74.4035081 21.3475852,69.5080737 C21.0716543,67.0541961 20.0091141,65.1691253 17.4742557,64.0089238 C13.1479051,62.0273407 8.94922403,59.7459532 4.80408183,57.4029622 C3.10731225,56.4419457 1.68647365,54.9942606 0,53.657462 C4.24398314,47.6983384 9.75848428,43.8953415 14.7870174,39.6385313 C23.3594103,32.3857316 22.2659824,34.9340681 18.8600881,25.132932 C17.8572643,22.2457756 16.5517402,19.4653988 15.5365613,16.5844028 C14.4637252,13.537077 15.2029731,12.2680424 18.3226404,11.4240728 C19.3028132,11.1591772 20.3035777,10.92303 21.3105199,10.814197 C30.945453,9.77104232 40.5824453,8.73815494 50.2214967,7.74428319 C52.7604735,7.48349452 55.3344565,7.49992215 57.8631374,7.16110224 C61.8414855,6.62515074 65.7930642,5.89822801 69.8002409,5.24728308 Z M52.2827423,41.0040782 C51.9656276,42.3511441 51.6485129,43.6961565 51.3313982,45.0432223 C53.5553195,43.1519912 54.9390927,40.8849779 56.532903,38.7760806 C57.9969845,36.8396734 58.8062448,34.1866108 61.6891057,33.6506593 C58.9689205,37.9054161 56.2507945,42.1601729 53.5326684,46.4128762 C53.8744934,46.6777717 54.2163183,46.9447208 54.5560841,47.2116698 C56.8623728,44.8070751 59.1686616,42.4024804 61.4770095,39.9958323 C61.4440625,42.7166589 57.7869475,44.1930923 58.8041856,48.0022496 C60.2167874,45.7804123 61.283446,44.0945266 62.3583413,42.4168546 C63.5444326,40.5666925 64.5925585,38.6035905 65.9742726,36.9094909 C67.1603639,35.4556454 68.0952345,34.0408156 67.9510915,32.0941412 C65.7498212,34.7738987 63.548551,37.4516027 61.3452216,40.1313603 C62.2471452,37.7760485 63.1470097,35.4207367 64.2980948,32.4165334 C62.9678604,33.0715853 62.2739146,33.4124587 61.5655545,33.7697597 C59.7411154,32.0900343 58.322336,32.6793756 57.0065159,34.4864151 C55.7318795,36.2339045 54.3481062,37.9033626 53.0137535,39.6077295 C53.0075759,38.9383035 53.0034575,38.266824 52.9890432,36.5829917 C51.6135067,38.3058396 50.7898322,39.3366736 49.4390059,41.0266662 C51.0122243,41.0143455 51.6485129,41.0081851 52.2827423,41.0040782 Z M69.4995997,40.4208973 C68.4082309,36.6199539 73.1896617,35.096291 73.1072942,30.718327 C68.8818437,36.615847 64.3804623,41.2997756 61.0919416,48.0145703 C63.305567,47.0864091 64.5019543,46.5853663 65.6983416,46.0843235 C67.9387364,47.7640489 69.5449018,46.4642125 70.6589216,44.7167231 C72.8313632,41.305936 74.7917087,37.7596209 76.7499949,34.2194661 C77.2277262,33.3570154 77.3533365,32.2994866 77.6436818,31.3323097 C77.4171713,31.2357974 77.1886016,31.139285 76.9620911,31.0427727 C74.474594,34.1701832 71.9870968,37.2955402 69.4995997,40.4208973 Z M31.4252434,78.1982912 C30.1053049,78.1017789 28.7874257,78.0032131 27.2492134,77.8902731 C27.310989,85.1595004 27.4365994,92.2172219 27.3912973,99.27289 C27.3748238,101.700073 28.7380052,102.850007 30.5603851,103.965032 C34.3492881,106.279275 38.8959716,107.44153 41.7211753,111.267115 C42.0135798,111.663432 42.9669831,111.575133 43.6135676,111.712715 C46.1381301,114.098828 48.8253684,116.191298 53.5038398,117.316591 C51.9244439,115.435627 51.1172428,114.476664 50.3121009,113.515647 C54.1195366,113.486899 52.4104119,111.117213 52.4186486,110.05147 C47.7566506,107.685891 43.640337,105.597528 39.5240235,103.509166 L39.4457744,103.605678 C42.2174393,104.361349 44.9726306,105.182731 47.7669466,105.839836 C49.307218,106.203297 50.9113242,106.289542 52.3403995,106.482567 C53.6438645,102.712426 52.1818422,101.13948 49.3133955,100.157929 C44.8429019,98.6281054 40.4341838,96.9175782 35.9986964,95.2830288 C36.0913598,94.9770641 36.181964,94.669046 36.2725682,94.3610279 C41.6593997,95.8128199 47.0462313,97.2625585 52.3795241,98.6979229 C53.2814477,95.5171226 51.759709,94.3446003 49.7252328,93.420546 C45.9342707,91.6997515 42.1680188,89.9255672 38.3914709,88.1739709 L38.3193994,88.2581625 C43.1028894,89.4553262 47.8843202,90.6545434 52.6863428,91.8578675 C53.2279088,87.3916049 53.1887843,87.4840104 49.5069591,85.8925835 C46.0186973,84.3832948 42.6251582,82.6563399 39.1883761,81.0258974 C43.5538512,81.9745932 47.9193263,82.9232889 52.2147891,83.8576105 C53.2587966,81.0300043 52.511312,79.6747247 50.2194375,78.5596991 C42.6848746,74.8901768 34.8496704,72.2165796 26.2031467,70.6662218 C26.5079063,72.5512926 26.7941332,74.3049424 27.0288805,75.7567344 C28.7647746,76.7239112 30.095009,77.4611012 31.4252434,78.1982912 Z M68.122004,111.899579 C68.1755428,112.115192 68.2270225,112.332858 68.2805613,112.54847 C66.5776142,113.131651 64.8829038,113.733313 63.1737791,114.291853 C61.3411032,114.891461 59.2057269,115.03315 58.0361091,118.257073 C75.1026458,115.877119 91.4814143,113.593678 108.053746,111.283543 C107.946669,98.5603414 107.843709,86.2006016 107.734572,73.339819 C94.2901445,76.0688594 81.1937191,77.6130568 68.3423369,79.1182386 C64.6296239,72.9743041 63.0028666,66.3087923 57.8404863,60.5940297 C57.8796109,65.3190275 57.9104987,68.9433739 57.9393273,72.4794217 C59.8934952,72.7812795 61.4440625,73.023587 62.9946299,73.2638412 C63.0028666,73.5595385 63.0131625,73.8552359 63.0213993,74.1509333 C61.3452216,74.6499226 59.6690439,75.1468585 58.0011029,75.6437944 C56.4237661,79.2352855 60.0623485,78.5124697 62.3253943,79.9642617 C58.74241,80.8164451 56.2425577,81.960219 58.3202768,85.6954519 C59.7205235,85.6851846 61.2051969,85.6708105 62.6919295,85.6584897 C62.7104621,85.8761559 62.7289948,86.0958754 62.7475275,86.3135416 C61.0940008,87.007609 59.438415,87.6975696 57.6139758,88.4614545 C57.7910659,89.9604759 57.9434457,91.2418313 58.1287724,92.8004029 C61.3987604,92.480064 64.3578113,92.190527 67.3168621,91.90099 C65.2041369,93.2275213 62.941091,93.6813347 60.7521759,94.3712952 C57.5975024,95.365167 57.5439635,95.5972073 58.3346911,99.7944673 C61.194901,99.6363514 64.090117,99.4782354 66.9853331,99.318066 C64.8355425,100.75343 62.6198579,101.568652 60.3465162,102.174421 C57.5027798,102.932145 57.018871,104.622138 57.9722743,107.234131 C61.3555175,106.620149 64.5946177,106.030807 67.8337179,105.441466 C65.9619174,106.958968 63.9089086,107.692052 61.8394263,108.371745 C59.6525704,109.090454 57.0703506,109.408739 57.6428045,113.353424 C61.2772684,112.848275 64.6996362,112.373927 68.122004,111.899579 Z M120.285313,66.2862043 C116.479937,59.6946169 113.216127,53.7847762 109.626965,48.0782274 C109.038037,47.1418523 106.991206,46.6777717 105.648617,46.7311615 C100.202069,46.9488277 94.7328696,47.1849749 89.3398605,47.9118976 C79.4187005,49.2466427 69.5449018,50.934582 59.6093275,52.4808328 C59.6896357,53.3535508 59.5804988,53.9387852 59.8070093,54.3371553 C63.062583,60.1073611 66.2625587,65.9186361 69.7487612,71.549207 C70.3850498,72.5759341 72.2218441,73.3213379 73.5397233,73.3726742 C75.8707223,73.4671331 78.2346683,72.9681438 80.5759632,72.6498584 C89.3336829,71.4588551 98.1037577,70.3253484 106.840886,68.9967637 C110.983969,68.3684067 115.067335,67.3540004 120.285313,66.2862043 Z M20.262394,15.5535689 C21.9694595,20.483912 23.3017531,24.6134081 24.835847,28.6669264 C26.0095832,31.767642 27.0618275,32.2460968 30.2535664,31.8703147 C40.193259,30.7018993 50.1453068,29.6258894 60.0726444,28.3732824 C64.5328421,27.8126895 68.9539153,26.919437 73.7415236,26.1185899 C71.713225,20.4264153 69.8599573,15.2660853 67.3333356,11.0092751 C51.4384759,12.5452587 36.2808049,14.007318 20.262394,15.5535689 Z M50.9483895,51.1214463 C42.3677599,46.8933844 34.3225187,42.9815545 26.3349347,38.9526776 C24.7081774,38.1333495 23.3944165,38.3099465 22.1238985,39.3797961 C16.9800509,43.7207979 11.8609136,48.094655 6.25168986,52.8648287 C15.4850816,58.0703347 23.9730479,62.8528292 32.8646147,67.863257 C38.1196583,61.7973538 45.2815086,57.7191941 50.9483895,51.1214463 Z M80.8127697,25.4368432 C90.2706127,29.6751723 99.4834126,33.8046684 109.264548,38.1887927 C111.179591,31.7799627 112.946373,25.8721754 114.842884,19.524949 C105.203832,15.0689537 96.0548673,10.836785 86.4981833,6.41775188 C84.4698847,13.202364 82.6475047,19.2970156 80.8127697,25.4368432 Z M36.877969,71.8243699 C42.2297944,73.6006076 47.3654052,75.302921 52.5648508,77.0278224 C53.4605969,74.1878955 53.5656154,72.4588872 50.7342341,71.6333987 C48.3064534,70.924957 46.0248749,69.7298468 43.6588697,68.7934717 C40.0388201,67.3622143 40.0305833,67.3765884 36.877969,71.8243699 Z M41.8220755,66.8529577 C45.6192152,67.5613993 49.152779,68.220558 52.7419409,68.8899841 C54.0309915,64.5448753 51.1893143,64.154719 48.8727296,63.3887807 C45.2959229,62.2059912 45.2897453,62.2265257 41.8220755,66.8529577 Z M47.9831611,60.2223546 C48.0799429,60.5652814 48.1767246,60.9082082 48.2735064,61.2531885 C49.7375879,61.4297855 51.2016694,61.6063826 53.030227,61.8261022 C53.0137535,59.8055034 53.0013983,58.4440634 52.9828657,56.2612417 C50.9216201,57.8937377 49.4534202,59.0580461 47.9831611,60.2223546 Z M76.8529542,38.1436168 C75.1582438,40.3716144 72.8128305,42.242311 72.5430771,46.0740562 C75.7080466,43.7967757 77.1103525,41.4270898 76.8529542,38.1436168 Z M43.7659474,43.1314566 C47.0482905,41.4476243 48.2755656,39.2791768 48.9921625,35.6137614 C46.4984877,38.0429975 44.2024949,39.4701481 43.7659474,43.1314566 Z M85.2873817,42.6406811 C85.7321659,42.8850421 86.1769502,43.1294032 86.6196753,43.3737642 C88.1002303,40.9239935 89.5807853,38.4721694 91.0592811,36.0223987 C90.7174562,35.8170533 90.3756312,35.6137614 90.0338063,35.408416 C88.4523511,37.819171 86.870896,40.2299261 85.2873817,42.6406811 Z M102.914017,41.9917896 C100.694214,39.5358586 100.694214,39.5358586 98.5341277,41.5194952 C100.251489,41.7043061 101.581724,41.8480478 102.914017,41.9917896 Z M95.9848549,38.2606636 C95.5606625,38.0306768 95.1364701,37.8006899 94.7122777,37.5707031 C93.7856439,39.1436489 92.85901,40.7165947 91.588492,42.8706679 C95.3032642,42.3429303 94.969676,39.8233422 95.9848549,38.2606636 Z M41.0395846,36.4536241 C40.7698312,36.1723009 40.4980186,35.8889242 40.2282652,35.6055476 C39.4869581,36.502907 38.7435918,37.3982129 38.0022847,38.2935189 C38.1979074,38.4721694 38.3935301,38.6508199 38.5870937,38.8294704 C39.4066498,38.0388906 40.2220876,37.2462573 41.0395846,36.4536241 Z M43.8174271,38.1271891 C43.562088,37.9136299 43.308808,37.7021241 43.0555281,37.4885649 C42.5057253,38.2791447 41.9538634,39.0697245 41.4040606,39.8603043 C41.6140976,39.9958323 41.8220755,40.1313603 42.0300533,40.2668882 C42.6251582,39.5543397 43.220263,38.8397377 43.8174271,38.1271891 Z" id="Shape"></path>
                    <path d="M41.1291808,103.768032 C39.286209,103.28547 37.4432372,102.800855 35.6002654,102.318293 C35.7547044,101.932244 35.9070842,101.546194 36.0635823,101.160145 C37.7253457,102.061611 39.3871091,102.965131 41.0509317,103.866598 L41.1291808,103.768032 Z" id="Shape"></path>
                    <path d="M49.5674326,112.024467 C47.6503301,111.697968 45.7352867,111.373523 43.8181842,111.047023 C43.7728821,110.578836 43.72758,110.108595 43.639035,109.198915 C45.7208724,110.190733 47.6441525,111.106574 49.5674326,112.024467 Z" id="Shape"></path>
                    <path d="M39.2703659,87.6876526 C37.6642005,87.3775811 36.0580351,87.0654561 34.4518697,86.7533311 C36.4616356,85.5623277 37.8412905,86.6260169 39.1982943,87.7718443 C39.1982943,87.7718443 39.2703659,87.6876526 39.2703659,87.6876526 Z" id="Shape"></path>
                    <path d="M34.4518697,79.3406276 L40.2340651,81.42283 L34.4518697,79.3406276 Z" id="Shape"></path>
                    <path d="M66.6723803,45.5643383 C66.3120227,42.7223579 67.4281017,40.8988908 70.3191994,40.2951753 C69.1042794,42.0529319 67.8893595,43.8086351 66.6723803,45.5643383 Z" id="Shape"></path>
                </g>
            </g>
        </g>
    </g>
</svg>