<?xml version="1.0" encoding="UTF-8"?>
<svg width="131px" height="114px" viewBox="0 0 131 114" version="1.1" xmlns="http://www.w3.org/2000/svg" xmlns:xlink="http://www.w3.org/1999/xlink">
    <!-- Generator: Sketch 43.2 (39069) - http://www.bohemiancoding.com/sketch -->
    <title>shop</title>
    <desc>Created with Sketch.</desc>
    <defs></defs>
    <g id="Page-1" stroke="none" stroke-width="1" fill="none" fill-rule="evenodd">
        <g id="Main" transform="translate(-969.000000, -1295.000000)" fill-rule="nonzero" fill="#FF9300">
            <g id="How-It-Works" transform="translate(-1.000000, 1087.000000)">
                <g id="shop" transform="translate(970.000000, 208.000000)">
                    <path d="M122.142992,39.9171991 C121.391537,55.9920565 120.644006,71.3978641 119.971032,86.8056336 C119.821918,90.2117062 119.910209,93.6295509 119.921981,97.0415096 C119.931792,99.6058741 120.371285,101.732707 122.15084,104.061629 C123.641978,106.015804 123.127928,109.494472 123.567421,112.773013 C120.806854,112.988836 118.75654,113.283139 116.704263,113.287063 C105.826806,113.308645 94.9493479,113.15757 84.0718903,113.255671 C73.1983568,113.355734 62.3248233,113.934531 51.4532518,113.834468 C39.6065546,113.724594 27.7637816,113.055544 15.9151224,112.690608 C14.3082253,112.641557 12.6797459,112.85738 11.0787348,113.083013 C7.91006704,113.530354 6.44443558,112.619975 5.99709425,109.582763 C5.83817036,108.489916 5.68513254,107.130234 6.17367636,106.251247 C9.29525555,100.633974 8.24753506,94.5301196 8.28481351,88.6146192 C8.3593704,76.6658968 8.18082627,64.7112884 7.93557335,52.7625661 C7.83551016,47.9320645 7.28221956,43.1113731 6.92513131,38.1749223 C6.10108149,37.7805556 5.36139868,37.4725179 4.66880443,37.0840373 C-0.283342563,34.2999261 -1.48410087,28.9534124 1.97494634,24.3779739 C7.4529156,17.1341836 12.9308849,9.88058323 18.6933475,2.86438765 C19.8313211,1.47723712 22.2485339,0.437364735 24.0771396,0.433440689 C37.3463037,0.405972361 50.6174298,0.859199761 63.8865939,0.816035246 C77.3735425,0.770908709 90.8624532,0.400086291 104.345478,0.00571959329 C106.707754,-0.0649132481 108.402942,0.507997577 109.846991,2.31894515 C112.676229,5.86628341 115.581986,9.35083692 118.460274,12.8589347 C121.750587,16.8693105 125.117419,20.8188635 128.317479,24.8998722 C131.678425,29.1888552 130.632667,34.7825839 126.016026,37.7530873 C124.668116,38.6183396 123.218181,39.3207439 122.142992,39.9171991 Z M11.7870252,47.6770015 C11.8831644,47.6770015 11.9793035,47.6789635 12.0715186,47.6789635 C12.2225944,65.5863508 12.3717082,83.4937382 12.526708,101.90929 C14.8830981,101.703277 16.5115775,101.560049 17.8869559,101.438404 C18.7247399,90.2666429 19.3800557,79.7443115 20.3630294,69.2533725 C20.753472,65.0899589 21.2439779,60.7421151 22.7979004,56.9299037 C25.3465688,50.6749732 30.7990317,47.3709258 37.199152,45.6561174 C41.4979452,44.5063717 44.2585121,45.620801 46.9268638,49.0720001 C50.3466706,53.4944008 51.9359095,58.5132566 52.1870485,63.9892638 C52.7442631,76.1616568 53.2073007,88.3418979 53.7350849,100.516253 C53.7684393,101.285366 54.0313505,102.044669 54.2216667,102.968782 C55.50483,103.027643 56.6172973,103.15125 57.7258405,103.119858 C68.9211459,102.819668 80.1164512,102.544985 91.3097946,102.156504 C98.2710535,101.915176 105.222502,101.42467 112.183761,101.195113 C114.981607,101.100936 115.4211,100.063026 115.448568,97.2730283 C115.525087,89.6819599 116.396225,82.1046256 116.704263,74.5115952 C117.104516,64.6171113 117.290908,54.7128173 117.500845,44.8104853 C117.530275,43.5037778 117.824578,41.928273 115.815466,40.7942235 C115.650657,48.1007985 115.558441,55.018893 114.126164,61.821228 C113.58857,59.723825 113.339393,57.6440802 113.357051,55.5662975 C113.398254,51.1772512 113.547367,46.7882049 113.716101,42.4011206 C113.816165,39.8210599 113.133381,37.9610617 109.629207,37.8256821 C109.372182,46.1113068 108.987625,54.347881 108.897372,62.5903412 C108.805157,70.9956493 109.001359,79.4048815 109.075916,88.2398727 C106.921615,88.2575309 105.344148,88.4262649 103.801997,88.2594929 C91.9709964,86.9822157 80.1537297,86.7389248 68.346273,88.4988598 C67.4005777,88.6401255 66.4352622,88.8343658 65.4974151,88.771581 C62.4445067,88.5655686 61.961849,87.9004427 61.8578617,84.8593064 C61.547862,75.9576064 61.124065,67.0598304 60.8297615,58.1561683 C60.7198882,54.8364248 60.8454577,51.5088331 60.8631159,48.1007985 C62.9036202,47.8339634 64.3221631,47.6495332 66.2155156,47.4023182 C65.9996931,44.953713 65.7976046,42.6581457 65.5837441,40.2213127 C63.4117842,40.2389709 61.8284314,40.252705 59.9586231,40.2684012 C59.5505222,42.6228293 59.1561555,44.8987764 58.7637509,47.1747235 C57.6257773,45.030232 57.4119167,42.8366898 57.0253981,40.6745401 C56.7330567,39.0323265 56.1424876,37.4391635 54.074515,37.3881509 C52.1223017,37.3391003 50.3466706,38.9401114 50.1897087,40.9570714 C50.0778734,42.4050447 50.2642656,43.8746002 50.295658,45.3363076 C50.3231263,46.6528253 50.3211643,47.971305 50.3329364,49.2878227 C49.9189495,49.315291 49.5069246,49.3407973 49.0929376,49.3682656 C48.6534444,46.7489644 48.200217,44.1316253 47.780344,41.5084 C47.3840153,39.0146683 45.9831306,38.7792255 43.8523732,39.6680221 C43.6483228,41.2219446 43.4580065,42.6934621 43.2657282,44.1649797 C43.0008551,44.1767518 42.7379439,44.1885239 42.4730708,44.2002961 C42.0944003,42.3932725 41.7137677,40.584287 41.2389581,38.322074 C40.0499719,37.81391 38.5666822,37.1801764 36.8930763,36.4640379 C36.6772537,38.6654281 36.534026,40.1251735 36.3907983,41.5849189 C36.1337733,41.592767 35.8787102,41.6025771 35.6216852,41.6123872 C35.3391538,40.4410593 35.0526984,39.2716934 34.7093443,37.8668846 C32.6315615,38.31815 30.7833355,38.7203648 29.1489701,39.075491 C28.8271982,40.8001096 28.5858694,42.093083 28.3465025,43.3840944 C28.1090977,43.3919424 27.8716928,43.3997905 27.634288,43.4076386 C27.0711873,41.8027035 26.5080866,40.1977684 25.9234036,38.5320105 C24.1634687,38.0768211 22.5173311,37.6510621 20.5337254,37.138974 C20.5572697,39.9191611 20.7848644,42.1990322 20.5337254,44.4239667 C20.3041687,46.462509 21.8875216,48.9071901 19.1367648,50.9280742 C18.6619551,46.2349143 18.2244239,41.9165009 17.7829687,37.5451128 C15.3873381,37.311632 14.2140481,38.2416311 14.1532254,40.4665656 C14.119871,41.7654251 14.1708836,43.0642845 14.1669596,44.365106 C14.1493014,48.391178 14.1237951,52.41725 14.1041748,56.4413599 C13.8177194,56.4433219 13.531264,56.4452839 13.2448086,56.449208 C12.7523407,53.5218691 12.269683,50.5984543 11.7870252,47.6770015 Z M22.6311284,102.244796 C31.1090314,102.533213 39.0238337,102.837327 46.9445221,103.049225 C49.1380642,103.108086 49.5363549,101.518847 49.5167347,99.7177094 C49.4637601,94.8538535 49.6167979,89.9762634 49.3244564,85.1241796 C48.8280645,76.8758333 48.1492044,68.6372972 47.3545849,60.4105332 C46.9974967,56.7317394 45.1414226,53.5689577 42.3808557,51.1752892 C41.319401,50.2551002 39.38877,49.5036453 38.1193409,49.8018728 C32.3451061,51.163517 27.4420097,53.7906663 26.1666945,60.3712927 C25.7958721,62.2842655 25.2406195,64.173694 25.034607,66.102363 C24.3989115,72.064952 23.7632159,78.0314651 23.3649252,84.0117123 C22.9784065,89.8114534 22.8842294,95.6288527 22.6311284,102.244796 Z M105.010604,83.0974094 C104.922313,72.6672932 104.837946,62.5236324 104.747693,51.8404151 C91.3274528,51.0889601 78.2113265,50.826049 64.7439981,52.5349714 C65.1893774,63.1769861 65.6072884,73.1617231 66.0389335,83.4231053 C79.2355027,83.313232 91.8179586,83.2072828 105.010604,83.0974094 Z M60.8062172,5.05400573 C59.5995728,13.8968451 57.3687522,22.4002544 57.8023594,31.2489798 C57.9907136,35.0768874 59.9370408,37.0291006 63.6177967,36.4895442 C65.8113388,36.1697344 67.9813367,35.3162542 70.0159549,34.3842931 C72.4331677,33.279674 73.5829134,31.3667012 73.29842,28.4864509 C72.5214587,20.6520915 71.9446239,12.798112 71.2893081,4.9676767 C67.5516535,4.99906908 64.3457074,5.02457538 60.8062172,5.05400573 Z M33.7126364,3.68451342 C27.7775157,11.3010882 23.0235331,19.1374095 20.665181,28.2372739 C20.4042319,29.2418299 20.2099916,30.6446766 20.7004974,31.3980936 C22.7920143,34.6099258 26.2432134,35.1141658 29.6826404,35.0023305 C32.7767513,34.9022673 34.5013698,33.0128388 35.3921284,29.422336 C36.5987728,24.5467079 37.6798477,19.6357634 38.9826312,14.7856417 C39.887124,11.4188096 41.0741481,8.12653433 42.2199698,4.53210752 C39.2004158,4.22995592 36.6478234,3.9768549 33.7126364,3.68451342 Z M90.1953653,4.8578034 C90.2090995,6.41172591 90.1227704,7.70469931 90.2444159,8.97609046 C90.8703013,15.4448815 91.59625,21.9038625 92.2025152,28.3746155 C92.771502,34.4686601 98.1592182,37.9296694 103.921681,35.8185322 C107.368956,34.5549892 108.550094,32.5713835 107.449399,29.0495516 C105.612945,23.1752536 103.452757,17.4049429 101.594721,11.538493 C99.1029514,3.66881723 99.1716222,3.64723497 90.1953653,4.8578034 Z M47.7293314,4.62432261 C42.7575642,13.0198206 40.9623128,21.8822802 39.5967445,30.850689 C39.471175,31.688473 40.3442754,32.9598642 41.1133886,33.5994838 C43.746424,35.7891019 46.8895854,35.7204311 49.8483166,34.5981537 C52.6991366,33.5170788 53.7115407,31.1234103 53.8312241,28.0037931 C53.9979961,23.6539873 54.7376789,19.3316498 55.1536278,14.9877301 C55.4538174,11.8229864 55.6284375,8.64843255 55.8874246,5.09717025 C52.8639466,4.92255017 50.4820502,4.78520853 47.7293314,4.62432261 Z M77.828732,35.7949879 C79.7574009,35.7792918 81.5094878,35.9421397 83.2086001,35.714545 C86.9737229,35.210305 88.2510001,33.7250533 88.1960635,29.9638545 C88.1489749,26.56563 88.1411268,23.1379752 87.7134057,19.7750671 C87.0698621,14.7071607 86.0770782,9.68045685 85.2471423,4.7322339 C81.6723358,4.76166425 78.8313259,4.78520853 75.8470884,4.81071483 C76.5161383,15.2624133 77.163606,25.3825299 77.828732,35.7949879 Z M10.6372795,107.652132 C10.6215833,107.983714 10.6058872,108.315296 10.592153,108.64884 C14.8968323,108.85289 19.2034736,109.135422 23.5101149,109.243333 C33.8676363,109.500358 44.2290817,109.739725 54.5885651,109.865294 C62.0442539,109.957509 69.5019048,109.922193 76.9556316,109.82213 C85.1941677,109.710294 93.4287798,109.453269 101.669278,109.272763 C107.009906,109.155042 112.352495,109.096181 117.691161,108.909789 C118.401413,108.884283 119.090084,108.248587 119.788564,107.895423 C116.820022,106.635804 113.994709,106.023653 111.181167,106.080551 C98.8400403,106.329728 86.5047993,107.028209 74.1656343,107.083145 C59.3955224,107.147892 44.6214864,106.653462 29.8494124,106.549475 C23.4316339,106.502386 16.9294885,105.713653 10.6372795,107.652132 Z M126.198494,29.3458171 C120.797044,20.4088007 108.451993,6.37052342 104.157124,4.56938596 C107.21788,14.5089964 110.196232,24.1876577 113.235406,34.0664454 C115.738948,34.4019513 117.871667,37.1311259 121.089385,35.881317 C124.14818,34.6923308 125.560837,32.355561 126.198494,29.3458171 Z M26.6415042,5.60925835 C23.8004943,4.31432292 22.348597,5.44837243 21.0438515,7.07292778 C16.386008,12.8628588 11.6889241,18.6213974 7.06835902,24.4387967 C6.27373955,25.4374666 5.65962623,26.6166426 5.14753813,27.7918946 C3.53083087,31.4844226 5.1534242,34.3646729 9.13436963,34.5549892 C11.1317094,34.6511283 13.1624036,34.11942 15.1715155,33.870243 C16.5213876,23.1634815 21.422522,14.4501357 26.6415042,5.60925835 Z M68.6876651,47.1080147 C79.7927174,47.0157996 90.5563776,46.9255465 101.70067,46.8313694 C101.388709,44.447511 101.145418,42.5777027 100.884469,40.582325 C99.1147235,40.2154266 97.6314339,39.909351 96.2717517,39.6287816 C95.2770058,41.6163113 97.2841557,43.9354229 94.7963101,45.0675104 C92.6596666,42.6424495 94.5746015,38.5280865 90.8565672,36.8819489 C89.6479608,37.6510621 88.4589746,38.4103651 87.5328996,39.0009341 C86.9050521,41.2611851 88.156823,43.5940309 85.8416354,45.285295 C85.221636,43.3625121 84.6801176,41.6908682 84.1091688,39.9230851 C81.9293608,39.9407433 79.845692,39.9584015 77.6148714,39.9760598 C77.163606,41.7928934 76.735885,43.5116259 76.1099995,46.0269398 C74.6463301,36.9898602 74.4579758,36.8623287 68.6268424,40.2134646 C68.6484246,42.5325762 68.6700069,44.9183966 68.6876651,47.1080147 Z M107.055032,39.7249208 C102.820986,40.1781482 102.768011,40.2978316 103.696048,46.8490276 C104.932123,46.8392175 106.225096,46.8274454 107.990917,46.8137112 C107.653449,44.2513087 107.355222,41.9812476 107.055032,39.7249208 Z" id="Shape"></path>
                    <path d="M41.1955307,84.7107887 C40.7050248,84.1987006 39.3865451,83.4119293 39.043191,82.3190823 C38.621356,80.9790203 41.389771,78.6265543 42.9770479,79.0503513 C43.9404014,79.3073764 45.0391345,80.4787043 45.3354,81.461678 C45.7238806,82.7487654 43.3674906,84.8030038 41.1955307,84.7107887 Z" id="Shape"></path>
                    <path d="M87.0171944,57.6278475 C86.899473,57.920189 86.8425743,58.259619 86.65422,58.4989859 C81.2684659,65.3798018 75.8415092,72.2292254 70.4930335,79.1375097 C69.2687309,80.7189006 68.2092383,81.9804816 66,79.4887119 C72.7846768,71.9898586 79.5634676,64.4949293 86.3422583,57 C86.567891,57.2079745 86.7935237,57.417911 87.0171944,57.6278475 Z" id="Shape"></path>
                    <path d="M76,79.5667597 C78.7095543,74.4341066 83.3320813,70.9220847 87.4739127,67 C85.062586,72.3837921 81.0600583,76.4235983 77.6579098,80.9696064 C77.1065812,80.5026449 76.5532906,80.0356833 76,79.5667597 Z" id="Shape"></path>
                    <path d="M88,76.9128403 C88.6513918,72.6827179 91.6591736,70.6696819 95.0436639,69 C93.625121,72.4610092 91.5453762,75.3392975 88,76.9128403 Z" id="Shape"></path>
                </g>
            </g>
        </g>
    </g>
</svg>