<?xml version="1.0" encoding="UTF-8"?>
<svg width="163px" height="108px" viewBox="0 0 163 108" version="1.1" xmlns="http://www.w3.org/2000/svg" xmlns:xlink="http://www.w3.org/1999/xlink">
    <!-- Generator: Sketch 43.2 (39069) - http://www.bohemiancoding.com/sketch -->
    <title>truck</title>
    <desc>Created with Sketch.</desc>
    <defs></defs>
    <g id="Page-1" stroke="none" stroke-width="1" fill="none" fill-rule="evenodd">
        <g id="Main" transform="translate(-650.000000, -1298.000000)" fill-rule="nonzero" fill="#FF9300">
            <g id="How-It-Works" transform="translate(-1.000000, 1087.000000)">
                <g id="truck" transform="translate(651.000000, 211.000000)">
                    <path d="M97.3223008,16.9606049 C99.0986838,17.0326856 100.502939,17.1504759 101.903684,17.1381694 C110.32746,17.0520243 118.758258,16.661734 127.167992,16.9465404 C131.610705,17.0959759 136.042886,18.270363 140.427673,19.2214759 C143.729428,19.9370082 146.02012,22.2594114 147.789482,25.0160565 C149.441237,27.5863469 150.950811,30.2533307 152.453365,32.9167985 C155.226769,37.835863 156.515173,43.2014759 156.80129,48.7868469 C157.301556,58.5335565 157.689482,68.2855404 158.080918,78.0375243 C158.168684,80.2351049 158.484641,82.0265727 160.185545,83.8901211 C162.635971,86.5729275 162.542939,90.3773791 162.244535,93.8724114 C162.079535,95.7922178 160.42778,96.1526211 158.640865,96.2211856 C154.163045,96.3934759 149.690492,96.7415727 145.158258,97.022863 C141.077141,106.185895 133.353737,108.267444 124.775492,107.727718 C116.67645,107.216121 112.751556,101.528782 110.60129,93.7071533 C88.6264497,94.4543307 66.567354,93.3010404 44.1958114,95.4493952 C40.1392689,103.680653 33.3216093,106.887363 24.1921944,105.171492 C17.0603327,103.831847 13.2618221,99.0710082 11.4819284,92.3042178 C8.91565185,92.580234 6.48804547,92.7191211 4.10958802,93.1340243 C1.85751355,93.5278307 0.820119934,92.3727823 0.295279509,90.5180243 C0.0232050405,89.5581211 -0.0101460234,88.5032823 0.00214121068,87.4923952 C0.228577381,68.2591694 0.532247594,49.0241856 0.691981636,29.7892017 C0.751662487,22.6672823 0.493630572,15.5436049 0.363736955,8.42168557 C0.332141211,6.67592751 0.191715679,4.93192751 0.18996036,3.18441138 C0.18820504,1.3402017 1.67144972,0.0269275064 2.95634334,0.730153313 C6.8671944,2.86971783 10.9711306,1.94849202 14.9258646,1.92563718 C37.8942157,1.79026622 60.8608114,1.43513718 83.8274072,1.06418557 C87.1449604,1.01144364 90.4695348,0.564895248 93.7660242,0.116588797 C96.3516093,-0.233266042 97.290705,0.0884597645 97.6189497,2.69918557 C97.9261306,5.1305888 97.7365561,7.63055654 97.6786306,10.0971211 C97.6347476,12.247234 97.4627263,14.3991049 97.3223008,16.9606049 Z M12.068205,80.7519759 C13.0546944,79.3226694 14.2342689,77.9882985 14.9820348,76.4412017 C16.3827795,73.5403952 18.668205,72.0460404 21.7119284,71.4975243 C23.997354,71.0878952 26.2722476,70.507734 28.5752263,70.3231372 C35.9423008,69.7341856 41.2907582,73.0516533 44.1343753,79.7938307 C44.578471,80.8451533 44.9716625,81.9158146 45.4719284,83.1956856 C61.122354,82.6805727 76.5990029,82.1742501 92.5583646,81.6485888 C92.4986838,74.4211856 92.4425136,67.6895565 92.3828327,60.7276211 C89.4479391,60.5412662 86.9869816,60.2142662 84.5312901,60.2547017 C71.1557582,60.479734 57.778471,60.6924598 44.408205,61.1091211 C33.9429923,61.4361211 23.4883114,62.0567178 13.0301199,62.5384275 C10.1566625,62.6702823 7.27091781,62.714234 4.26581142,64.7395243 C9.845971,64.431863 14.9293753,64.1523307 20.0110242,63.8727985 C20.0391093,64.1769436 20.0654391,64.4793307 20.0917689,64.7817178 C19.3018753,64.9135727 18.5154923,65.059492 17.7238433,65.1755243 C13.8463433,65.7416211 9.95304547,66.2162985 6.09485398,66.8949114 C3.68480079,67.3168469 3.23017313,68.8885565 4.12714121,71.3480888 C8.22932206,71.3129275 12.2016093,71.2812823 16.1721412,71.2478791 C16.198471,71.5010404 16.2230455,71.7542017 16.2476199,72.0091211 C12.2121412,72.6666372 8.17490717,73.3223952 3.85506674,74.0256211 C4.04113057,75.8575243 4.1815561,77.2235404 4.34304547,78.793492 C6.56176887,78.8761211 8.43293908,78.9587501 10.3058646,79.0079759 C11.5258114,79.0431372 12.2103859,79.5740727 12.1682582,80.8592178 C9.60022632,80.8820727 7.03043908,80.9014114 4.30618376,80.9260243 C4.32198164,82.7737501 4.33251355,84.0114275 4.34480079,85.5620404 C6.72325823,85.5409436 8.83139653,85.523363 11.0308114,85.5057823 C11.3888965,83.8707823 11.7276731,82.3131372 12.068205,80.7519759 Z M3.94634334,59.6446533 C11.8277263,59.3299598 19.1930455,58.9695565 26.5636306,58.763863 C33.9693221,58.5564114 41.3802795,58.5634436 48.7877263,58.3630243 C56.1776199,58.164363 63.5692689,57.918234 70.9521412,57.5209114 C78.233205,57.128863 85.5581518,57.2677501 92.9778859,56.5451856 C93.1674604,47.9060565 93.3465029,39.8382985 93.5378327,31.1780727 C87.973471,31.2237823 82.9304391,31.431234 77.8961838,31.2800404 C57.569588,30.669992 37.2535242,30.7526211 16.9444816,31.7810888 C13.4689497,31.9586533 9.98990717,32.1748952 6.52666249,32.5300243 C4.27985398,32.7620888 4.18506674,34.1456856 5.0890561,36.1920727 C9.7546944,36.1533952 14.3553859,36.1147178 18.9578327,36.0760404 C18.9666093,36.2623952 18.9771412,36.4505082 18.9859178,36.636863 C14.1517689,37.1888952 9.31761993,37.7426856 4.31320504,38.3158146 C4.33075823,40.5133952 4.3465561,42.3066211 4.3641093,44.4954114 C9.38958802,44.5885888 14.1289497,44.674734 18.8683114,44.7608791 C18.8577795,44.9507501 18.8454923,45.1406211 18.8349604,45.330492 C13.9832582,45.8297823 9.12980079,46.3273146 4.29389653,46.8213307 C4.3096944,48.7341049 4.32022632,49.9946372 4.33075823,51.3149436 C9.16666249,51.2745082 13.7743753,51.2358307 18.3838433,51.1989114 C18.3891093,51.3553791 18.3961306,51.5136049 18.4031518,51.6683146 C13.723471,52.3908791 9.04379015,53.1116856 4.15171568,53.8676533 C4.08325823,55.7716372 4.02884334,57.3292823 3.94634334,59.6446533 Z M4.38692844,5.89710493 C3.93230079,8.66429847 4.53261993,9.79297589 6.74607738,9.68221783 C8.05027951,9.61716944 9.36501355,9.74199202 10.6727263,9.73671783 C13.893737,9.72441138 17.1147476,9.68925009 20.3357582,9.66112105 C20.3603327,9.8123146 20.3831518,9.96526622 20.4077263,10.1182178 C15.169854,10.7352985 9.93022632,11.3523791 4.39570504,12.0046211 C4.53613057,13.8734436 4.6396944,15.2394598 4.76958802,16.9553307 C8.97006674,16.9201694 12.8089497,16.8885243 16.6478327,16.8551211 C16.6724072,17.1592662 16.698737,17.4634114 16.7233114,17.7640404 C12.7843753,18.2562985 8.8471944,18.7485565 4.53437525,19.2865243 C4.63618376,20.886363 4.71868376,22.2154598 4.81873696,23.7924436 C9.69676887,23.5234598 14.0815561,23.2790888 18.4680987,23.0347178 C18.4961838,23.312492 18.5225136,23.5902662 18.5505987,23.8697985 C13.811237,24.5044598 9.07187525,25.1426372 3.20384334,25.9302501 C4.61863057,27.3314275 5.14522632,28.3106694 5.83506674,28.4460404 C7.67113057,28.8064436 9.58267313,28.9629114 11.457354,28.9136856 C21.1835774,28.653492 30.9062901,28.2034275 40.6342689,28.0135565 C49.7900136,27.835992 58.9826199,27.4070243 68.0979923,28.0153146 C75.6915029,28.5198791 83.1726731,28.1858469 90.690705,27.563492 C91.6385774,27.4843791 92.5583646,27.0395888 93.6098008,26.7266533 C93.6150667,19.2917985 94.2101199,12.085492 93.5044816,5.14816944 C63.5113433,5.40133073 34.0395348,5.64745976 4.38692844,5.89710493 Z M103.790652,21.1483146 C103.678311,23.0558146 103.550173,24.1985565 103.551928,25.3412985 C103.572992,42.5298952 103.639694,59.7202501 103.629162,76.9070888 C103.625652,85.2403146 103.890705,83.4963146 96.9449072,85.2491049 C96.8202795,86.5957823 96.6833646,88.0655243 96.5569816,89.4034114 C101.389375,89.364734 105.663577,89.3278146 109.960599,89.2926533 C110.288843,88.0004759 110.497726,87.1653952 110.713631,86.3320727 C113.044694,77.3518791 116.987141,72.7773952 126.783577,70.6325565 C136.499269,68.5070565 146.295705,75.577992 146.676609,86.1650565 C146.748577,88.1727662 146.716982,90.183992 146.73629,92.4237662 C150.648897,92.9002017 154.312248,92.8843791 157.750918,91.3618952 C158.482886,88.1639759 157.45778,86.0384759 154.893258,85.1998791 C154.329801,73.7759759 153.675067,62.742363 153.274854,51.6982017 C152.97645,43.4159598 150.015226,36.0901049 145.704162,29.2477178 C143.253737,25.3606372 140.139801,22.1170082 135.049375,21.8111049 C133.03778,21.6897985 131.040226,21.1447985 129.030386,21.1184275 C122.34262,21.0322823 115.656609,21.0938146 108.967088,21.104363 C107.385545,21.1078791 105.802248,21.130734 103.790652,21.1483146 Z M142.85528,87.3271372 C142.816662,80.6834114 138.767141,76.4693307 134.210333,74.7798307 C128.795173,72.770363 123.232567,74.0484759 119.381397,78.2291533 C112.965705,85.1910888 112.920067,93.9743791 118.805652,101.150798 C119.665758,102.202121 121.091077,102.878976 122.37246,103.469686 C126.49746,105.371911 130.587354,103.926782 134.656184,103.11104 C137.996556,102.441218 139.939694,100.108266 140.805067,97.022863 C141.695014,93.8495565 142.190014,90.563734 142.85528,87.3271372 Z M41.3065561,87.6611694 C40.9660242,85.5251211 40.9361838,83.2783146 40.2200136,81.2758791 C38.4699604,76.3743952 34.7205987,73.7038952 29.4932582,74.0660565 C24.322088,74.4247017 19.0666625,74.8747662 16.6671412,81.0192017 C13.5444284,89.0236694 15.9018221,97.4658952 23.1038965,100.714798 C29.937354,103.798444 34.590705,102.290024 38.4962901,97.1758146 C40.6430455,94.3681856 41.1731518,91.1263146 41.3065561,87.6611694 Z M45.656237,90.6569114 C61.2961306,90.5268146 76.7341625,90.3967178 92.3880987,90.264863 C92.3723008,88.5226211 92.3617689,87.1689114 92.3494816,85.5005082 C91.2243221,85.5110565 90.3765029,85.5022662 89.5286838,85.5268791 C76.6218221,85.9171694 63.713205,86.2969114 50.8063433,86.722363 C49.5144284,86.7645565 48.2190029,87.0388146 46.9481518,87.3077985 C45.2033646,87.6787501 45.1155987,88.8935727 45.656237,90.6569114 Z M97.6136838,80.5955082 C97.9542157,80.6377017 98.2982582,80.6816533 98.6405455,80.7238469 C98.9793221,80.0047985 99.5375136,79.310363 99.6182582,78.5631856 C99.897354,75.9630082 100.157141,73.3470082 100.165918,70.7380404 C100.204535,57.7969275 100.178205,44.8540565 100.134322,31.9129436 C100.125545,29.0051049 100.01496,26.090234 99.8464497,23.1859114 C99.765705,21.8216533 99.105705,21.0076694 97.1853859,21.8867017 C97.2011838,40.4360404 95.2457582,59.1014114 96.9062901,77.810734 C96.9905455,78.7512985 97.3696944,79.6672501 97.6136838,80.5955082 Z M11.1396412,89.2803469 C11.0343221,88.6281049 10.9676199,87.8422501 10.8974072,87.8422501 C8.90511993,87.8317017 6.9128327,87.9002662 4.92054547,87.9547662 C4.9328327,88.1797985 4.94511993,88.4048307 4.95740717,88.629863 C6.89703483,88.8337985 8.83841781,89.037734 11.1396412,89.2803469 Z" id="Shape"></path>
                    <path d="M109.201862,41.8468242 C109.165,37.4903404 109.152713,33.1356146 109.087766,28.7808887 C109.02633,24.7162436 109.693351,23.9497275 113.765691,24.0024694 C120.722021,24.0956468 127.687128,24.1149855 134.62766,24.5175823 C136.468989,24.6265823 138.622766,25.6093404 139.970851,26.8927275 C147.585426,34.1306791 150.162234,43.4712758 150.344787,53.6434371 C150.416755,57.70105 149.739202,58.3831791 145.500106,58.5220662 C141.152181,58.6627113 136.788457,58.6925984 132.445798,58.4886629 C125.640426,58.1704533 118.854362,57.5463404 112.070053,58.8560984 C109.85133,59.2833081 109.166755,58.4570178 109.124628,55.7759694 C109.054415,51.132921 109.038617,46.4898726 109,41.8468242 C109.068457,41.8485823 109.13516,41.8468242 109.201862,41.8468242 Z M146.881543,54.0249371 C146.8675,52.4338887 146.928936,51.1522597 146.835904,49.8829371 C146.34266,43.1811952 143.908032,37.3373887 139.726862,32.0086952 C137.720532,29.4524694 135.566755,28.1708404 132.484415,28.0337113 C128.422606,27.8508726 124.362553,27.6012275 120.300745,27.4148726 C117.85734,27.3041146 115.433245,27.3638887 113.483085,28.4187275 C113.305798,33.0055178 112.995106,37.20905 113.026702,41.4108242 C113.060053,45.6670984 112.675638,49.9849049 113.718298,54.7861791 C124.752234,53.2689694 135.457926,56.33855 146.881543,54.0249371 Z" id="Shape"></path>
                    <path d="M115.599133,62.0279284 C116.066048,63.1513316 116.536474,64.2817671 117.059559,65.5422994 C114.688123,66.7483316 112.497484,66.133009 110.424452,65.9800574 C109.860995,65.9396219 109.11674,64.5454768 109.002644,63.6980897 C108.941208,63.2339607 109.964559,62.2424123 110.599984,62.1439607 C112.153442,61.9013478 113.76658,62.0419929 115.599133,62.0279284 Z" id="Shape"></path>
                    <path d="M128.729481,94.2601049 C126.717885,94.4148146 125.2873,93.4021694 124.346449,91.2063468 C123.546023,89.3392823 124.227087,88.0805081 125.424215,86.9272178 C127.599055,84.8368791 133.382832,86.5404436 134.188523,89.4553146 C134.936289,92.1504275 132.756183,94.1845081 128.729481,94.2601049 Z" id="Shape"></path>
                    <path d="M27.4779233,92.9965829 C24.5324978,93.0176797 23.142285,91.5971635 23.0036148,88.4273732 C22.8965404,85.967841 25.1802106,84.0410022 28.2555297,84.0005668 C30.8744659,83.9636474 32.673668,85.7340184 32.591168,88.2656313 C32.4963808,91.0539216 30.4180829,92.9754861 27.4779233,92.9965829 Z" id="Shape"></path>
                </g>
            </g>
        </g>
    </g>
</svg>