<?xml version="1.0" encoding="UTF-8"?>
<svg width="22px" height="40px" viewBox="0 0 22 40" version="1.1" xmlns="http://www.w3.org/2000/svg" xmlns:xlink="http://www.w3.org/1999/xlink">
    <!-- Generator: Sketch 43.2 (39069) - http://www.bohemiancoding.com/sketch -->
    <title>facebook-drawn-logo</title>
    <desc>Created with Sketch.</desc>
    <defs></defs>
    <g id="Page-1" stroke="none" stroke-width="1" fill="none" fill-rule="evenodd">
        <g id="Main" transform="translate(-581.000000, -4515.000000)" fill-rule="nonzero" fill="#1D1D1B">
            <g id="testimonials/footer" transform="translate(1.000000, 3909.000000)">
                <g id="social-icons" transform="translate(580.000000, 605.000000)">
                    <g id="facebook-drawn-logo" transform="translate(0.000000, 1.000000)">
                        <path d="M21.4247407,1.21795918 C21.6642963,0.960816327 21.6634815,0.499591837 21.2267407,0.423673469 C17.0100741,-0.305306122 12.144,-0.4 8.77637037,2.68489796 C5.64503704,5.55265306 5.49674074,10.3036735 6.19666667,14.235102 C6.17955556,14.2310204 6.16488889,14.2220408 6.14696296,14.2204082 C4.34133333,14.0342857 2.37437037,14.235102 0.580148148,14.4759184 C0.305555556,14.5126531 0.232222222,14.8097959 0.379703704,14.962449 C0.376444444,14.9755102 0.365037037,14.9828571 0.364222222,14.9967347 C0.204518519,17.0546939 0.354444444,19.3126531 0.619259259,21.3681633 C0.312888889,21.4726531 0.341407407,21.9608163 0.714592593,21.9820408 C2.56340741,22.0873469 4.65259259,22.1583673 6.52585185,21.9240816 C5.98318519,27.5428571 6.31644444,33.44 6.39140741,39.0783673 C6.39303704,39.2342857 6.468,39.3395918 6.56822222,39.4040816 C6.54540741,39.5510204 6.62281481,39.7077551 6.82651852,39.7240816 C9.00451852,39.8938776 11.5548889,40.1044898 13.7043704,39.6587755 C13.816,39.6359184 13.8754815,39.5485714 13.9088889,39.4506122 C14.0172593,39.4302041 14.1199259,39.3583673 14.1337778,39.2138776 C14.6625926,33.6857143 14.6927407,27.957551 14.3554074,22.4081633 C16.3256296,22.5697959 18.4555556,22.3681633 20.407037,22.3061224 C20.4762963,22.3036735 20.534963,22.2881633 20.5854815,22.2644898 C20.8087407,22.3428571 21.111037,22.2187755 21.0988148,21.9265306 C21.0531852,20.8114286 20.8983704,19.7036735 20.8543704,18.5869388 C20.8111852,17.4897959 20.6205185,16.0726531 20.8388889,15.002449 C20.8665926,14.8653061 20.746,14.7436735 20.6237778,14.7591837 C20.5805926,14.677551 20.5023704,14.6146939 20.3752593,14.5934694 C18.3952593,14.2677551 16.2197037,14.2514286 14.2079259,14.3232653 C13.9911852,13.0897959 13.8168148,11.3330612 14.154963,9.91510204 C14.1753333,9.89387755 14.1826667,9.86693878 14.1728889,9.84163265 C14.3301481,9.22204082 14.5778519,8.6644898 14.9852593,8.26204082 C15.2402963,8.00979592 15.5523704,7.83102041 15.8864444,7.68489796 C15.9768889,7.68163265 16.0673333,7.68163265 16.1577778,7.67755102 C16.2392593,7.67346939 16.2604444,7.59102041 16.2286667,7.53795918 C17.6024444,7.08326531 19.3771111,7.2522449 20.6767407,7.26040816 C20.9757778,7.26204082 21.0922963,7.02285714 21.0523704,6.80326531 C21.1248889,6.77142857 21.1892593,6.72244898 21.2153333,6.63755102 C21.7107407,5.04163265 21.7278519,2.90122449 21.4247407,1.21795918 Z M14.4336296,7.46040816 C13.2334074,7.45877551 12.0282963,7.49632653 10.8345926,7.51755102 C10.7474074,7.51918367 10.7474074,7.6522449 10.8345926,7.65387755 C11.9402963,7.67428571 13.054963,7.70612245 14.1663704,7.71020408 C14.1500741,7.72979592 14.1272593,7.74204082 14.110963,7.76163265 C13.6171852,8.37306122 13.345037,9.13142857 13.2244444,9.9444898 C12.262963,10.0963265 11.3226667,10.1746939 10.3212593,10.0930612 C10.2487407,10.0873469 10.252,10.1959184 10.3212593,10.204898 C11.2542222,10.3265306 12.2523704,10.3395918 13.2,10.1714286 C13.1136296,10.9306122 13.1445926,11.7273469 13.2497037,12.4963265 C12.1016296,12.4726531 10.9502963,12.5053061 9.80303704,12.515102 C9.72318519,12.5159184 9.72318519,12.6383673 9.80303704,12.6391837 C10.9568148,12.6489796 12.1162963,12.682449 13.2708889,12.6579592 C13.3711111,13.3216327 13.5161481,13.96 13.6815556,14.522449 C13.6734074,14.5363265 13.675037,14.5534694 13.6685185,14.5681633 C12.2735556,14.4955102 10.854963,14.562449 9.45918519,14.5861224 C9.38748148,14.5877551 9.38748148,14.6971429 9.45918519,14.6979592 C10.8411111,14.7216327 12.2458519,14.7861224 13.6277778,14.717551 C13.6220741,14.92 13.7548889,15.1322449 14.022963,15.162449 C15.9988889,15.3869388 18.1622222,15.5477551 20.152,15.3853061 C19.9042963,15.9608163 19.9042963,16.64 19.923037,17.2906122 C16.2620741,16.8457143 12.6011111,16.8538776 8.93688889,17.2620408 C8.84562963,17.2718367 8.844,17.4155102 8.93688889,17.4065306 C12.6182222,17.0653061 16.2588148,17.1306122 19.9303704,17.5477551 C19.9328148,17.6359184 19.9360741,17.7265306 19.9377037,17.8130612 C19.945037,18.2 19.9654074,18.5910204 19.9865926,18.9820408 C17.05,19.0179592 14.1101481,19.0946939 11.176,19.2040816 C11.1034815,19.2065306 11.1026667,19.317551 11.176,19.317551 C14.1142222,19.317551 17.0573333,19.2840816 19.9955556,19.2114286 C20.0314074,19.7722449 20.0819259,20.3322449 20.1642222,20.8865306 C16.4828889,20.8416327 12.795037,20.8857143 9.11451852,20.9526531 C9.04037037,20.9542857 9.04037037,21.0669388 9.11451852,21.0677551 C12.8080741,21.1355102 16.508963,21.1795918 20.2033333,21.1338776 C20.2220741,21.2481633 20.2359259,21.3632653 20.2579259,21.4767347 C18.3553333,21.3208163 16.0966667,21.2889796 14.2144444,21.8057143 C14.0001481,21.6073469 13.5772593,21.6897959 13.5715556,22.0693878 C13.5715556,22.0914286 13.5707407,22.1134694 13.5707407,22.1355102 C13.5699259,22.1518367 13.5666667,22.1657143 13.5699259,22.1820408 C13.5658519,22.4391837 13.5674815,22.6979592 13.5658519,22.9559184 C12.5921481,22.9126531 11.6021481,22.9730612 10.6357778,23.0563265 C10.2544444,23.0889796 9.42903704,23.0057143 9.18051852,23.3608163 C9.1682963,23.3787755 9.17237037,23.4097959 9.18866667,23.4236735 C9.21392593,23.4457143 9.23918519,23.4669388 9.26444444,23.4889796 C9.28237037,23.5044898 9.31007407,23.5069388 9.328,23.4889796 C9.34511111,23.4710204 9.36303704,23.4530612 9.38014815,23.4359184 C9.4102963,23.404898 9.36874074,23.3453061 9.33207407,23.3738776 C9.53414815,23.2171429 10.1835556,23.282449 10.4638519,23.2628571 C10.8671852,23.2359184 11.2697037,23.2130612 11.6738519,23.1991837 C12.3045185,23.1779592 12.9351852,23.1893878 13.5658519,23.1828571 C13.5642222,23.635102 13.5601481,24.0857143 13.5593333,24.5379592 C12.3102222,24.5085714 11.0505185,24.5461224 9.80303704,24.5730612 C9.73703704,24.5746939 9.73622222,24.675102 9.80303704,24.6767347 C11.0505185,24.7036735 12.3094074,24.7412245 13.5585185,24.7118367 C13.5568889,25.3444898 13.5495556,25.9763265 13.5487407,26.6089796 C12.408,26.7795918 11.3022963,26.9102041 10.1428148,26.8538776 C10.0637778,26.8497959 10.0654074,26.9706122 10.1428148,26.9763265 C11.2721481,27.0587755 12.4373333,27.0342857 13.5479259,26.7820408 C13.5471111,27.2987755 13.5405926,27.8146939 13.5397778,28.3314286 C11.8180741,28.5967347 10.1680741,28.7567347 8.42192593,28.5738776 C8.34451852,28.5657143 8.34696296,28.684898 8.42192593,28.6946939 C10.1045185,28.9159184 11.8742963,28.9314286 13.538963,28.5387755 C13.538963,29.0914286 13.5291852,29.6416327 13.5308148,30.1942857 C12.4031111,30.2285714 11.2705185,30.3338776 10.1460741,30.402449 C10.062963,30.4073469 10.0613333,30.5363265 10.1460741,30.5330612 C11.2705185,30.4881633 12.4063704,30.4808163 13.5308148,30.4016327 C13.5316296,30.84 13.5291852,31.277551 13.5316296,31.715102 C11.9476296,31.7142857 10.3546667,31.7632653 8.7722963,31.7926531 C8.70874074,31.7934694 8.70955556,31.8865306 8.7722963,31.8906122 C10.3342963,32 11.9574074,32.035102 13.5316296,31.9289796 C13.5340741,32.3477551 13.5308148,32.7665306 13.5340741,33.1853061 C12.3485185,33.2146939 11.1580741,33.32 9.97577778,33.3869388 C9.90977778,33.3910204 9.90896296,33.4930612 9.97577778,33.4897959 C11.1580741,33.4457143 12.3525926,33.4391837 13.5348889,33.357551 C13.5397778,33.9869388 13.5357037,34.6171429 13.5446667,35.2465306 C12.4128889,35.2718367 11.2754074,35.3804082 10.1477037,35.4473469 C10.0768148,35.4514286 10.0751852,35.562449 10.1477037,35.5591837 C11.2754074,35.5134694 12.4185926,35.5077551 13.5471111,35.4204082 C13.5552593,36.0163265 13.5601481,36.6130612 13.5723704,37.2081633 C12.201037,37.2073469 10.8345926,37.3126531 9.46,37.2897959 C9.39074074,37.2889796 9.39237037,37.3910204 9.46,37.3967347 C10.8011852,37.5053061 12.2401481,37.5640816 13.5748148,37.3559184 C13.5862222,37.9028571 13.5911111,38.4506122 13.6057778,38.9967347 C11.5874815,38.6636735 9.26037037,38.8914286 7.20866667,39.1142857 C7.20948148,39.1012245 7.216,39.0922449 7.216,39.0783673 C7.27711111,33.2946939 7.69674074,27.2873469 7.22903704,21.5281633 C7.19725926,21.1395918 6.72548148,21.1061224 6.59266667,21.4089796 C4.82696296,21.1812245 2.86896296,21.2310204 1.09266667,21.3265306 C1.37133333,19.3191837 1.32651852,17.0253061 0.816444444,15.0669388 C2.58948148,15.1877551 4.49859259,15.2383673 6.24474074,14.9477551 C6.4182963,14.9191837 6.49651852,14.8065306 6.50792593,14.6791837 C6.66762963,14.68 6.8362963,14.5738776 6.83466667,14.3836735 C6.8037037,10.6367347 6.12903704,6.51428571 9.14548148,3.62530612 C12.2727407,0.630204082 16.7884444,0.786938776 20.7647407,1.36 C20.7077037,1.60489796 20.6694074,1.87102041 20.627037,2.1322449 C19.2687407,1.93959184 17.8705185,1.90530612 16.5048889,1.80489796 C16.4079259,1.79755102 16.4103704,1.94530612 16.5048889,1.95510204 C17.8574815,2.09061224 19.2296296,2.29795918 20.5895556,2.34204082 C20.5194815,2.81959184 20.4665185,3.30857143 20.4461481,3.80408163 C17.7825185,3.44 15.0561481,3.43265306 12.3802963,3.59265306 C12.3126667,3.59673469 12.311037,3.70122449 12.3802963,3.69959184 C15.0895556,3.62204082 17.7466667,3.80489796 20.4396296,4.02612245 C20.4192593,4.86857143 20.4746667,5.70530612 20.6327407,6.44734694 C18.801037,6.25714286 15.95,6.07346939 14.4336296,7.46040816 Z" id="Shape"></path>
                        <path d="M20.2766667,5.97632653 C17.5405185,5.66204082 14.7897037,5.42612245 12.0454074,5.20081633 C11.9639259,5.19428571 11.9671852,5.31673469 12.0454074,5.32653061 C14.7831852,5.65387755 17.5299259,5.97306122 20.2766667,6.2122449 C20.429037,6.22612245 20.4241481,5.99346939 20.2766667,5.97632653 Z" id="Shape"></path>
                    </g>
                </g>
            </g>
        </g>
    </g>
</svg>