<?xml version="1.0" encoding="UTF-8"?>
<svg width="41px" height="29px" viewBox="0 0 41 29" version="1.1" xmlns="http://www.w3.org/2000/svg" xmlns:xlink="http://www.w3.org/1999/xlink">
    <!-- Generator: Sketch 43.2 (39069) - http://www.bohemiancoding.com/sketch -->
    <title>youtube-logo</title>
    <desc>Created with Sketch.</desc>
    <defs></defs>
    <g id="Page-1" stroke="none" stroke-width="1" fill="none" fill-rule="evenodd">
        <g id="Main" transform="translate(-685.000000, -4521.000000)" fill-rule="nonzero" fill="#1D1D1B">
            <g id="testimonials/footer" transform="translate(1.000000, 3909.000000)">
                <g id="social-icons" transform="translate(580.000000, 605.000000)">
                    <g id="youtube-logo" transform="translate(104.000000, 7.000000)">
                        <path d="M40.70562,6.66597222 C40.42272,4.524 38.89014,2.35705556 36.82374,1.80041667 C36.88196,1.65219444 36.83768,1.46691667 36.6417,1.43388889 C28.3966,0.058 19.50698,0.481722222 11.1807,0.901416667 C8.04338,1.05930556 -0.42886,0.706472222 0.72898,5.8 C-0.22304,10.4923611 -0.00246,15.63825 0.08938,20.3950556 C0.1435,23.2112778 0.5043,25.9928611 3.3784,27.318 C7.04954,29.0112778 12.36232,28.2234444 16.25732,28.2395556 C21.98502,28.2637222 27.7406,28.2435833 33.4601,27.9004167 C33.48634,27.9656667 33.51012,28.02125 33.55112,28.10825 C33.60442,28.2210278 33.784,28.1219444 33.7225,28.0099722 C33.702,27.9680833 33.67412,27.9310278 33.65034,27.89075 C33.70856,27.8875278 33.7676,27.8859167 33.82582,27.8818889 C33.95948,27.8738333 34.05788,27.8134167 34.12184,27.7320556 C36.74912,28.0156111 38.7819,26.7710278 39.67898,24.2319167 C40.48586,21.9481667 40.24314,18.9724444 40.38746,16.6113611 C40.58344,13.4020278 40.754,10.1894722 40.89996,6.97691667 C40.90734,6.81258333 40.82042,6.71108333 40.70562,6.66597222 Z M39.9996,9.32752778 C35.16324,8.86916667 30.27112,8.95133333 25.42984,9.28563889 C25.35522,9.29047222 25.35358,9.40486111 25.42984,9.40083333 C30.29982,9.16238889 35.11814,9.31302778 39.98156,9.55872222 C39.87988,10.83875 39.77984,12.1195833 39.68308,13.4004167 C36.9533,13.4527778 34.19892,13.6348333 31.47898,13.8571667 C31.42322,13.862 31.42158,13.9441667 31.47898,13.9441667 C34.19892,13.9119444 36.95002,13.8362222 39.66504,13.6348333 C39.6101,14.3598333 39.54696,15.0840278 39.49612,15.8090278 C39.49202,15.8646111 39.4912,15.9290556 39.48792,15.9854444 C35.95454,15.8766944 32.41378,15.9765833 28.88614,16.1860278 C28.77544,16.1924722 28.7738,16.3600278 28.88614,16.356 C32.41788,16.2150278 35.94224,16.2134167 39.47562,16.2440278 C39.42068,17.3718056 39.42724,18.7251389 39.33704,20.1058611 C33.94144,19.6595833 28.5278,19.9068889 23.1814,20.735 C23.12154,20.7446667 23.13466,20.8477778 23.19616,20.8405278 C28.5852,20.1670833 33.907,20.0438333 39.3231,20.3435 C39.28046,20.9226944 39.21896,21.5010833 39.12466,22.0641667 C34.62286,22.0118056 30.08416,22.29375 25.60778,22.7424444 C25.54136,22.7488889 25.5389,22.8495833 25.60778,22.8463611 C30.09974,22.5918056 34.58678,22.4605 39.0812,22.2881111 C38.97952,22.8383056 38.85406,23.3748056 38.67366,23.8726389 C38.65808,23.8299444 38.62774,23.7928889 38.56788,23.7912778 C33.10176,23.6543333 27.59464,23.8098056 22.1482,24.2883056 C22.09408,24.2931389 22.09162,24.3753056 22.1482,24.3728889 C27.62416,24.2005 33.08864,24.07725 38.56788,24.0377778 C38.58838,24.0377778 38.59822,24.0248889 38.6138,24.0184444 C37.92172,25.8116111 36.61464,27.1319167 34.08002,27.1826667 C34.01688,27.1303056 33.93652,27.09325 33.82664,27.0948611 C25.56924,27.2181111 17.32988,27.5129444 9.0692,27.2881944 C6.07374,27.2068333 2.55512,27.3453889 1.26444,23.5858611 C0.64616,21.7854444 0.99794,19.2825833 1.025,17.4120833 C1.07666,13.7524444 1.45714,10.005 1.13898,6.34938889 C1.21442,6.32280556 1.27674,6.26963889 1.26526,6.16894444 C0.46412,-0.772527778 30.69752,1.89547222 36.14888,1.99213889 C36.94346,2.60597222 37.75116,3.20933333 38.4088,3.9585 C34.85246,3.70555556 31.20182,3.88438889 27.66844,4.24205556 C27.58562,4.25011111 27.58234,4.37577778 27.66844,4.37094444 C31.33712,4.17761111 34.96808,4.22755556 38.63348,4.24044444 C38.71958,4.35 38.8147,4.45069444 38.89342,4.5675 C39.6511,5.69286111 39.93154,6.95113889 40.08242,8.26419444 C40.0529,8.61863889 40.02748,8.97308333 39.9996,9.32752778 Z" id="Shape"></path>
                        <path d="M27.56676,13.2207778 C24.94358,11.6974722 22.25398,10.2531111 19.53896,8.89575 C18.4992,8.37616667 16.2934,6.76022222 15.1085,7.49166667 C14.9281,7.60283333 14.9158,7.82677778 15.006,7.98063889 C14.432,8.64280556 14.7067,10.2265278 14.68866,10.86775 C14.60092,14.0029722 14.61896,17.1406111 14.57796,20.2758333 C14.57386,20.5980556 14.89612,20.7076111 15.12982,20.6141667 C15.19788,20.6858611 15.2971,20.7253333 15.41436,20.68425 C19.65786,19.2221667 23.5217,16.4228611 27.27976,14.0319722 C27.70944,14.0859444 28.0112,13.4793611 27.56676,13.2207778 Z M15.3709,20.0333611 C15.42502,17.9687222 15.49636,15.9048889 15.54884,13.8394444 C15.59148,12.1687222 15.21428,9.77783333 15.57262,8.11194444 C16.43116,8.10872222 18.42376,9.42580556 19.03958,9.73272222 C19.8563,10.1395278 20.67138,10.5503611 21.48072,10.9700556 C23.08546,11.8021944 24.66478,12.6794444 26.2605,13.5276944 C22.63856,15.7155833 19.08058,17.9856389 15.3709,20.0333611 Z" id="Shape"></path>
                        <path d="M37.36002,25.2606111 C28.31214,25.38225 19.25524,25.68675 10.21392,26.0234722 C10.11552,26.0275 10.1147,26.1765278 10.21392,26.1749167 C19.26016,26.0363611 28.31952,25.8655833 37.36002,25.5119444 C37.52402,25.5055 37.52484,25.2581944 37.36002,25.2606111 Z" id="Shape"></path>
                        <path d="M38.73926,18.2007222 C35.055,17.9928889 31.36336,17.9695278 27.675,18.0984167 C27.59382,18.1008333 27.59382,18.2232778 27.675,18.2224722 C31.36828,18.1789722 35.05008,18.2619444 38.73926,18.4383611 C38.89588,18.4456111 38.89424,18.2095833 38.73926,18.2007222 Z" id="Shape"></path>
                        <path d="M39.60272,11.4501667 C35.7602,11.1762778 31.87094,11.2221944 28.02104,11.2818056 C27.93658,11.2834167 27.93658,11.4106944 28.02104,11.4106944 C31.88406,11.4308333 35.74216,11.6136944 39.60272,11.6491389 C39.73474,11.65075 39.73146,11.4598333 39.60272,11.4501667 Z" id="Shape"></path>
                        <path d="M39.10498,6.90280556 C34.09068,6.06825 29.07146,6.06986111 24.04404,6.80291667 C23.98254,6.81177778 23.99648,6.91972222 24.0588,6.91166667 C29.0936,6.26963889 34.01606,6.38725 39.03118,7.16461111 C39.20502,7.192 39.28128,6.93180556 39.10498,6.90280556 Z" id="Shape"></path>
                    </g>
                </g>
            </g>
        </g>
    </g>
</svg>