<?xml version="1.0" encoding="UTF-8"?>
<svg width="40px" height="42px" viewBox="0 0 40 42" version="1.1" xmlns="http://www.w3.org/2000/svg" xmlns:xlink="http://www.w3.org/1999/xlink">
    <!-- Generator: Sketch 43.2 (39069) - http://www.bohemiancoding.com/sketch -->
    <title>google-plus-draw-logo</title>
    <desc>Created with Sketch.</desc>
    <defs></defs>
    <g id="Page-1" stroke="none" stroke-width="1" fill="none" fill-rule="evenodd">
        <g id="Main" transform="translate(-808.000000, -4514.000000)" fill-rule="nonzero" fill="#1D1D1B">
            <g id="testimonials/footer" transform="translate(1.000000, 3909.000000)">
                <g id="social-icons" transform="translate(580.000000, 605.000000)">
                    <g id="google-plus-draw-logo" transform="translate(227.000000, 0.000000)">
                        <path d="M25.5053061,27.4655294 C24.6277551,25.7690588 22.7959184,24.4975294 21.1526531,23.1634118 C21.1755102,23.1065882 21.1453061,23.0225882 21.0718367,23.0267059 C21.0457143,23.0283529 21.0204082,23.03 20.9942857,23.0316471 C19.7942857,22.0458824 18.715102,21.0181176 18.2179592,19.7523529 C18.3485714,17.6992941 21.3363265,16.5084706 22.602449,14.9627059 C23.4620408,13.9127059 24.1338776,12.6815294 24.3722449,11.3284706 C24.8604082,8.55729412 23.4710204,5.72270588 21.4685714,3.85905882 C22.5853061,3.97517647 23.7387755,3.87388235 24.7061224,3.25294118 C25.3142857,2.86258824 26.122449,2.01929412 26.0946939,1.21058824 C26.2995918,0.974235294 26.1918367,0.499058824 25.7812245,0.474352941 C18.9518367,0.0535294118 7.51510204,-1.77552941 4.12326531,6.29917647 C1.71265306,12.0375294 5.82857143,20.7916471 12.5591837,19.7367059 C11.804898,20.8427059 12.1289796,22.3283529 13.0204082,23.3157647 C7.6522449,23.2128235 1.91265306,25.6998824 0.664489796,31.4835294 C-0.543673469,37.086 3.78204082,41.02 8.98122449,41.6178824 C14.9036735,42.2997647 22.9110204,40.4484706 25.5526531,34.4490588 C26.5412245,32.2065882 26.6497959,29.6783529 25.5053061,27.4655294 Z M24.9355102,32.0591765 C24.0571429,32.0517647 23.1485714,32.2008235 22.2791837,32.2757647 C22.1746939,32.2848235 22.1722449,32.4487059 22.2791837,32.4429412 C23.1346939,32.3918824 24.037551,32.4034118 24.8930612,32.2782353 C24.7869388,32.7616471 24.6334694,33.2351765 24.4326531,33.6955294 C23.4212245,33.7572941 22.4432653,33.8701176 21.4187755,33.8157647 C21.3346939,33.8116471 21.3379592,33.9376471 21.4187755,33.9458824 C22.3542857,34.0471765 23.3902041,34.0875294 24.3371429,33.9104706 C24.1379592,34.3329412 23.9061224,34.7455294 23.6359184,35.1416471 C23.4171429,35.1729412 23.197551,35.2075294 22.9763265,35.2198824 C22.5706122,35.2437647 22.1681633,35.2289412 21.7632653,35.1968235 C21.6685714,35.1894118 21.6734694,35.3310588 21.7632653,35.3425882 C22.282449,35.4092941 22.8963265,35.4578824 23.4661224,35.3928235 C23.1714286,35.7988235 22.842449,36.1883529 22.482449,36.5589412 C21.4538776,36.5251765 20.357551,36.6923529 19.3518367,36.7705882 C19.2587755,36.778 19.2563265,36.9212941 19.3518367,36.918 C20.2726531,36.8858824 21.2808163,36.9221176 22.2269388,36.8158824 C21.717551,37.3075294 21.1608163,37.7654118 20.5567347,38.1738824 C19.2938776,38.2381176 18.0269388,38.4209412 16.7746939,38.5642353 C16.6979592,38.5732941 16.6955102,38.6935294 16.7746939,38.6877647 C17.9020408,38.6062353 19.0465306,38.5535294 20.1746939,38.4225882 C19.6065306,38.7791765 19.0081633,39.0978824 18.3853061,39.368 C15.9183673,39.2304706 13.3428571,39.3754118 10.917551,39.8176471 C10.8840816,39.8234118 10.8914286,39.8794118 10.9257143,39.8769412 C13.2742857,39.718 15.5991837,39.6092941 17.9461224,39.5491765 C17.4359184,39.7501176 16.9134694,39.9230588 16.3820408,40.0589412 C11.0661224,41.4161176 2.11183673,41.2324706 1.45306122,33.9071765 C0.804081633,26.6897647 8.3322449,24.1615294 14.1134694,24.1112941 C14.2881633,24.1887059 14.4693878,24.2554118 14.6595918,24.2974118 C14.917551,24.3542353 15.0971429,24.1952941 15.1493878,24.0017647 C15.2808163,23.8214118 15.1861224,23.4878824 14.8922449,23.4483529 C14.8342857,23.4401176 14.7746939,23.4376471 14.7159184,23.4310588 C13.0293878,22.7837647 12.7346939,21.1745882 13.2791837,19.5892941 C13.2865306,19.5876471 13.2930612,19.5868235 13.3004082,19.5843529 C13.4791837,19.5382353 13.4783673,19.3438824 13.3730612,19.2434118 C13.357551,19.1421176 13.2277551,19.0581176 13.1387755,19.1256471 C13.122449,19.138 13.1110204,19.152 13.0955102,19.1643529 C8.92244898,18.7097647 5.48979592,16.6402353 4.51510204,12.2318824 C3.55102041,7.87870588 5.81306122,3.77094118 9.87346939,2.17247059 C14.5297959,0.340117647 19.9861224,1.21635294 24.9412245,1.33 C24.9346939,1.34152941 24.9306122,1.35141176 24.9240816,1.36376471 C24.8253061,1.53505882 24.6955102,1.69070588 24.5526531,1.83564706 C24.5395918,1.83070588 24.5322449,1.82 24.515102,1.81917647 C22.2302041,1.77388235 19.915102,1.95917647 17.6326531,2.08517647 C17.5297959,2.09094118 17.5281633,2.24988235 17.6326531,2.24823529 C19.8465306,2.21941176 22.0946939,2.24 24.3028571,2.06047059 C24.1640816,2.17164706 24.0195918,2.27458824 23.8702041,2.35776471 C22.96,2.86258824 21.8742857,2.87494118 20.8653061,2.968 C20.6922449,2.98364706 20.5673469,3.11047059 20.5102041,3.25705882 C19.3787755,3.29411765 18.244898,3.40117647 17.1167347,3.48270588 C17.0342857,3.48847059 17.0326531,3.61694118 17.1167347,3.61282353 C18.2342857,3.56341176 19.3591837,3.53870588 20.475102,3.44811765 C20.4840816,3.57658824 20.5542857,3.69270588 20.7061224,3.74129412 C21.6293878,5.27223529 22.8530612,6.68047059 23.3355102,8.44282353 C22.1844898,8.39588235 21.0187755,8.45847059 19.8685714,8.48317647 C19.7853061,8.48482353 19.7853061,8.61164706 19.8685714,8.61329412 C21.0367347,8.63882353 22.2204082,8.70305882 23.3885714,8.652 C23.4808163,9.04894118 23.524898,9.43188235 23.5404082,9.80576471 C21.9812245,9.77694118 20.3910204,9.94 18.8367347,10.0445882 C18.7444898,10.0511765 18.7428571,10.1928235 18.8367347,10.1903529 C20.395102,10.1582353 21.995102,10.1812941 23.5469388,10.0157647 C23.5493878,10.6778824 23.4489796,11.3078824 23.2465306,11.8983529 C22.2277551,11.8275294 21.1893878,11.9230588 20.1861224,12.0836471 C20.0702041,12.1025882 20.1208163,12.2755294 20.2342857,12.2598824 C21.2179592,12.1231765 22.1812245,12.1174118 23.1632653,12.1297647 C23,12.5497647 22.7967347,12.9532941 22.5534694,13.3387059 C21.3167347,13.3691765 20.0710204,13.4647059 18.8391837,13.5561176 C18.7485714,13.5627059 18.7461224,13.7018824 18.8391837,13.7002353 C20.0212245,13.6755294 21.2155102,13.6516471 22.3983673,13.5750588 C21.8571429,14.3681176 21.1697959,15.0878824 20.4187755,15.7425882 C19.5469388,15.7738824 18.6612245,15.8875294 17.8057143,15.96 C17.717551,15.9674118 17.715102,16.1032941 17.8057143,16.1008235 C18.5510204,16.0752941 19.3216327,16.0736471 20.0808163,16.0283529 C20.0261224,16.0736471 19.9722449,16.1205882 19.9167347,16.1650588 C19.197551,16.7472941 18.4897959,17.2224706 18.0628571,17.8244706 C17.1746939,17.8467059 16.2726531,17.9578824 15.3959184,18.0361176 C15.2938776,18.0451765 15.2906122,18.2041176 15.3959184,18.1991765 C16.2179592,18.1654118 17.0677551,18.1588235 17.8987755,18.0822353 C17.7640816,18.3367059 17.677551,18.6158824 17.6620408,18.9354118 C17.5681633,18.9724706 17.4889796,19.0424706 17.4938776,19.1643529 C17.4995918,19.3068235 17.5208163,19.4435294 17.5420408,19.5794118 C16.7118367,19.6123529 15.8840816,19.6749412 15.0481633,19.6527059 C14.964898,19.6502353 14.9657143,19.7795294 15.0481633,19.7828235 C15.877551,19.8215294 16.7387755,19.852 17.5755102,19.7721176 C17.6808163,20.2596471 17.88,20.7084706 18.1453061,21.1276471 C16.8171429,21.3977647 15.5477551,21.5188235 14.1820408,21.3697647 C14.0979592,21.3607059 14.077551,21.5056471 14.1616327,21.5196471 C15.5093878,21.7461176 16.9436735,21.7098824 18.2644898,21.3195294 C18.7159184,21.9684706 19.3216327,22.5474118 19.9673469,23.0967059 C18.7314286,23.1782353 17.5028571,23.2556471 16.2555102,23.2391765 C16.1795918,23.2383529 16.1812245,23.3528235 16.2555102,23.3577647 C17.5632653,23.4376471 18.9118367,23.4524706 20.2269388,23.3157647 C20.8122449,23.8008235 21.4155102,24.2661176 21.9567347,24.7412941 C20.0563265,24.7404706 18.1534694,24.7478824 16.2546939,24.8005882 C16.1706122,24.8030588 16.1706122,24.9298824 16.2546939,24.9323529 C18.2465306,24.9883529 20.2432653,24.9941176 22.2359184,24.9924706 C22.3706122,25.1176471 22.5012245,25.2436471 22.6236735,25.3712941 C22.9191837,25.6792941 23.1730612,25.9897647 23.4089796,26.3018824 C22.28,26.2994118 21.0767347,26.4254118 20.0179592,26.6617647 C19.9461224,26.6774118 19.9632653,26.7902353 20.035102,26.7894118 C21.202449,26.7762353 22.4293878,26.6996471 23.6089796,26.5744706 C23.9885714,27.1147059 24.2938776,27.6590588 24.5159184,28.2034118 C23.2767347,28.1927059 21.9273469,28.322 20.7657143,28.6464706 C20.6995918,28.6645882 20.7281633,28.7584706 20.7934694,28.7477647 L20.9134694,28.728 C20.9616327,28.7197647 20.9493878,28.6415294 20.9020408,28.6423529 C21.0612245,28.7634118 21.2367347,28.784 21.4293878,28.7032941 C21.5379592,28.6909412 21.6465306,28.6785882 21.755102,28.6662353 C22.1355102,28.6250588 22.5167347,28.588 22.8987755,28.5583529 C23.4693878,28.5130588 24.042449,28.4965882 24.6138776,28.4595294 C24.8138776,29.008 24.9436735,29.5556471 25.002449,30.0975294 C23.8359184,30.1164706 22.6612245,30.2449412 21.4987755,30.3363529 C21.3518367,30.3487059 21.3477551,30.5784706 21.4987755,30.5710588 C21.7477551,30.5578824 21.9991837,30.5463529 22.2497959,30.5348235 C22.3142857,30.5545882 22.3779592,30.5776471 22.442449,30.6089412 C22.4930612,30.6311765 22.5379592,30.5595294 22.4865306,30.5323529 C22.4783673,30.5282353 22.4718367,30.5282353 22.4636735,30.5241176 C23.3216327,30.4845882 24.1812245,30.4434118 25.0302041,30.3437647 C25.0310204,30.3437647 25.0318367,30.3429412 25.0326531,30.3429412 C25.0726531,30.926 25.04,31.4983529 24.9355102,32.0591765 Z" id="Shape"></path>
                        <path d="M9.69632653,3.96858824 C9.54938776,3.74788235 9.21632653,3.66635294 9.06367347,3.97188235 C7.47428571,7.15482353 8.48489796,11.7904706 10.4506122,14.6415294 C12.1371429,17.0865882 15.4636735,18.0698824 17.517551,15.5185882 C21.1322449,11.0287059 15.035102,-0.202588235 9.69632653,3.96858824 Z M16.6873469,15.1323529 C13.682449,17.9792941 10.9714286,14.3747059 10.0171429,11.6924706 C9.2,9.394 8.71673469,6.96952941 9.63265306,4.64223529 C9.64653061,4.63647059 9.66122449,4.63482353 9.67510204,4.62494118 C14.7493878,1.27976471 20.3559184,11.6578824 16.6873469,15.1323529 Z" id="Shape"></path>
                        <path d="M21.3795918,31.878 C20.7787755,23.4310588 4.85061224,24.8244706 5.7322449,32.3317647 C5.7322449,32.3334118 5.73061224,32.3334118 5.73061224,32.3350588 C4.86612245,39.9675294 22.0285714,40.9961176 21.3795918,31.878 Z M20.4261224,33.3792941 C19.0261224,39.1687059 7.49795918,38.8829412 6.20408163,33.1734118 C6.24326531,33.1297647 6.26938776,33.0745882 6.25877551,33.0021176 C5.10857143,25.0789412 22.517551,24.7363529 20.4261224,33.3792941 Z" id="Shape"></path>
                        <path d="M38.8163265,15.5589412 C37.4187755,15.442 36.0081633,15.4971765 34.6497959,15.8471765 C34.7608163,14.5575294 34.8016327,13.3403529 35.1787755,12.0671765 C35.275102,11.7418824 35.0155102,11.4750588 34.7126531,11.4495294 C33.5673469,11.3531765 32.3763265,11.3301176 31.235102,11.4824706 C31.1208163,11.4981176 31.044898,11.5804706 31,11.6743529 C30.8563265,11.6875294 30.724898,11.7682353 30.7028571,11.9329412 C30.6065306,12.6543529 30.6236735,13.3782353 30.6546939,14.1045882 C30.6702041,14.476 30.6873469,14.8507059 30.72,15.2212941 C30.7346939,15.3909412 30.8106122,15.6882353 30.8244898,15.9023529 C29.3885714,15.8208235 27.8840816,15.9492941 26.4473469,15.9567059 C26.155102,15.9583529 26.0130612,16.2877647 26.1012245,16.5142353 C25.955102,16.9836471 25.9885714,17.5131765 26.0130612,17.9982353 C26.0416327,18.5532941 26.0620408,19.1750588 26.2963265,19.6881176 C26.1746939,19.8149412 26.2244898,20.0611765 26.4538776,20.0817647 C27.8677551,20.2085882 29.5738776,20.4309412 31.0236735,20.2341176 C30.8865306,21.9709412 31.0081633,23.7242353 31.1053061,25.4594118 C31.1183673,25.6941176 31.284898,25.8654118 31.52,25.8777647 C32.3755102,25.9230588 34.7804082,26.292 35.24,25.2230588 C35.5012245,24.6144706 35.36,23.7217647 35.3755102,23.0769412 C35.3991837,22.1068235 35.3918367,21.1350588 35.3926531,20.1649412 C36.5281633,20.3321176 37.9379592,19.9302353 38.9159184,19.5942353 C39.0432653,19.5505882 39.1036735,19.4591765 39.1159184,19.3628235 C39.2122449,19.292 39.2816327,19.1824706 39.2832653,19.0243529 C39.2906122,18.0295294 39.2938776,17.0347059 39.2946939,16.0398824 C39.2938776,15.764 39.0734694,15.5803529 38.8163265,15.5589412 Z M36.595102,19.2730588 C36.0032653,19.3010588 35.364898,19.1997647 34.8016327,19.3867059 C34.6146939,19.4484706 34.5102041,19.7062353 34.604898,19.8742353 C34.555102,19.9401176 34.5167347,20.0191765 34.5134694,20.1237647 C34.5093878,20.2374118 34.5077551,20.3518824 34.5044898,20.4655294 C34.4955102,20.4647059 34.4897959,20.4589412 34.4791837,20.4614118 C33.8522449,20.6047059 33.2473469,20.6845882 32.604898,20.6261176 C32.517551,20.6178824 32.5208163,20.7504706 32.604898,20.7611765 C33.2391837,20.8435294 33.8889796,20.8204706 34.5004082,20.6211765 C34.4881633,21.0881176 34.4767347,21.5550588 34.4644898,22.0211765 C34.0097959,22.0450588 33.5485714,22.1430588 33.1020408,22.2105882 C33.0130612,22.2237647 33.0326531,22.3818824 33.1232653,22.3711765 C33.5632653,22.3168235 34.0220408,22.2781176 34.4595918,22.1817647 C34.4457143,22.7063529 34.4236735,23.2309412 34.4187755,23.7563529 C33.9297959,23.7374118 33.4359184,23.7621176 32.9469388,23.7711765 C32.8759184,23.7728235 32.8759184,23.8807059 32.9469388,23.8823529 C33.435102,23.8914118 33.9273469,23.9152941 34.4155102,23.8971765 L34.4155102,23.9218824 C34.4106122,24.7684706 34.4873469,24.8961176 33.5738776,24.9875294 C33.0244898,25.0427059 32.475102,25.0517647 31.9240816,25.0451765 C31.8955102,23.3808235 31.8669388,21.7057647 31.6032653,20.0603529 C31.7330612,19.8874118 31.68,19.5752941 31.437551,19.5267059 C29.9983673,19.2335294 28.2318367,19.446 26.7379592,19.5876471 C26.8906122,19.0432941 26.8522449,18.424 26.8620408,17.8681176 C26.8685714,17.5115294 26.8873469,17.1508235 26.8465306,16.8016471 C28.2497959,17.0165882 29.8563265,17.0808235 31.1861224,16.6987059 C31.4285714,16.6287059 31.5004082,16.4137647 31.4489796,16.2251765 C31.4865306,16.184 31.5191837,16.1370588 31.5412245,16.0802353 C31.7583673,15.5045882 31.6318367,14.7115294 31.6114286,14.1070588 C31.5893878,13.4367059 31.5526531,12.7614118 31.4293878,12.1009412 C32.3061224,12.2845882 33.2155102,12.3751765 34.1134694,12.4089412 C34.0767347,12.5851765 34.0497959,12.768 34.0179592,12.9483529 C33.5314286,12.9112941 33.037551,12.9936471 32.5746939,13.1410588 C32.4653061,13.1756471 32.5110204,13.3485882 32.6220408,13.3156471 C33.08,13.1797647 33.5216327,13.1509412 33.9812245,13.1550588 C33.917551,13.5552941 33.8636735,13.9588235 33.8342857,14.364 C33.3093878,14.3524706 32.7820408,14.3656471 32.2571429,14.3788235 C32.1608163,14.3812941 32.1608163,14.5278824 32.2571429,14.5295294 C32.7771429,14.5427059 33.3004082,14.5558824 33.8212245,14.5443529 C33.8016327,14.8935294 33.7942857,15.2410588 33.8155102,15.5828235 C33.1828571,15.5556471 32.5444898,15.5828235 31.9126531,15.5943529 C31.8163265,15.596 31.8163265,15.7434118 31.9126531,15.7450588 C32.5493878,15.7565882 33.1934694,15.7837647 33.8310204,15.7557647 C33.8457143,15.9212941 33.8497959,16.0901176 33.8767347,16.2515294 C33.9093878,16.4450588 34.0432653,16.5224706 34.1877551,16.5224706 C34.1934694,16.5224706 34.195102,16.5274118 34.2,16.5274118 C35.5861224,16.5084706 36.9616327,16.45 38.3444898,16.5076471 C38.3493878,16.7637647 38.3559184,17.0198824 38.3616327,17.276 C36.2693878,17.3665882 34.1714286,17.5469412 32.0865306,17.7421176 C32.0146939,17.7487059 32.0122449,17.8590588 32.0865306,17.8565882 C34.1771429,17.7849412 36.2808163,17.696 38.3665306,17.5189412 C38.3722449,17.7783529 38.3779592,18.0377647 38.3836735,18.2971765 C36.235102,18.2988235 34.0432653,18.5467059 31.9110204,18.7278824 C31.835102,18.7344706 31.8326531,18.8522353 31.9110204,18.8497647 C34.0497959,18.7822353 36.2530612,18.7715294 38.3885714,18.5252941 C38.3926531,18.6932941 38.395102,18.8604706 38.4,19.0284706 C38.4008163,19.0498824 38.4097959,19.0655294 38.4130612,19.0852941 C37.8122449,19.1717647 37.204898,19.2442353 36.595102,19.2730588 Z" id="Shape"></path>
                        <path d="M22.6244898,7.02223529 C20.9787755,6.82705882 19.2873469,6.80729412 17.6310204,6.74058824 C17.5493878,6.73729412 17.5510204,6.86082353 17.6310204,6.86741176 C19.2832653,7.00494118 20.9665306,7.19352941 22.6244898,7.20094118 C22.7420408,7.20176471 22.7355102,7.03541176 22.6244898,7.02223529 Z" id="Shape"></path>
                        <path d="M21.4171429,5.15941176 C20.4579592,5.06388235 19.4546939,5.15776471 18.4914286,5.17258824 C18.3942857,5.17423529 18.3934694,5.32411765 18.4914286,5.32576471 C19.4546939,5.34058824 20.4587755,5.43447059 21.4171429,5.33894118 C21.5306122,5.32741176 21.5314286,5.17094118 21.4171429,5.15941176 Z" id="Shape"></path>
                    </g>
                </g>
            </g>
        </g>
    </g>
</svg>