<?xml version="1.0" encoding="UTF-8"?>
<svg width="40px" height="40px" viewBox="0 0 40 40" version="1.1" xmlns="http://www.w3.org/2000/svg" xmlns:xlink="http://www.w3.org/1999/xlink">
    <!-- Generator: Sketch 43.2 (39069) - http://www.bohemiancoding.com/sketch -->
    <title>instagram-draw-logo</title>
    <desc>Created with Sketch.</desc>
    <defs></defs>
    <g id="Page-1" stroke="none" stroke-width="1" fill="none" fill-rule="evenodd">
        <g id="Main" transform="translate(-747.000000, -4515.000000)" fill-rule="nonzero" fill="#1D1D1B">
            <g id="testimonials/footer" transform="translate(1.000000, 3909.000000)">
                <g id="social-icons" transform="translate(580.000000, 605.000000)">
                    <g id="instagram-draw-logo" transform="translate(166.000000, 1.000000)">
                        <path d="M39.2752,4.9384 C39.2744,4.9248 39.268,4.9144 39.2648,4.9016 C39.3608,4.8336 39.4208,4.7168 39.3816,4.5664 C38.6336,1.6704 36.6856,0.4384 33.7688,0.2016 C28.3576,-0.2376 22.6688,0.3784 17.2408,0.488 C12.9808,0.5744 7.4808,-0.2048 3.3784,1.0776 C1.86,1.5528 0.8184,2.52 0.5824,3.876 C0.4384,3.844 0.268,3.9208 0.2648,4.1144 C0.1744,10.8792 0.228,17.6608 0.2744,24.4272 C0.3008,28.2864 -1.0872,34.6744 2.1376,37.6424 C5.2184,40.4776 10.7696,39.4536 14.4944,39.3944 C20.8968,39.292 27.2872,39.3472 33.684,39.1 C33.7024,39.116 33.7248,39.1288 33.7544,39.1304 C36.9416,39.2944 38.2744,37.8808 38.856,35.8368 C38.8944,35.836 38.932,35.8352 38.9704,35.8344 C39.092,35.832 39.092,35.644 38.9704,35.6456 C38.948,35.6456 38.9256,35.6464 38.9024,35.6472 C39.024,35.176 39.1016,34.668 39.1632,34.1464 C39.2136,34.1352 39.2048,34.0832 39.172,34.0536 C39.3048,32.8648 39.3264,31.5856 39.3664,30.3256 C39.636,21.8128 39.9224,13.4424 39.2752,4.9384 Z M35.7672,19.5376 C36.8944,19.6128 38.0496,19.7544 39.1816,19.736 C39.1816,20.62 39.1848,21.5056 39.1808,22.3872 C39.1688,25.0288 39.1448,27.6864 39.0456,30.3256 C39.0168,31.1016 39.0784,32.7328 38.9864,34.0312 C37.5232,34.036 36.0504,34.1904 34.5864,34.2296 C34.5264,34.2312 34.5264,34.3216 34.5864,34.3224 C36.0344,34.3352 37.5368,34.3656 38.9768,34.1696 C38.928,34.7712 38.8432,35.2888 38.696,35.5968 C38.6864,35.6168 38.6744,35.6328 38.6648,35.652 C33.7032,35.7144 28.7464,35.892 23.792,36.156 C23.7336,36.1592 23.7328,36.2496 23.792,36.2472 C28.7112,36.0608 33.632,35.9384 38.5544,35.8456 C37.664,37.452 36.0656,38.196 34.4384,38.7 C29.3336,38.5992 24.2408,38.6448 19.1336,38.7688 C16.556,38.8312 13.9824,38.8392 11.4048,38.8496 C9.0536,38.8592 5.292,39.312 3.3616,37.6624 C-0.6768,34.2112 1.0184,25.2592 0.9696,20.5224 C0.916,15.46 0.908,10.3912 0.8024,5.3312 C0.8616,5.3096 0.9136,5.2656 0.9136,5.192 C0.9064,-0.784 15.104,1.1736 18.7616,1.1232 C22.6576,1.0696 32.9648,-0.548 37.1408,2.5384 C33.1792,1.7672 29.156,1.7056 25.1336,2.1688 C25.0488,2.1784 25.0472,2.3128 25.1336,2.304 C29.32,1.872 33.396,2.128 37.5176,2.844 C38.0208,3.296 38.4144,3.8304 38.656,4.472 C37.4832,4.3176 36.2664,4.3416 35.0928,4.432 C35.0048,4.4384 35.0032,4.5736 35.0928,4.5704 C36.3112,4.5256 37.508,4.5992 38.7224,4.6496 C38.7328,4.6808 38.7472,4.708 38.756,4.7392 C38.768,4.7792 38.788,4.8096 38.8088,4.8392 C38.7984,4.868 38.7928,4.9008 38.7952,4.9384 C38.8232,5.3824 38.8368,5.8288 38.86,6.2736 C37.6064,6.1384 36.3128,6.2424 35.0688,6.412 C34.988,6.4232 35.0064,6.5664 35.088,6.556 C36.3544,6.4032 37.5976,6.4184 38.8672,6.4192 C38.9112,7.2792 38.96,8.1376 38.9928,8.9992 C38.9848,8.9952 38.9792,8.988 38.9688,8.9864 C37.856,8.8568 36.716,8.8592 35.5968,8.8088 C35.5136,8.8048 35.5152,8.9312 35.5968,8.9368 C36.7144,9.0136 37.848,9.1456 38.9688,9.1432 C38.9816,9.1432 38.988,9.136 38.9976,9.132 C39.0864,11.4488 39.1392,13.7704 39.1624,16.0912 C36.016,15.3464 32.7352,15.2232 29.5256,15.5528 C29.4376,15.5616 29.4352,15.7 29.5256,15.6928 C32.8016,15.4424 35.936,15.6936 39.1632,16.272 C39.1736,17.376 39.18,18.48 39.1808,19.5832 C38.0576,19.4432 36.896,19.4536 35.7664,19.4048 C35.6824,19.4024 35.6832,19.532 35.7672,19.5376 Z" id="Shape"></path>
                        <path d="M17.2408,12.4504 C17.1624,12.4232 17.0744,12.4136 16.9696,12.4496 C7.6528,15.6048 13.0864,32 22.8112,28.3072 C32.3968,24.6664 26.4896,8.2888 17.2408,12.4504 Z M22.4288,27.212 C14.0056,30.444 8.9776,16.4392 17.212,13.328 C17.4056,13.2552 17.4984,13.096 17.516,12.932 C21.6752,12.1504 25.4944,14.1352 26.652,18.4176 C27.6112,21.9656 25.9136,25.8744 22.4288,27.212 Z" id="Shape"></path>
                        <path d="M34.5976,7.2288 C34.568,6.4344 34.5904,5.5216 33.8248,5.0624 C33.2896,4.7416 32.5392,4.844 31.9584,4.8304 C31.1096,4.8112 30.2632,4.7584 29.4152,4.7312 C28.4552,4.7008 27.5872,4.648 26.9944,5.4856 C26.8864,5.6376 26.9424,5.8048 27.0568,5.9168 C26.9568,7.7096 27.0008,9.5784 27.1768,11.3648 C27.2568,12.1776 27.3728,12.6168 28.2136,12.816 C29.6832,13.164 31.5688,12.9912 33.0608,12.8768 C33.7888,12.8216 34.284,12.7208 34.4952,11.9632 C34.8816,10.5816 34.6504,8.652 34.5976,7.2288 Z M33.6264,11.6696 C33.1984,12.2928 31.308,12.0552 30.6688,12.0584 C30.3144,12.06 29.9592,12.0592 29.6048,12.0536 C28.8256,12.0408 28.7072,12.172 28.2576,11.548 C27.6936,10.7648 27.888,9.3928 27.8096,8.4464 C27.7408,7.6192 27.6512,6.7904 27.5208,5.9704 C27.5376,5.9568 27.556,5.9496 27.5712,5.9312 C28.1648,5.2208 29.7616,5.484 30.5456,5.4832 C31.3192,5.4816 33.2352,5.1992 33.6728,6.0568 C33.9912,6.6816 33.7176,8.1808 33.7064,8.8952 C33.6984,9.4304 33.9384,11.216 33.6264,11.6696 Z" id="Shape"></path>
                        <path d="M38.8016,22.2928 C37.8024,22.1888 36.7832,22.176 35.7752,22.1504 C35.7592,20.5288 35.684,18.9336 35.5288,17.4232 C35.5064,17.2064 35.3376,17.092 35.1656,17.0728 C35.12,16.9664 35.0392,16.8728 34.928,16.8296 C33.8288,16.3968 32.4864,16.6424 31.3832,16.9352 C31.3568,16.9424 31.3384,16.9576 31.316,16.9688 C31.1096,17.0048 30.9192,17.1496 30.904,17.416 C30.4784,24.608 26.4632,32.2896 18.1208,30.9272 C10.924,29.7512 9.628,22.804 8.7128,16.8088 C8.6744,16.556 8.236,16.5536 8.2,16.8088 C8.1984,16.8184 8.1984,16.828 8.1976,16.8368 C7.3056,16.4432 6.0912,16.5328 5.1,16.7728 C4.9928,16.7312 4.86,16.7632 4.7768,16.86 C4.728,16.8744 4.6752,16.8872 4.628,16.9016 C4.4696,16.9512 4.4344,17.2312 4.628,17.26 C4.644,17.2624 4.6616,17.2648 4.6768,17.2672 C4.0528,22.3304 4.0696,27.816 4.6064,32.8776 C4.6152,32.9616 4.6528,33.0248 4.7024,33.0712 C4.8816,36.0792 9.636,35.296 11.7376,35.2736 C18.5904,35.2024 25.4744,35.556 32.3208,35.2152 C32.4328,35.2096 32.516,35.1648 32.5776,35.1032 C34.0896,34.832 34.6944,34.1512 34.9824,32.476 C35.5296,29.2944 35.8016,25.7264 35.776,22.28 C36.7816,22.3544 37.7968,22.444 38.8008,22.44 C38.8984,22.4392 38.8944,22.3024 38.8016,22.2928 Z M34.6264,25.4952 C34.4272,27.9912 35.0464,32.9776 32.4256,34.4712 C32.392,34.4616 32.3608,34.4488 32.3216,34.4472 C28.108,34.2888 23.8712,34.4544 19.6552,34.5152 C17.28,34.5488 6.6736,35.9496 5.1848,32.9048 C5.1856,32.8944 5.1904,32.8872 5.1904,32.876 C5.2112,27.7056 5.2776,22.5112 5.2536,17.3416 C6.2088,17.4568 7.3272,17.5136 8.1624,17.2272 C7.472,23.6888 11.668,31.3176 18.5992,31.9888 C27.3968,32.8408 31.3248,25.4224 31.8448,17.7152 C32.8224,17.6952 33.8376,17.7696 34.7928,17.6024 C35.056,20.2568 34.8384,22.8416 34.6264,25.4952 Z" id="Shape"></path>
                        <path d="M37.1112,37.1872 C29.8064,37.4848 22.492,37.5832 15.1896,37.9024 C15.124,37.9056 15.1232,38.0048 15.1896,38.0056 C22.4904,38.0448 29.8184,37.6944 37.1112,37.3792 C37.2344,37.3736 37.2352,37.1816 37.1112,37.1872 Z" id="Shape"></path>
                        <path d="M38.8072,32.0104 C37.628,32 36.4344,32.1312 35.2568,32.2072 C35.188,32.212 35.1872,32.3176 35.2568,32.3152 C36.4352,32.2696 37.6352,32.2784 38.8072,32.1472 C38.8928,32.1376 38.8976,32.0112 38.8072,32.0104 Z" id="Shape"></path>
                        <path d="M38.9912,29.8784 C37.8944,29.6312 36.712,29.6464 35.5976,29.7304 C35.5216,29.736 35.52,29.8536 35.5976,29.8504 C36.7408,29.8032 37.836,29.9296 38.9712,30.028 C39.056,30.0352 39.0744,29.8976 38.9912,29.8784 Z" id="Shape"></path>
                        <path d="M38.9704,27.1864 C37.9096,27.112 36.8288,27.1792 35.7656,27.1888 C35.6808,27.1896 35.6808,27.3192 35.7656,27.32 C36.8288,27.3304 37.9096,27.3968 38.9704,27.3224 C39.0584,27.3176 39.0584,27.1928 38.9704,27.1864 Z" id="Shape"></path>
                        <path d="M38.8128,24.8536 C37.8784,24.5656 36.8592,24.5928 35.9176,24.8296 C35.8728,24.8408 35.892,24.9072 35.936,24.8976 C36.9184,24.7008 37.8064,24.7632 38.7776,24.9784 C38.86,24.9968 38.8928,24.8784 38.8128,24.8536 Z" id="Shape"></path>
                        <path d="M38.9968,17.708 C38.0112,17.4192 36.9016,17.4736 35.912,17.716 C35.8464,17.732 35.8752,17.8256 35.9392,17.8152 C36.9864,17.6424 37.9344,17.7 38.9808,17.8256 C39.0496,17.8336 39.0592,17.7264 38.9968,17.708 Z" id="Shape"></path>
                        <path d="M38.9712,13.676 C35.6688,13.3008 32.3008,13.4984 29.016,13.9456 C28.9712,13.952 28.9816,14.0304 29.0264,14.0256 C32.36,13.648 35.6272,13.6952 38.9704,13.8424 C39.0792,13.8464 39.0744,13.688 38.9712,13.676 Z" id="Shape"></path>
                        <path d="M38.9696,11.312 C37.5592,11.4264 36.1712,11.5424 34.7544,11.52 C34.692,11.5192 34.6928,11.6128 34.7544,11.616 C36.16,11.6856 37.5968,11.6816 38.9912,11.468 C39.0784,11.4544 39.0584,11.3048 38.9696,11.312 Z" id="Shape"></path>
                    </g>
                </g>
            </g>
        </g>
    </g>
</svg>