<?xml version="1.0" encoding="UTF-8"?>
<svg width="40px" height="33px" viewBox="0 0 40 33" version="1.1" xmlns="http://www.w3.org/2000/svg" xmlns:xlink="http://www.w3.org/1999/xlink">
    <!-- Generator: Sketch 43.2 (39069) - http://www.bohemiancoding.com/sketch -->
    <title>twitter-draw-logo</title>
    <desc>Created with Sketch.</desc>
    <defs></defs>
    <g id="Page-1" stroke="none" stroke-width="1" fill="none" fill-rule="evenodd">
        <g id="Main" transform="translate(-624.000000, -4519.000000)" fill-rule="nonzero" fill="#1D1D1B">
            <g id="testimonials/footer" transform="translate(1.000000, 3909.000000)">
                <g id="social-icons" transform="translate(580.000000, 605.000000)">
                    <g id="twitter-draw-logo" transform="translate(43.000000, 5.000000)">
                        <path d="M39.3513725,4.048 C38.0423529,4.01264286 36.7913725,4.23735714 35.6109804,4.74885714 C35.7019608,4.5925 35.7811765,4.42907143 35.8658824,4.26878571 C35.9796078,4.26957143 36.0321569,4.13757143 35.9701961,4.07235714 C36.4901961,3.04857143 36.9176471,1.96742857 37.5003922,0.982928571 C37.6266667,0.769214286 37.4188235,0.550785714 37.2,0.590857143 C36.2039216,0.7755 35.254902,1.12828571 34.3113725,1.48971429 C33.6227451,1.75292857 32.8494118,1.97921429 32.2611765,2.43492857 C32.2533333,2.4255 32.2494118,2.41528571 32.2392157,2.40664286 C26.9592157,-2.22985714 16.8705882,2.01221429 19.227451,9.548 C19.212549,9.54485714 19.2015686,9.537 19.1858824,9.53464286 C13.2643137,8.76307143 8.63529412,6.48214286 4.46117647,2.19057143 C4.25647059,1.97921429 3.89647059,2.17642857 3.89411765,2.42 C3.77098039,2.37207143 3.62980392,2.398 3.54823529,2.56064286 C2.34196078,4.97435714 2.30509804,9.68314286 4.57803922,11.6670714 C4.48313725,11.6662857 4.38823529,11.6662857 4.29254902,11.66 C3.78588235,11.6293571 3.30431373,11.5264286 2.8054902,11.4549286 C2.51058824,11.4125 2.25882353,11.7998571 2.51686275,11.9868571 C2.46901961,12.0324286 2.4345098,12.0952857 2.42745098,12.1754286 C2.20941176,14.7565 4.12470588,17.9661429 6.50431373,19.3010714 C6.37098039,19.316 6.23843137,19.3301429 6.10588235,19.338 C5.5427451,19.371 4.97803922,19.3733571 4.41568627,19.4063571 C4.17411765,19.4205 4.04784314,19.6852857 4.11686275,19.8730714 C4.08313725,19.9390714 4.07294118,20.0207857 4.10431373,20.1142857 C4.6,21.5914286 5.82431373,22.7888571 7.04705882,23.7010714 C7.87607843,24.3202143 9.09960784,25.3125714 10.2564706,25.5082143 C8.98196078,25.8704286 7.77411765,26.3968571 6.45568627,26.6404286 C4.82196078,26.9421429 3.1945098,26.9303571 1.54196078,26.8525714 C1.37647059,26.8447143 1.30745098,27.016 1.34823529,27.1472143 C1.25960784,27.0827857 1.1654902,27.0246429 1.07843137,26.9586429 C0.88627451,26.8132857 0.687843137,27.115 0.832941176,27.2776429 C5.73882353,32.7776429 16.892549,33.5193571 23.294902,30.6931429 C28.8329412,28.2495714 32.4290196,23.6075714 34.2752941,18.2128571 C34.3129412,18.1853571 34.3247059,18.1429286 34.3129412,18.0989286 C35.2980392,15.1752857 35.7803922,12.0387143 35.7623529,8.9045 C35.7615686,8.79135714 35.7215686,8.70492857 35.6690196,8.63264286 C36.4345098,8.27357143 37.1286275,7.61278571 37.7152941,7.04314286 C38.4588235,6.32185714 39.1160784,5.52592857 39.7137255,4.68128571 C39.9082353,4.40942857 39.6462745,4.05585714 39.3513725,4.048 Z M37.1607843,6.30771429 C33.4337255,6.0775 29.6768627,6.12071429 25.9482353,6.2315 C25.8705882,6.23385714 25.8705882,6.3525 25.9482353,6.3525 C29.6070588,6.33835714 33.2580392,6.468 36.9137255,6.53164286 C36.3058824,7.05885714 35.5827451,7.50435714 35.0533333,8.096 C31.1388235,8.01428571 27.2109804,8.16357143 23.3027451,8.36471429 C23.2447059,8.36785714 23.2439216,8.45742857 23.3027451,8.45585714 C27.1788235,8.3545 31.0517647,8.37414286 34.9270588,8.338 C34.9184314,8.40714286 34.9254902,8.47864286 34.9482353,8.54385714 C34.8501961,8.62242857 34.7835294,8.74185714 34.7882353,8.90685714 C34.8180392,9.944 34.7764706,10.9787857 34.6831373,12.0065 C33.5082353,12.0630714 30.1278431,11.7519286 29.5866667,11.7597857 C27.5435294,11.7880714 25.4964706,11.8847143 23.4698039,12.1534286 C23.4023529,12.1620714 23.3976471,12.2665714 23.4698039,12.2626429 C26.0956863,12.1251429 28.7058824,11.9522857 31.3372549,11.9978571 C32.012549,12.0096429 33.7011765,12.3828571 34.6635294,12.2029286 C34.6031373,12.8173571 34.5286275,13.4294286 34.4266667,14.036 C34.4109804,14.0281429 34.4007843,14.0155714 34.3796078,14.0155714 C31.8996078,13.992 29.4180392,14.0187143 26.9380392,14.0344286 C26.852549,14.0352143 26.852549,14.1656429 26.9380392,14.1672143 C29.4180392,14.2065 31.8996078,14.2575714 34.3796078,14.2575714 C34.3866667,14.2575714 34.3890196,14.2520714 34.3952941,14.2505 C34.2870588,14.8641429 34.1592157,15.4722857 34.0078431,16.0733571 C30.4243137,15.5720714 26.7396078,15.5909286 23.1341176,15.7826429 C23.067451,15.7857857 23.0666667,15.8887143 23.1341176,15.8871429 C26.7670588,15.7865714 30.3380392,16.0301429 33.9576471,16.2603571 C33.8047059,16.8465 33.6376471,17.4279286 33.4431373,17.9983571 C31.1670588,17.9370714 28.8690196,18.0863571 26.6094118,18.3016429 C26.5286275,18.3095 26.5262745,18.4344286 26.6094118,18.4289286 C28.8603922,18.2882857 31.1019608,18.2827857 33.3513725,18.2537143 C33.1019608,18.9592857 32.8305882,19.6546429 32.5168627,20.328 C29.0031373,20.3947857 25.4886275,20.4678571 21.9756863,20.5762857 C21.9003922,20.5786429 21.8996078,20.6941429 21.9756863,20.6941429 C25.4501961,20.6823571 28.9254902,20.636 32.4,20.5825714 C32.1678431,21.0642143 31.9207843,21.538 31.654902,21.9992143 C31.6392157,21.9732857 31.614902,21.9528571 31.572549,21.9536429 C28.8713725,22.0078571 26.1560784,22.3245 23.4627451,22.5413571 C23.3780392,22.5484286 23.3756863,22.6804286 23.4627451,22.6757143 C26.1552941,22.528 28.8831373,22.4737857 31.5623529,22.1657857 C31.1247059,22.9090714 30.6580392,23.6342857 30.1286275,24.3131429 C30.1121569,24.3052857 30.1003922,24.2919286 30.0776471,24.2927143 C26.3301961,24.3830714 22.5827451,24.4545714 18.8337255,24.5048571 C18.7513725,24.5056429 18.7513725,24.6313571 18.8337255,24.6321429 C22.5301961,24.6769286 26.227451,24.6541429 29.9223529,24.5637857 C29.2,25.4595 28.4007843,26.2955 27.5129412,27.0497857 C27.5254902,26.9979286 27.5011765,26.9374286 27.4305882,26.9335 C24.5843137,26.7535714 21.6713725,26.9932143 18.8384314,27.2792143 C18.7741176,27.2855 18.7717647,27.3868571 18.8384314,27.3821429 C21.7027451,27.1888571 24.5592157,27.225 27.4243137,27.1212857 C26.7670588,27.6720714 26.0721569,28.1867143 25.3247059,28.6479286 C25.3098039,28.6361429 25.2956863,28.6227857 25.2729412,28.6212143 C21.5482353,28.2794286 17.7756863,28.3014286 14.0462745,28.5418571 C13.9890196,28.5457857 13.9882353,28.633 14.0462745,28.6314286 C17.7239216,28.5261429 21.3670588,28.6345714 25.0384314,28.8192143 C24.36,29.2207143 23.6572549,29.5962857 22.905098,29.9160714 C19.3552941,29.7306429 15.7733333,29.8115714 12.2196078,29.8107857 C12.1388235,29.8107857 12.1388235,29.9349286 12.2196078,29.9365 C15.6235294,30.0245 19.0509804,30.1832143 22.4580392,30.1140714 C22.4384314,30.1219286 22.4211765,30.1313571 22.4015686,30.1392143 C15.9607843,32.6511429 7.21647059,31.2887143 1.56235294,27.3012143 C4.50117647,27.9455 8.41647059,27.6359286 10.8329412,25.6991429 C10.8933333,25.6512143 10.8941176,25.5875714 10.8737255,25.5294286 C10.9270588,25.5231429 10.9827451,25.5294286 11.0360784,25.5176429 C11.2007843,25.4822857 11.1945098,25.2292857 11.0360784,25.19 C9.92235294,24.915 8.58196078,23.7238571 7.66509804,23.0457857 C6.52,22.1995714 5.71215686,21.2787143 4.93098039,20.1362857 C5.32078431,20.1810714 5.71294118,20.207 6.10509804,20.1975714 C6.65098039,20.1842143 7.23529412,20.1967857 7.72313725,19.9312143 C7.85411765,19.8597143 7.90352941,19.7127857 7.88392157,19.5768571 C7.92784314,19.4770714 7.92941176,19.3607857 7.83137255,19.2775 C6.6745098,18.2945714 5.50823529,17.5057143 4.64470588,16.2187143 C3.78901961,14.9442857 3.45647059,13.607 2.99607843,12.1809286 C3.32705882,12.2917143 3.66823529,12.3757857 4.01019608,12.4197857 C4.46980392,12.4787143 5.06823529,12.5565 5.4627451,12.2752143 C5.60627451,12.1722857 5.64627451,11.9389286 5.48470588,11.8312857 C5.47529412,11.8155714 5.47843137,11.7990714 5.46431373,11.7841429 C3.15843137,9.40342857 3.66823529,5.75692857 4.12862745,2.81364286 C7.67921569,7.31657143 13.4415686,10.2700714 19.1843137,10.3486429 C19.4705882,10.3525714 19.5898039,10.1404286 19.5662745,9.93142857 C19.7035294,9.91257143 19.8282353,9.79314286 19.7945098,9.60928571 C19.2447059,6.5945 20.4839216,3.45242857 23.2572549,1.9635 C25.4447059,0.788857143 27.9411765,1.12357143 30.1592157,2.01378571 C28.9192157,2.06407143 27.6784314,2.13007143 26.4415686,2.20157143 C26.3568627,2.20628571 26.3560784,2.33592857 26.4415686,2.33435714 C27.8352941,2.30607143 29.2321569,2.2715 30.6258824,2.211 C31.065098,2.40585714 31.492549,2.618 31.9011765,2.84507143 C31.972549,2.88514286 32.0470588,2.88514286 32.1137255,2.86314286 C32.1592157,2.91735714 32.2172549,2.96057143 32.292549,2.96135714 C33.1772549,2.97078571 34.0760784,2.50957143 34.8964706,2.20235714 C35.4980392,1.97685714 36.0933333,1.74507143 36.6698039,1.46771429 C36.2384314,2.30685714 35.7419608,3.1185 35.3239216,3.96392857 C32.8501961,3.65907143 30.374902,3.74707143 27.9262745,4.25071429 C27.8556863,4.26564286 27.8862745,4.36935714 27.9560784,4.35757143 C30.3968627,3.96314286 32.7717647,3.9215 35.2070588,4.20828571 C35.0815686,4.47542857 34.9607843,4.74571429 34.8596078,5.02307143 C34.8454902,5.06157143 34.8415686,5.09692857 34.8439216,5.12914286 C34.6776471,5.30514286 34.8439216,5.66657143 35.1090196,5.57228571 C36.2015686,5.18257143 37.3192157,4.9445 38.4658824,4.89814286 C38.0572549,5.39 37.6266667,5.86535714 37.1607843,6.30771429 Z" id="Shape"></path>
                        <path d="M34.545098,10.2559286 C31.8996078,10.263 29.2533333,10.2857857 26.6078431,10.3227143 C26.5443137,10.3235 26.5435294,10.4209286 26.6078431,10.4225 C29.2533333,10.4594286 31.8996078,10.4822143 34.545098,10.4892857 C34.6956863,10.4900714 34.6956863,10.2559286 34.545098,10.2559286 Z" id="Shape"></path>
                    </g>
                </g>
            </g>
        </g>
    </g>
</svg>