<?xml version="1.0" encoding="UTF-8"?>
<svg width="1439px" height="41px" viewBox="0 0 1439 41" version="1.1" xmlns="http://www.w3.org/2000/svg" xmlns:xlink="http://www.w3.org/1999/xlink">
    <!-- Generator: Sketch 43.2 (39069) - http://www.bohemiancoding.com/sketch -->
    <title>paintbrush copy 4</title>
    <desc>Created with Sketch.</desc>
    <defs>
        <polygon id="path-1" points="1.32658694 2.80627059 1.32658694 0.153152941 0.843311316 0.153152941 0.843311316 2.80627059 1.32658694 2.80627059"></polygon>
        <polygon id="path-3" points="1.79786055e-20 0.119329412 1.79786055e-20 44.6463968 1440.67315 44.6463968 1440.67315 0.119329412 0 0.119329412"></polygon>
    </defs>
    <g id="Page-1" stroke="none" stroke-width="1" fill="none" fill-rule="evenodd">
        <g id="Main" transform="translate(-1.000000, -3927.000000)">
            <g id="paintbrush-copy-4" transform="translate(721.000000, 3945.000000) rotate(-180.000000) translate(-721.000000, -3945.000000) translate(0.000000, 3922.000000)">
                <path d="M25.6689266,38.2358765 C25.7073976,37.8029353 25.651681,37.5282882 25.6649468,37.1521706 C25.3903433,37.7650529 25.3054418,38.1993471 25.6689266,38.2358765" id="Fill-1" fill="#FFFFFF"></path>
                <path d="M148.882852,35.3081118 C147.995365,33.5952882 147.442178,31.7092882 147.009711,29.8381706 C147.63586,34.1662294 141.679485,35.7099353 148.882852,35.3081118" id="Fill-3" fill="#FFFFFF"></path>
                <path d="M972.668002,40.2600118 L966.226095,39.3616588 C968.026274,39.9488353 970.369026,40.2600118 972.668002,40.2600118" id="Fill-5" fill="#FFFFFF"></path>
                <path d="M439.744732,34.4412824 L438.265587,35.1705176 C438.83602,35.3085176 439.360022,35.1339882 439.744732,34.4412824" id="Fill-7" fill="#FFFFFF"></path>
                <path d="M947.109182,40.2600118 C945.960357,38.1142471 944.742551,36.8668353 943.48362,36.0537176 C943.215649,36.5286 942.911861,36.9196 942.734098,37.6231294 L947.109182,40.2600118 Z" id="Fill-9" fill="#FFFFFF"></path>
                <path d="M917.657493,39.9627706 C917.329826,40.1115941 917.031344,40.2861235 916.803171,40.5242412 C917.037976,40.3848882 917.355031,40.1900647 917.657493,39.9627706" id="Fill-11" fill="#FFFFFF"></path>
                <path d="M64.5091369,33.9577412 C64.4069897,33.9320353 64.3234147,33.8928 64.2186144,33.8711529 C64.312802,33.9482706 64.4096429,33.9658588 64.5091369,33.9577412" id="Fill-13" fill="#FFFFFF"></path>
                <path d="M1089.80802,33.0408529 C1091.908,32.7188529 1094.69118,34.4682059 1094.45372,30.0332647 L1092.4068,31.2387353 C1092.26618,30.9667941 1092.15873,30.6921471 1092.06985,30.4188529 C1092.01944,31.3212647 1090.88388,32.3021471 1089.80802,33.0408529" id="Fill-15" fill="#FFFFFF"></path>
                <path d="M1092.07383,30.3930118 C1092.06985,30.3943647 1092.06719,30.3957176 1092.06321,30.3984235 C1092.06587,30.4051882 1092.06719,30.4119529 1092.06985,30.4187176 C1092.06985,30.4106 1092.07383,30.4011294 1092.07383,30.3930118" id="Fill-17" fill="#FFFFFF"></path>
                <path d="M460.407915,36.7798412 C459.988714,37.0788412 459.511143,37.4671353 458.94469,37.9920765 C459.414302,37.5496647 459.915752,37.1600176 460.407915,36.7798412" id="Fill-19" fill="#FFFFFF"></path>
                <polygon id="Fill-21" fill="#FFFFFF" points="426.327366 37.4379118 426.310121 35.8996176 425.258137 37.2471471"></polygon>
                <path d="M1389.49104,21.5090588 C1389.61839,22.0434706 1389.86779,22.5981765 1390.3626,23.0622353 C1390.32413,22.6658235 1389.94871,22.1111176 1389.49104,21.5090588" id="Fill-23" fill="#FFFFFF"></path>
                <path d="M1418.15248,22.8725529 L1422.20785,25.0399647 C1420.45278,23.8074353 1419.17528,23.2216118 1418.15248,22.8725529" id="Fill-25" fill="#FFFFFF"></path>
                <g id="Group-29" transform="translate(1439.346826, 23.084018)">
                    <mask id="mask-2" fill="white">
                        <use xlink:href="#path-1"></use>
                    </mask>
                    <g id="Clip-28"></g>
                    <path d="M0.843311316,2.80627059 C1.12189457,1.7388 1.20281638,0.935152941 1.27445207,0.195094118 C1.25720644,0.180211765 1.24526716,0.180211765 1.23200129,0.153152941 L0.843311316,2.80627059 Z" id="Fill-27" fill="#000000" mask="url(#mask-2)"></path>
                </g>
                <path d="M1089.80802,33.0408529 C1089.51086,33.0719706 1089.22034,33.1517941 1088.95767,33.3155 C1086.96116,34.4939118 1088.31959,34.0285 1089.80802,33.0408529" id="Fill-30" fill="#FFFFFF"></path>
                <path d="M1194.07855,18.8244176 C1192.97085,19.9284176 1191.88172,21.0121235 1190.72759,21.6994176 C1192.58216,22.1648294 1194.02416,22.2865941 1194.07855,18.8244176" id="Fill-32" fill="#FFFFFF"></path>
                <path d="M973.374144,40.3656765 C973.38741,40.3291471 973.374144,40.3129118 973.38741,40.2601471 C973.136685,40.2817941 972.916471,40.2601471 972.6684,40.2601471 L973.374144,40.3656765 Z" id="Fill-34" fill="#FFFFFF"></path>
                <path d="M1185.87798,21.5936176 C1187.73255,22.8045 1189.28466,22.5447353 1190.72666,21.6991471 C1189.20506,21.2919118 1187.41152,20.6682059 1185.87798,21.5936176" id="Fill-36" fill="#FFFFFF"></path>
                <polygon id="Fill-38" fill="#FFFFFF" points="1242.34217 27.8298647 1243.76692 22.7563353 1239.34939 24.3893353"></polygon>
                <g id="Group-42" transform="translate(0.000000, 0.084018)">
                    <mask id="mask-4" fill="white">
                        <use xlink:href="#path-3"></use>
                    </mask>
                    <g id="Clip-41"></g>
                    <path d="M1359.04693,8.75544706 C1358.76171,5.84391765 1358.48578,0.932741176 1360.3629,-0.468905882 L1362.76402,-0.468905882 C1363.38752,3.28685882 1363.11026,6.84509412 1359.04693,8.75544706 L1359.04693,8.75544706 Z M1356.75458,0.616152941 L1357.4338,-0.468905882 L1360.34566,-0.468905882 C1359.57491,0.106094118 1358.00954,1.79321176 1356.75458,0.616152941 L1356.75458,0.616152941 Z M254.748204,19.4734471 C254.326349,17.3696235 254.781369,15.2089765 255.995196,15.3199176 C255.335882,16.7202118 258.176105,17.9351529 259.97363,19.7115647 C258.506425,19.4734471 256.681041,19.4315059 254.748204,19.4734471 L254.748204,19.4734471 Z M248.071492,19.9280353 C246.744905,20.0700941 245.784456,20.1932118 245.113203,20.2716824 C245.730066,20.1864471 246.744905,20.0646824 248.071492,19.8062706 L248.071492,19.9280353 Z M1440.67315,-5.88067059 L-0.000265317387,-5.88067059 L-0.000265317387,20.1999765 C0.149639006,20.0930941 0.2822977,19.9835059 0.457407176,19.8806824 C3.58549917,24.4617412 2.67280736,28.1931529 6.34214683,24.2831529 C6.85686256,26.8780941 6.07948261,28.5313882 4.62554333,29.6732706 C7.89292695,26.5601529 13.2709104,28.3568588 14.9570024,22.9978588 C18.2164265,28.6531529 25.9862462,21.5285647 25.6652121,31.0681529 C26.6919904,28.7857412 31.4186197,23.5796235 34.4193593,23.1832118 C28.9365755,34.6033882 45.6515709,23.8542706 44.2016114,36.0997412 C48.2596408,25.8309176 58.8577439,31.5389765 66.0438653,25.8417412 C65.7029325,26.5358 65.07811,27.8265059 64.5090042,27.8738588 C68.305696,28.8141529 69.5062572,31.7838588 72.0387117,33.6739176 C72.5587338,25.1909765 78.8573685,23.2522118 82.2521045,18.0203882 C87.2108865,26.2016235 79.2420787,27.9766824 80.7981652,35.8413294 C80.5487669,28.9656824 89.4130208,28.9751529 87.7269288,23.2522118 C91.5183143,28.3149176 90.9943124,25.7091529 92.9470484,32.7390353 C93.6103419,22.1319765 96.4770962,30.9409765 99.6224339,24.4306235 C105.109197,29.6570353 101.033922,34.3666235 107.061933,31.1371529 C109.927361,34.3869176 104.56795,38.1453882 104.56795,38.1453882 C110.706068,38.3199176 107.450623,30.3186235 108.753332,25.7253882 C116.078745,23.4578588 112.142761,31.6133882 114.638071,35.7033294 C119.212143,33.5886824 122.720966,26.2489765 126.131621,26.5601529 C126.384999,27.8765647 127.049619,28.3568588 126.270912,30.0060941 C131.107648,23.6486235 140.627236,29.6949176 146.262577,21.7085059 C146.680452,22.4174471 146.892706,23.0885059 146.997507,23.6905647 C146.084815,19.6899176 145.945523,15.6148588 146.131245,12.7195647 C148.882587,12.5815647 151.238605,7.66632941 152.273343,12.8940941 C150.587251,12.7398588 150.446633,14.8490941 149.657313,16.4820941 L152.539987,14.2091529 C155.136117,21.7247412 148.604003,16.8095059 148.604003,22.3700941 C154.227405,19.9280353 160.779418,13.7072118 165.086846,15.8313294 C165.986272,23.1832118 155.012745,18.3058588 160.762173,24.8432706 L154.094747,22.0318588 C159.18884,33.6319765 150.046003,21.2228 154.726202,33.6319765 C163.497595,35.7615059 164.537639,29.8843294 173.287806,32.0300941 C175.257788,27.9455647 172.636452,25.9892118 174.606434,21.8992706 C187.043186,14.5582118 184.396645,40.3858588 193.540809,30.5932706 C195.90744,25.6942706 196.825438,16.3928 203.336327,21.3120941 L201.115621,29.6259176 C209.60843,30.4444471 205.965622,17.6767412 214.859061,23.2684471 C213.27777,26.5344471 208.183676,26.0216824 209.469139,27.0093294 C215.230506,33.5738 213.544414,22.2956824 217.975214,22.2956824 L218.891886,29.6570353 C227.935229,28.5002706 237.893917,23.1832118 247.908322,21.8410941 C247.355135,24.0288 245.638531,26.3328588 247.979957,28.5841529 C260.611718,24.9068588 274.942837,29.4825059 287.124885,33.8484471 L291.779878,27.4963882 C292.862373,27.5640353 293.788331,30.3659765 292.616955,31.5971529 C297.363483,34.0067412 292.862373,27.5640353 295.145429,25.0705647 C297.84636,24.6254471 298.712622,28.7221529 297.001324,30.6298 C305.378721,25.2450941 320.86795,19.0242706 329.695059,25.8309176 L327.974476,27.7182706 C334.847523,30.2969765 335.73103,14.6962118 342.106607,20.6207412 L340.88482,21.7463882 C355.80229,24.4996235 372.289113,18.6806235 383.673882,28.2729765 C385.837545,19.1189765 398.440121,32.3520941 399.399243,19.5898 C407.917258,25.9161529 405.478991,28.1931529 417.475317,32.4481529 C420.680351,33.0339765 422.252357,24.4779765 426.213545,23.1466824 L426.310386,29.8153294 L431.687043,22.8192706 L434.549817,30.7989176 L438.265587,29.0860941 C436.786443,28.6896824 435.12025,26.0906824 435.344443,24.1668 C441.148261,21.1483882 449.493819,28.8168588 449.637091,32.2357412 L463.367266,26.5926235 C463.141746,28.5828 461.817812,29.6029176 460.40765,30.6960941 C465.418169,27.1310941 460.795013,38.4552118 466.994154,32.6957412 C466.093402,31.1790941 467.481012,28.7221529 467.632243,27.3746235 C470.980548,31.4063882 478.603116,31.4442706 484.242438,29.7422706 L483.159943,34.3395647 C493.342824,35.5125647 504.630752,32.1356235 516.060625,32.2208588 C511.960145,30.0750941 512.903348,22.1049176 516.255633,21.3391529 L517.595486,28.3839176 C519.75915,24.0288 514.094623,25.7253882 518.53869,20.3934471 C522.807646,21.2065647 521.408097,28.4096235 518.956564,30.7042118 L524.147499,28.2567412 C524.452614,30.3659765 523.234807,31.4753882 522.917753,34.1596235 C525.048252,29.7788 531.880174,41.2368588 534.95255,33.6319765 L535.244399,35.7290353 C546.671619,35.7872118 551.853267,33.3613882 561.161928,33.0082706 C561.344997,26.9200353 564.983825,28.2729765 567.757718,23.3523294 C574.596274,25.2924471 582.189657,30.0750941 590.431742,29.5623294 C596.223621,26.5344471 592.12314,24.4089765 594.727231,20.7898588 C595.154392,26.3328588 603.385863,25.8146824 599.11558,29.7950353 C609.006612,28.8966824 611.751321,28.6896824 624.259709,24.1870941 C622.90261,21.9155059 621.377036,20.9319176 622.166355,19.0405059 C624.437472,18.1259176 627.333411,21.3648588 627.00707,24.0288 L626.407453,24.5997412 C640.195998,16.4374471 658.150025,39.8663294 669.38091,29.7747412 L680.968647,23.7541529 C686.30418,24.7160941 677.76892,27.9239176 681.716842,31.3536235 C694.226557,22.1049176 701.480334,32.6957412 711.782609,26.5344471 C719.755396,42.8901529 740.076055,25.3817412 750.838655,35.8250941 L750.217812,31.9719176 C752.998338,28.1931529 753.582036,34.1758588 755.63294,35.0579765 C755.341091,32.0666235 752.613628,31.5971529 754.343497,29.5041529 C777.906334,24.8581529 802.978828,35.1323882 827.137302,38.6094471 C835.972371,39.6403882 832.150474,18.6806235 843.291151,27.8765647 L840.128568,35.0268588 C857.959223,26.4438 876.588484,35.3231529 894.045041,28.0456824 C893.00367,29.6949176 892.974485,31.8393294 891.271148,31.8136235 C894.956406,37.0089176 904.903155,32.0666235 904.966831,27.8238 C907.686334,28.3095059 905.598287,31.6607412 907.271113,33.8159765 C910.969637,36.8817412 916.554568,27.1838588 918.52057,32.3520941 C918.739457,32.9027412 918.226068,33.4506824 917.656962,33.8782118 C920.79434,32.4522118 927.814638,34.5140941 925.72261,29.0860941 C932.27595,31.9462118 938.25753,26.4180941 943.482956,29.9695647 C946.890958,23.2684471 954.697922,33.1922706 955.780417,23.7176235 C955.310806,33.5102118 967.266007,31.6133882 971.408938,27.0093294 C970.021328,29.9695647 975.010622,30.0750941 973.386879,34.1758588 C978.113508,34.0378588 982.446141,32.2208588 981.621004,27.1892706 C990.330047,38.9057412 999.127972,17.7606235 1004.03104,32.7755647 C1018.07429,27.5112706 1031.06953,23.9489765 1043.69997,21.6557412 C1043.24362,31.4226235 1029.73764,22.6285059 1030.27889,32.8810941 C1042.26195,28.8588 1049.17479,20.4773294 1061.05703,22.8341529 C1064.13471,24.1668 1059.31257,27.0675059 1058.2712,28.7383882 C1070.23966,24.7174471 1081.41351,29.6218588 1092.06335,24.3142706 C1090.14643,18.3870353 1099.82255,12.1391529 1101.00454,8.75274118 C1097.92155,20.7641529 1111.56948,11.6967412 1105.98057,27.5640353 C1107.36287,26.7292706 1109.09672,24.6254471 1108.77967,21.6557412 C1110.83057,22.5229765 1111.4806,24.2560941 1109.40051,27.6330353 C1116.92093,25.2180353 1114.25051,20.4989765 1121.06386,20.5990941 C1121.03866,22.7502706 1119.66564,23.5796235 1118.9599,26.1055647 C1122.40902,21.9155059 1125.87407,17.7240941 1131.63278,19.5424471 C1131.28654,20.8372118 1131.95382,22.5229765 1130.23854,22.4905059 C1140.12559,21.8410941 1147.09283,11.3341529 1157.939,15.3780941 C1154.73927,24.7160941 1161.63089,18.4533294 1162.20398,26.5344471 L1168.03963,24.1235059 L1165.69688,20.2026824 C1170.80822,20.3406824 1175.3226,14.4526824 1179.7136,17.1003882 L1175.91823,20.4299765 L1185.49354,18.8970941 L1180.07443,15.8313294 C1185.24281,11.6669765 1179.51992,5.6058 1186.32133,7.85709412 C1184.94035,8.67562353 1191.43267,7.95721176 1194.09513,12.7195647 C1194.09513,12.7195647 1194.07921,12.7195647 1194.07921,12.7398588 C1196.60768,10.1665647 1199.20647,7.45527059 1202.98591,9.46303529 C1203.96759,12.0485059 1202.19527,18.4005647 1202.83336,20.1174471 C1205.32734,13.3635647 1214.80182,18.2476824 1217.9591,11.0486824 C1216.90712,12.7398588 1216.85273,16.9786235 1217.19764,17.8458588 L1219.28967,12.3596824 C1221.65895,14.1144471 1222.00386,14.9654471 1221.61915,18.3478 C1228.73762,19.3516824 1219.35865,8.09521176 1227.80901,12.5125647 C1227.14439,12.9563294 1227.46277,13.7762118 1226.08047,14.6109765 C1234.56797,16.9150353 1242.47841,11.1285059 1250.27741,13.8289765 C1252.57639,21.9628588 1243.46273,15.8218588 1246.09601,22.6812706 C1257.34149,21.2065647 1269.38026,12.9306235 1280.26093,14.8490941 L1278.23258,13.9507412 C1279.74223,2.47103529 1286.33537,19.6209176 1291.84071,14.2091529 C1290.49157,15.0601529 1290.07369,20.5828588 1290.43718,19.3043294 C1297.88862,21.1483882 1305.67303,16.4820941 1316.96361,12.8670353 L1315.56406,15.8218588 C1319.95639,18.4533294 1327.12925,17.3385059 1331.87312,18.6806235 C1333.28063,15.7366235 1335.99483,16.2128588 1334.34588,11.9267412 C1348.97283,28.7221529 1362.24665,2.92156471 1375.22465,16.9150353 C1373.67255,16.9475059 1371.5248,19.4937412 1372.75986,19.4991529 L1383.81431,16.7878588 C1382.94008,11.7833294 1382.36435,13.7599765 1380.04414,9.86485882 C1381.44369,6.90056471 1384.5625,4.60191765 1387.3019,4.60191765 C1382.33118,7.91527059 1387.34435,12.6343294 1389.49077,15.4254471 C1389.13259,13.8925647 1389.86752,12.2013882 1389.68711,10.6428 C1395.46041,19.5424471 1390.65419,0.579623529 1398.53942,6.57315294 L1398.11889,9.19921176 C1401.07055,7.85709412 1403.78872,4.38544706 1406.97253,5.13497647 C1408.29116,10.9228588 1403.83118,7.83544706 1403.62688,12.5978 C1408.09748,12.2649765 1412.44603,1.63627059 1416.49212,7.40250588 C1414.59378,9.01385882 1411.86233,9.04091765 1409.96531,10.6428 C1414.36958,17.4332118 1414.88164,15.7109176 1418.15301,16.7878588 L1417.83197,16.6349765 L1425.39883,19.7115647 L1423.46997,17.8661529 C1428.63039,3.95115294 1433.96327,13.3527412 1440.67315,7.13732941 L1440.67315,-5.88067059 Z" id="Fill-40" fill="#FFFFFF" mask="url(#mask-4)"></path>
                </g>
            </g>
        </g>
    </g>
</svg>